<svg id="Layer_1" data-name="Layer 1" xmlns="http://www.w3.org/2000/svg" viewBox="0 0 237.93 238"><defs><style>.cls-1{fill:#005cda;}.cls-2{fill:#fecc00;}</style></defs><path class="cls-1" d="M116.17,244c-3-1-6.2-.71-9.26-1.37-1.65-.36-3.32-.67-5-1a3.73,3.73,0,0,1-.26-2.7c1.13-7.34,2.24-14.67,3.44-22,.51-3.09,1.07-3.45,4.22-3a97.31,97.31,0,0,0,16.6,1.41,109.14,109.14,0,0,0,15-1.44c2.83-.46,3.48,0,3.94,2.77,1.25,7.47,2.38,15,3.52,22.45a3.42,3.42,0,0,1-.29,2.47,84.55,84.55,0,0,1-12.55,1.92c-.72.08-1.56-.26-2.15.45Z" transform="translate(-6.13 -6)"/><path class="cls-1" d="M125.23,6a129.68,129.68,0,0,1,20.6,1.84c.75.11,1.49.35,2.24.53a3.73,3.73,0,0,1,.26,2.7c-1.13,7.34-2.24,14.67-3.44,22-.51,3.09-1.07,3.45-4.22,3a97.31,97.31,0,0,0-16.6-1.41,109.14,109.14,0,0,0-15,1.44c-2.83.46-3.48,0-3.94-2.77-1.25-7.47-2.38-15-3.52-22.45a3.42,3.42,0,0,1,.29-2.47C106.12,7.27,113.48,6,124.3,6" transform="translate(-6.13 -6)"/><path class="cls-1" d="M8.37,101.93a3.72,3.72,0,0,1,2.7-.26c7.33,1.13,14.67,2.24,22,3.44,3.09.51,3.45,1.07,3,4.22a97.31,97.31,0,0,0-1.41,16.6,109.14,109.14,0,0,0,1.44,15c.45,2.83,0,3.48-2.77,3.94-7.47,1.25-15,2.38-22.45,3.52a3.42,3.42,0,0,1-2.47-.29,77.75,77.75,0,0,1-2-14.16c-.16-1.88-.13-3.14-.26-4.78,0-2.79,0-5.53,0-8.31" transform="translate(-6.13 -6)"/><path class="cls-1" d="M243.61,133.91a77.75,77.75,0,0,1-2,14.16,3.72,3.72,0,0,1-2.7.26c-7.33-1.13-14.67-2.24-22-3.44-3.09-.51-3.45-1.07-3-4.22a97.31,97.31,0,0,0,1.41-16.6,109.14,109.14,0,0,0-1.44-15c-.45-2.83,0-3.48,2.77-3.94,7.47-1.25,15-2.38,22.45-3.52a3.42,3.42,0,0,1,2.47.29,77.75,77.75,0,0,1,2,14.16c.14,2.54.28,3.81.39,5.64.17,2.84-.08,4.56-.09,7.2a4.55,4.55,0,0,1,0,.52C243.65,131.26,243.74,131.37,243.61,133.91Z" transform="translate(-6.13 -6)"/><path class="cls-2" d="M241.63,101.93c-8.48,1.33-17,2.73-25.46,3.94-1.84.26-2,.86-1.74,2.51a87.66,87.66,0,0,1,0,33.24c-.31,1.65-.1,2.25,1.74,2.51,8.5,1.21,17,2.61,25.46,3.94A107.48,107.48,0,0,1,232.06,177a91.35,91.35,0,0,1-8.25,14.2c-1,.31-1.58-.47-2.24-.95-6.17-4.39-12.25-8.9-18.36-13.38-1.35-1-2.09-1-3.11.45a89,89,0,0,1-22.82,22.82c-1.48,1-1.44,1.76-.45,3.11,4.48,6.11,9,12.19,13.39,18.36.47.66,1.25,1.23.94,2.24a111.57,111.57,0,0,1-43.09,17.82c-1.34-8.54-2.71-17.07-4-25.62-.22-1.5-.64-1.95-2.18-1.65a87.19,87.19,0,0,1-33.84,0c-1.54-.3-2,.15-2.18,1.65-1.26,8.55-2.63,17.08-4,25.62a105.5,105.5,0,0,1-26.63-8.49,97.8,97.8,0,0,1-16.52-9.36c-.27-1.09.54-1.73,1.07-2.44,4.42-6.06,8.79-12.15,13.3-18.15,1-1.35,1-2.07-.43-3.08a89.43,89.43,0,0,1-22.83-22.83c-1-1.48-1.73-1.45-3.08-.43-6,4.51-12.09,8.88-18.15,13.3-.71.53-1.36,1.34-2.44,1.07A111.89,111.89,0,0,1,8.37,148.07c8.54-1.34,17.07-2.71,25.62-4,1.49-.22,1.95-.63,1.65-2.18a87.19,87.19,0,0,1,0-33.84c.3-1.55-.16-2-1.65-2.18-8.55-1.26-17.08-2.63-25.62-4a105.39,105.39,0,0,1,8.48-26.6,96.46,96.46,0,0,1,9.34-16.49c1-.31,1.58.47,2.24.95,6.17,4.39,12.25,8.9,18.36,13.38,1.35,1,2.09,1,3.11-.45A89,89,0,0,1,72.72,49.9c1.48-1,1.44-1.76.45-3.11-4.48-6.11-9-12.19-13.39-18.36-.47-.66-1.25-1.23-.94-2.24A111.64,111.64,0,0,1,101.93,8.37c1.34,8.54,2.71,17.07,4,25.62.22,1.5.64,1.95,2.18,1.65a87.19,87.19,0,0,1,33.84,0c1.54.3,2-.16,2.18-1.65,1.26-8.55,2.63-17.08,4-25.62a104.28,104.28,0,0,1,25.51,8,100.87,100.87,0,0,1,17.54,9.8c.08,1.29-.82,2.14-1.49,3.05q-6.36,8.72-12.75,17.41c-1.07,1.47-1,2.29.49,3.35a89.87,89.87,0,0,1,22.68,22.68c1.06,1.52,1.88,1.55,3.34.47,5.77-4.29,11.61-8.5,17.41-12.75.92-.67,1.76-1.56,3.06-1.47A112.07,112.07,0,0,1,241.63,101.93Z" transform="translate(-6.13 -6)"/><path class="cls-1" d="M58.84,26.19c5.09,7,10.15,14,15.31,21,.94,1.27.93,1.82-.46,2.77A87.93,87.93,0,0,0,49.91,73.69c-.94,1.39-1.49,1.4-2.77.46C40.2,69,33.18,63.93,26.19,58.84A114.61,114.61,0,0,1,58.84,26.19Z" transform="translate(-6.13 -6)"/><path class="cls-1" d="M223.86,58.89c-7,5.09-14,10.16-21,15.32-1.31,1-1.83.86-2.75-.5a88.4,88.4,0,0,0-23.83-23.82c-1.35-.92-1.47-1.45-.5-2.76,5.16-7,10.23-14,15.33-21A114.73,114.73,0,0,1,223.86,58.89Z" transform="translate(-6.13 -6)"/><path class="cls-1" d="M191.16,223.81c-5.09-7-10.15-14-15.31-20.95-.94-1.27-.93-1.82.47-2.77a88.14,88.14,0,0,0,23.77-23.77c.95-1.4,1.49-1.41,2.77-.46,6.94,5.15,14,10.21,20.95,15.3A113.61,113.61,0,0,1,191.16,223.81Z" transform="translate(-6.13 -6)"/><path class="cls-1" d="M26.22,191.22c7-5.1,14-10.16,21-15.33,1.35-1,1.88-.82,2.78.51A88.32,88.32,0,0,0,73.6,200c1.33.9,1.52,1.43.52,2.78-5.18,6.94-10.24,14-15.34,21A114.11,114.11,0,0,1,26.22,191.22Z" transform="translate(-6.13 -6)"/><path class="cls-1" d="M125.11,114.38a5,5,0,0,0,1.72-1.95c8.65-11.89,17.33-23.75,25.89-35.71a8.08,8.08,0,0,1,7.4-3.82c3.95.15,7.9.06,11.85,0a6.89,6.89,0,0,1,6.64,3.85c1.42,2.71.82,5.16-1,7.55q-18.94,25.24-37.85,50.54a5.91,5.91,0,0,0-1.29,3.8q.08,23.46,0,46.93c0,5.62-2.61,8.19-8.24,8.2H119.6c-4.92,0-7.65-2.68-7.66-7.57q0-23.58,0-47.16a6.25,6.25,0,0,0-1.33-4Q91.87,109.95,73.17,84.79c-1.33-1.79-2.41-3.6-2-6A7,7,0,0,1,77.93,73c4.56-.08,9.13,0,13.7,0,2.76,0,4.53,1.62,6.05,3.73q13,18,26.17,36.07C124.26,113.3,124.69,113.83,125.11,114.38Z" transform="translate(-6.13 -6)"/></svg>