<svg width="28" height="28" viewBox="0 0 28 28" fill="none" xmlns="http://www.w3.org/2000/svg">
    <rect width="28" height="28" rx="5" fill="white" />
    <path fill-rule="evenodd" clip-rule="evenodd" d="M12.9815 7.26759C12.7652 7.64124 12.5883 7.96477 12.5883 7.98661C12.5883 8.04737 12.6932 8.12911 12.9854 8.29604C13.1323 8.37995 13.2479 8.45684 13.2424 8.46695C13.2367 8.47703 11.9895 10.6422 10.4706 13.2785C8.95175 15.9148 7.66816 18.1533 7.6182 18.2529C7.41435 18.6592 7.35374 19.2657 7.47108 19.7252C7.83375 21.1457 9.35667 21.8243 10.6647 21.1484C10.8452 21.0551 10.9578 20.9668 11.1714 20.7512L11.4461 20.474L12.3265 18.9398C12.8107 18.096 13.5077 16.8843 13.8753 16.2472C14.243 15.61 15.1139 14.0982 15.8108 12.8875C16.5078 11.6769 17.0802 10.6835 17.0829 10.6799C17.0856 10.6763 17.2224 10.7512 17.3869 10.8464C17.703 11.0293 17.7856 11.0509 17.8566 10.9688C17.9563 10.8535 18.6675 9.58243 18.6675 9.5195C18.6675 9.48193 18.6561 9.44023 18.6422 9.42682C18.6283 9.41341 17.5244 8.76926 16.1891 7.99536L13.7613 6.58826H13.568H13.3747L12.9815 7.26759ZM15.1718 9.56103C15.9057 9.98544 16.5085 10.3343 16.5115 10.3363C16.5192 10.3416 14.0344 14.65 14.0082 14.6767C13.9961 14.6891 13.8766 14.6077 13.7426 14.4958C13.4416 14.2442 13.1719 14.1011 12.6719 13.9272C12.086 13.7235 11.7893 13.5562 11.44 13.2322L11.3182 13.1192L11.4488 12.902C11.5206 12.7826 11.5897 12.667 11.6025 12.6452C11.6204 12.6147 11.719 12.66 12.0359 12.8444C12.2615 12.9757 12.4533 13.0759 12.4621 13.067C12.4913 13.0378 12.7039 12.6643 12.7039 12.6422C12.7039 12.6303 12.5705 12.5449 12.4075 12.4524C12.2445 12.3599 12.0616 12.2532 12.0011 12.2152L11.8909 12.1461L11.9977 11.9521C12.0564 11.8453 12.1126 11.7488 12.1225 11.7375C12.1324 11.7263 12.2379 11.7738 12.357 11.843L12.5736 11.969L12.6953 11.7622C12.7622 11.6484 12.8173 11.5422 12.8176 11.5263C12.8179 11.5104 12.727 11.4459 12.6155 11.3831C12.5039 11.3203 12.4164 11.2551 12.421 11.2383C12.4415 11.1623 12.6346 10.8464 12.6605 10.8464C12.6764 10.8465 12.8651 10.9495 13.0798 11.0754C13.5252 11.3367 13.4669 11.3426 13.651 11.0174L13.7451 10.8511L13.3285 10.6108L12.9119 10.3703L12.9887 10.2367C13.0308 10.1633 13.2345 9.80776 13.4412 9.44671C13.648 9.08567 13.8217 8.79008 13.8273 8.78982C13.833 8.78959 14.438 9.13661 15.1718 9.56103ZM20.0268 10.462C19.5656 11.0596 19.2311 11.6793 19.1055 12.1682C19.0442 12.407 19.0338 12.505 19.0415 12.7733C19.0502 13.0763 19.0565 13.1052 19.1597 13.3144C19.638 14.2837 21.0888 14.1365 21.3678 13.0903C21.5021 12.587 21.3255 11.8808 20.8808 11.1423C20.6925 10.8296 20.2616 10.2375 20.2224 10.2375C20.21 10.2375 20.122 10.3385 20.0268 10.462Z" fill="#279FFE" />
</svg>
    