<svg width="114" height="105" viewBox="0 0 114 105" fill="none" xmlns="http://www.w3.org/2000/svg">
    <g clip-path="url(#clip0_900_1795)">
        <path d="M56.9987 104.997C88.4782 104.997 113.997 89.9376 113.997 71.3603C113.997 52.7831 88.4782 37.7232 56.9987 37.7232C25.5192 37.7232 0 52.7831 0 71.3603C0 89.9376 25.5192 104.997 56.9987 104.997Z" fill="#F5F5F5" />
        <path d="M17.1889 71.3885C20.4879 73.3008 20.4879 76.4026 17.1889 78.3174C13.8899 80.2297 8.54216 80.2297 5.24572 78.3174C1.94674 76.4051 1.94674 73.3034 5.24572 71.3885C8.54471 69.4762 13.8925 69.4762 17.1889 71.3885Z" fill="#E0E0E0" />
        <path d="M24.4273 75.7873L54.3453 93.1416C54.9551 93.4954 55.945 93.4954 56.5548 93.1416L107.2 63.7624C107.81 63.4086 107.81 62.8344 107.2 62.4807L77.2825 45.1263C76.6727 44.7726 75.6828 44.7726 75.073 45.1263L24.4273 74.5056C23.8175 74.8594 23.8175 75.4336 24.4273 75.7873Z" fill="#E0E0E0" />
        <path d="M99.934 57.5384L97.8495 56.3285C97.8495 56.3285 96.6095 51.1504 97.1045 46.4901C97.7985 39.938 101.309 37.0849 103.725 38.0385C105.333 38.6742 105.83 40.5096 103.128 44.4111C101.534 46.7131 99.5768 51.5092 99.934 57.5384Z" fill="#279FFE" />
        <g opacity="0.3">
            <path d="M99.934 57.5384L97.8495 56.3285C97.8495 56.3285 96.6095 51.1504 97.1045 46.4901C97.7985 39.938 101.309 37.0849 103.725 38.0385C105.333 38.6742 105.83 40.5096 103.128 44.4111C101.534 46.7131 99.5768 51.5092 99.934 57.5384Z" fill="black" />
        </g>
        <path d="M99.0691 54.9955C99.0691 54.9955 99.0819 54.9955 99.0895 54.9955C99.1686 54.9801 99.2196 54.9058 99.2043 54.8263C98.0613 48.7843 100.164 41.9913 102.766 39.1664C102.82 39.1074 102.817 39.0152 102.758 38.9613C102.7 38.9075 102.608 38.9101 102.554 38.969C99.906 41.8452 97.7628 48.7484 98.9211 54.8801C98.9339 54.9519 99.0002 55.0006 99.0691 54.998V54.9955Z" fill="white" />
        <path d="M105.394 60.7068C105.723 60.876 106.598 60.1223 106.843 59.9378C107.262 59.625 107.591 59.1944 107.8 58.715C108.042 58.1587 108.083 57.5717 107.968 56.9744C107.91 56.6643 107.808 56.3644 107.706 56.067C107.606 55.7748 107.507 55.4825 107.407 55.1877C107.308 54.8981 107.208 54.6007 107.231 54.2957C107.277 53.683 107.795 53.2267 108.267 52.8345C108.787 52.3988 109.326 51.8322 109.285 51.0991C109.254 50.5326 108.935 50.0225 108.565 49.5944C108.193 49.1688 107.759 48.7972 107.42 48.3434C107.175 48.0179 106.978 47.6282 106.994 47.2207C107.004 46.9669 107.096 46.7234 107.206 46.4952C107.44 46.003 107.757 45.5493 107.91 45.0264C108.063 44.5034 108.004 43.8677 107.588 43.5191C107.246 43.2345 106.757 43.2166 106.315 43.2679C105.907 43.3166 105.517 43.5216 105.167 43.7395C104.039 44.447 103.447 45.8595 102.24 46.4209C101.776 46.6362 101.258 46.7054 100.768 46.8618C100.281 47.0181 99.7886 47.2976 99.5819 47.7692C99.1762 48.6997 100.069 49.7738 99.8013 50.7505C99.5641 51.6169 98.7553 51.9835 98.3317 52.7756C98.1455 53.1216 98.12 53.5113 98.171 53.9009C98.2603 54.5597 98.3802 55.0416 98.7323 55.7619C99.0232 56.3567 99.8447 57.482 99.8447 57.482C99.8447 57.482 105.34 60.6734 105.392 60.6991L105.394 60.7068Z" fill="#279FFE" />
        <g opacity="0.15">
            <path d="M105.394 60.7068C105.723 60.876 106.598 60.1223 106.843 59.9378C107.262 59.625 107.591 59.1944 107.8 58.715C108.042 58.1587 108.083 57.5717 107.968 56.9744C107.91 56.6643 107.808 56.3644 107.706 56.067C107.606 55.7748 107.507 55.4825 107.407 55.1877C107.308 54.8981 107.208 54.6007 107.231 54.2957C107.277 53.683 107.795 53.2267 108.267 52.8345C108.787 52.3988 109.326 51.8322 109.285 51.0991C109.254 50.5326 108.935 50.0225 108.565 49.5944C108.193 49.1688 107.759 48.7972 107.42 48.3434C107.175 48.0179 106.978 47.6282 106.994 47.2207C107.004 46.9669 107.096 46.7234 107.206 46.4952C107.44 46.003 107.757 45.5493 107.91 45.0264C108.063 44.5034 108.004 43.8677 107.588 43.5191C107.246 43.2345 106.757 43.2166 106.315 43.2679C105.907 43.3166 105.517 43.5216 105.167 43.7395C104.039 44.447 103.447 45.8595 102.24 46.4209C101.776 46.6362 101.258 46.7054 100.768 46.8618C100.281 47.0181 99.7886 47.2976 99.5819 47.7692C99.1762 48.6997 100.069 49.7738 99.8013 50.7505C99.5641 51.6169 98.7553 51.9835 98.3317 52.7756C98.1455 53.1216 98.12 53.5113 98.171 53.9009C98.2603 54.5597 98.3802 55.0416 98.7323 55.7619C99.0232 56.3567 99.8447 57.482 99.8447 57.482C99.8447 57.482 105.34 60.6734 105.392 60.6991L105.394 60.7068Z" fill="black" />
        </g>
        <path d="M102.205 59.038H102.21C102.291 59.0303 102.35 58.9585 102.342 58.8791C101.814 53.1319 104.197 46.6362 106.068 44.688C106.124 44.6316 106.121 44.5393 106.065 44.4829C106.006 44.4265 105.917 44.4291 105.861 44.4855C103.952 46.4721 101.521 53.0755 102.054 58.9047C102.062 58.9816 102.128 59.0406 102.205 59.0354V59.038Z" fill="white" />
        <path d="M102.771 51.9502C102.786 51.9502 102.799 51.9476 102.815 51.9425C104.629 51.276 106.917 51.0606 106.94 51.0581C107.019 51.0504 107.078 50.9786 107.07 50.8992C107.063 50.8197 106.999 50.7582 106.912 50.7684C106.889 50.7684 104.562 50.9914 102.712 51.6707C102.638 51.6989 102.598 51.781 102.626 51.8579C102.649 51.9194 102.707 51.9553 102.769 51.9527L102.771 51.9502Z" fill="white" />
        <path d="M25.4504 72.5959C25.4504 73.3546 26.0169 74.298 26.7134 74.7004L54.1896 90.6423C54.8862 91.0473 56.0165 91.0473 56.713 90.6423L105.096 62.5781C105.792 62.173 106.359 61.2323 106.359 60.4735C106.359 59.7147 105.795 58.7714 105.096 58.3689L77.6193 42.4271C76.9228 42.022 75.7925 42.022 75.096 42.4271L26.7134 70.4913C26.0169 70.8963 25.4504 71.8371 25.4504 72.5959Z" fill="#37474F" />
        <path d="M26.7109 71.955L54.1871 87.8969C54.8837 88.3019 56.0139 88.3019 56.7105 87.8969L105.093 59.8326C105.79 59.4276 105.79 58.7739 105.093 58.3689L77.6168 42.4271C76.9203 42.022 75.79 42.022 75.0935 42.4271L26.7109 70.4913C26.0143 70.8963 26.0143 71.55 26.7109 71.955Z" fill="#455A64" />
        <path d="M55.45 88.2019V90.9448C54.9933 90.9448 54.5341 90.8448 54.1871 90.6423L26.7108 74.7004C26.0143 74.2954 25.4479 73.3547 25.4479 72.5959C25.4479 71.8833 25.9454 71.0117 26.5807 70.5733C26.0143 70.9809 26.0602 71.5782 26.7083 71.955L54.1845 87.8969C54.5315 88.0994 54.9882 88.2019 55.4475 88.2019H55.45Z" fill="#263238" />
        <path d="M24.2666 70.5375C23.6134 70.1581 23.6492 69.5172 23.6492 68.7097V30.579C23.6492 29.7715 24.213 28.7871 24.9121 28.3821L73.2921 0.31786C73.9887 -0.0871593 75.0832 -0.107667 75.7389 0.271719C76.3921 0.651104 76.3564 1.29196 76.3564 2.09943V40.2302C76.3564 41.0377 75.7925 42.022 75.0934 42.4271L26.7109 70.4913C26.0143 70.8963 24.9198 70.9168 24.264 70.5375H24.2666Z" fill="#37474F" />
        <path d="M76.3564 2.09943C76.3564 1.29196 75.79 0.966404 75.0935 1.3663L26.7109 29.4331C26.3614 29.6356 26.045 29.9842 25.8205 30.3816L24.0192 29.328C24.2488 28.9307 24.5652 28.5821 24.9122 28.3796L73.2922 0.31786C73.9887 -0.0871593 75.0833 -0.107667 75.739 0.271719C76.3922 0.651104 76.359 1.29196 76.359 2.09943H76.3564Z" fill="#455A64" />
        <path d="M26.5629 70.5682C25.8663 70.8963 24.8764 70.8912 24.2666 70.5349C23.6134 70.1581 23.6492 69.5172 23.6492 68.7072V30.5764C23.6492 30.1714 23.7895 29.7253 24.0191 29.328L25.8204 30.3765C25.5933 30.7763 25.4505 31.2224 25.4505 31.6274V69.7582C25.4505 70.5067 25.9378 70.8451 26.5629 70.5657V70.5682Z" fill="#263238" />
        <path d="M27.3895 30.8968L74.0371 3.84512C74.4555 3.60159 74.7949 3.79897 74.7949 4.28346V37.5694C74.7949 38.0539 74.4555 38.6435 74.0371 38.887L27.3895 65.9387C26.9711 66.1822 26.6317 65.9848 26.6317 65.5004V32.2144C26.6317 31.7299 26.9711 31.1403 27.3895 30.8968Z" fill="#FAFAFA" />
        <path d="M30.2037 70.5657L75.1138 44.5162C75.4633 44.3137 76.0272 44.3137 76.3767 44.5162L77.1243 44.929C77.4739 45.1315 77.4739 45.4596 77.1243 45.6621L32.2091 71.7089C31.8596 71.9115 31.2957 71.9115 30.9462 71.7089L30.2063 71.3014C29.8567 71.0989 29.8567 70.7707 30.2063 70.5682L30.2037 70.5657Z" fill="#263238" />
        <path d="M33.7273 72.6702L78.6374 46.6208C78.9869 46.4183 79.5023 46.3901 79.7906 46.5567L91.4787 53.337C91.767 53.5036 91.7185 53.8035 91.3689 54.006L46.5124 80.0221C46.1629 80.2246 45.6475 80.2528 45.3592 80.0862L33.6201 73.3367C33.3318 73.1701 33.3803 72.8727 33.7273 72.6702Z" fill="#263238" />
        <path d="M72.6415 57.5615L74.0473 56.7463C74.106 56.7104 74.1136 56.6591 74.0601 56.6284L72.7155 55.8491C72.6619 55.8183 72.57 55.8209 72.5114 55.8568L71.1055 56.672C71.0468 56.7053 71.0392 56.7591 71.0928 56.7899L72.4374 57.5691C72.4909 57.5999 72.5828 57.5973 72.6415 57.5615ZM70.5876 54.7391L69.1817 55.5543C69.1231 55.5902 69.118 55.6415 69.169 55.6722L70.5136 56.4515C70.5672 56.4823 70.659 56.4797 70.7177 56.4438L72.1235 55.6286C72.1822 55.5928 72.1899 55.5415 72.1363 55.5107L70.7917 54.7314C70.7381 54.7007 70.6463 54.7032 70.5876 54.7391ZM66.046 57.3743L63.6656 58.7534C63.6069 58.7868 63.5992 58.8406 63.6528 58.8714L64.9974 59.6506C65.051 59.6814 65.1429 59.6788 65.2015 59.6429L67.582 58.2638C67.6407 58.2305 67.6483 58.1767 67.5948 58.1459L66.2502 57.3666C66.1966 57.3359 66.1047 57.3384 66.046 57.3743ZM68.5337 55.9311L67.1279 56.7463C67.0692 56.7796 67.0615 56.8334 67.1151 56.8642L68.4597 57.6435C68.5133 57.6742 68.6051 57.6717 68.6638 57.6358L70.0696 56.8206C70.1283 56.7847 70.136 56.7335 70.0824 56.7027L68.7378 55.9234C68.6842 55.8927 68.5924 55.8952 68.5337 55.9311ZM63.0175 59.1303L61.6117 59.9454C61.553 59.9813 61.5453 60.0326 61.5989 60.0633L62.9435 60.8426C62.9971 60.8734 63.089 60.8708 63.1476 60.8349L64.5535 60.0198C64.6122 59.9864 64.6173 59.9326 64.5662 59.9019L63.2216 59.1226C63.168 59.0918 63.0762 59.0944 63.0175 59.1303ZM60.9636 60.3223L59.5578 61.1374C59.4991 61.1733 59.4915 61.2246 59.545 61.2553L60.8896 62.0346C60.9432 62.0654 61.0351 62.0628 61.0937 62.0269L62.4996 61.2118C62.5583 61.1759 62.5659 61.1246 62.5123 61.0938L61.1677 60.3146C61.1142 60.2838 61.0223 60.2864 60.9636 60.3223ZM66.2374 63.506L67.6432 62.6908C67.7019 62.6575 67.7096 62.6037 67.656 62.5729L66.3114 61.7937C66.2578 61.7629 66.166 61.7655 66.1073 61.8013L64.7015 62.6165C64.6428 62.6524 64.6351 62.7037 64.6887 62.7344L66.0333 63.5137C66.0869 63.5445 66.1787 63.5419 66.2374 63.506ZM64.1835 64.698L65.5893 63.8828C65.648 63.8469 65.6557 63.7957 65.6021 63.7649L64.2575 62.9856C64.2039 62.9549 64.1121 62.9574 64.0534 62.9933L62.6476 63.8085C62.5889 63.8444 62.5812 63.8957 62.6348 63.9264L63.9794 64.7057C64.033 64.7365 64.1248 64.7339 64.1835 64.698ZM62.1296 65.89L63.5355 65.0748C63.5941 65.0415 63.6018 64.9877 63.5482 64.9569L62.2036 64.1776C62.15 64.1469 62.0582 64.1494 61.9995 64.1853L60.5937 65.0005C60.535 65.0364 60.5273 65.0876 60.5809 65.1184L61.9255 65.8977C61.9791 65.9284 62.0709 65.9259 62.1296 65.89ZM60.0757 67.082L61.4816 66.2668C61.5402 66.2309 61.5479 66.1797 61.4943 66.1489L60.1497 65.3696C60.0961 65.3389 60.0043 65.3414 59.9456 65.3773L58.5398 66.1925C58.4811 66.2284 58.4734 66.2796 58.527 66.3104L59.8716 67.0897C59.9252 67.1204 60.017 67.1179 60.0757 67.082ZM70.5927 58.7509L71.9985 57.9357C72.0572 57.9024 72.0648 57.8486 72.0113 57.8178L70.6667 57.0385C70.6131 57.0078 70.5212 57.0103 70.4626 57.0462L69.0567 57.8614C68.998 57.8973 68.9904 57.9485 69.044 57.9793L70.3886 58.7586C70.4422 58.7893 70.534 58.7868 70.5927 58.7509ZM68.2964 62.3115L71.4321 60.4914C71.4908 60.4555 71.4984 60.4043 71.4449 60.3735L68.179 58.4792C68.1255 58.4484 68.0336 58.451 67.9749 58.4868L66.3522 59.4276C66.2935 59.4635 66.2859 59.5148 66.3395 59.5455L68.0693 60.5478C68.1229 60.5786 68.1178 60.6324 68.0566 60.6658L66.7579 61.4194C66.6992 61.4527 66.6916 61.5065 66.7451 61.5373L68.0897 62.3166C68.1433 62.3474 68.2352 62.3448 68.2939 62.3089L68.2964 62.3115ZM58.9123 61.5117L57.5064 62.3268C57.4478 62.3627 57.4401 62.414 57.4937 62.4448L58.8383 63.224C58.8919 63.2548 58.9837 63.2522 59.0424 63.2163L60.4482 62.4012C60.5069 62.3653 60.5146 62.314 60.461 62.2833L59.1164 61.504C59.0628 61.4732 58.971 61.4758 58.9123 61.5117ZM56.8584 62.7037L55.4526 63.5188C55.3939 63.5547 55.3862 63.606 55.4398 63.6367L56.7844 64.416C56.838 64.4468 56.9298 64.4442 56.9885 64.4083L58.3943 63.5932C58.453 63.5598 58.4607 63.506 58.4071 63.4753L57.0625 62.696C57.0089 62.6652 56.9171 62.6678 56.8584 62.7037ZM45.4867 75.431C45.5403 75.4618 45.6321 75.4592 45.6908 75.4233L47.0967 74.6082C47.1553 74.5723 47.163 74.521 47.1094 74.4902L45.7648 73.711C45.7112 73.6802 45.6194 73.6828 45.5607 73.7187L44.1549 74.5338C44.0962 74.5697 44.0885 74.621 44.1421 74.6517L45.4867 75.431ZM40.417 72.2396L39.0112 73.0547C38.9525 73.0906 38.9449 73.1419 38.9985 73.1726L40.343 73.9519C40.3966 73.9827 40.4885 73.9801 40.5472 73.9442L41.953 73.1291C42.0117 73.0932 42.0193 73.0419 41.9657 73.0112L40.6212 72.2319C40.5676 72.2011 40.4757 72.2037 40.417 72.2396ZM43.022 74.6287C43.0756 74.6594 43.1675 74.6569 43.2262 74.621L44.632 73.8058C44.6907 73.7699 44.6983 73.7187 44.6447 73.6879L43.3001 72.9086C43.2466 72.8779 43.1547 72.8804 43.096 72.9163L41.6902 73.7315C41.6315 73.7674 41.6239 73.8186 41.6774 73.8494L43.022 74.6287ZM48.6913 75.9104L50.0971 75.0952C50.1558 75.0593 50.1635 75.008 50.1099 74.9773L48.7653 74.198C48.7117 74.1673 48.6199 74.1698 48.5612 74.2057L47.1553 75.0209C47.0967 75.0542 47.089 75.108 47.1426 75.1388L48.4872 75.9181C48.5408 75.9488 48.6326 75.9463 48.6913 75.9104ZM46.4333 77.1101C46.4869 77.1408 46.5787 77.1382 46.6374 77.1024L48.0432 76.2872C48.1019 76.2513 48.1096 76.2 48.056 76.1693L46.7114 75.39C46.6578 75.3592 46.566 75.3618 46.5073 75.3977L45.1014 76.2129C45.0428 76.2487 45.0351 76.3 45.0887 76.3308L46.4333 77.1101ZM42.4709 71.0476L41.0651 71.8627C41.0064 71.8986 40.9988 71.9499 41.0523 71.9807L42.3969 72.7599C42.4505 72.7907 42.5424 72.7881 42.6011 72.7522L44.0069 71.9371C44.0656 71.9012 44.0732 71.8499 44.0196 71.8192L42.675 71.0399C42.6215 71.0091 42.5296 71.0117 42.4709 71.0476ZM52.7455 65.0876L51.3397 65.9028C51.281 65.9387 51.2733 65.99 51.3269 66.0207L52.6715 66.8C52.7251 66.8308 52.8169 66.8282 52.8756 66.7923L54.2815 65.9771C54.3401 65.9438 54.3478 65.89 54.2942 65.8592L52.9496 65.08C52.896 65.0492 52.8042 65.0518 52.7455 65.0876ZM44.5248 69.8556L43.119 70.6708C43.0603 70.7041 43.0527 70.7579 43.1062 70.7887L44.4508 71.568C44.5044 71.5987 44.5963 71.5961 44.6549 71.5603L46.0608 70.7451C46.1195 70.7092 46.1271 70.6579 46.0735 70.6272L44.7289 69.8479C44.6754 69.8171 44.5835 69.8197 44.5248 69.8556ZM54.7994 63.8957L53.3936 64.7108C53.3349 64.7441 53.3272 64.798 53.3808 64.8287L54.7254 65.608C54.779 65.6388 54.8708 65.6362 54.9295 65.6003L56.3353 64.7852C56.394 64.7493 56.4017 64.698 56.3481 64.6672L55.0035 63.888C54.9499 63.8572 54.8581 63.8598 54.7994 63.8957ZM50.6891 66.2796L49.2832 67.0948C49.2245 67.1307 49.2169 67.182 49.2705 67.2127L50.6151 67.992C50.6686 68.0227 50.7605 68.0202 50.8192 67.9843L52.225 67.1691C52.2837 67.1358 52.2913 67.082 52.2378 67.0512L50.8932 66.2719C50.8396 66.2412 50.7477 66.2437 50.6891 66.2796ZM48.6352 67.4716L47.2293 68.2868C47.1706 68.3201 47.163 68.3739 47.2166 68.4047L48.5612 69.184C48.6148 69.2147 48.7066 69.2122 48.7653 69.1763L50.1711 68.3611C50.2298 68.3252 50.2375 68.274 50.1839 68.2432L48.8393 67.4639C48.7857 67.4332 48.6938 67.4357 48.6352 67.4716ZM46.5813 68.6636L45.1754 69.4788C45.1168 69.5147 45.1091 69.5659 45.1627 69.5967L46.5073 70.376C46.5609 70.4067 46.6527 70.4042 46.7114 70.3683L48.1172 69.5531C48.1759 69.5172 48.1836 69.4659 48.13 69.4352L46.7854 68.6559C46.7318 68.6251 46.64 68.6277 46.5813 68.6636ZM55.9628 69.4634L57.3687 68.6482C57.4274 68.6123 57.435 68.5611 57.3814 68.5303L56.0368 67.751C55.9833 67.7203 55.8914 67.7228 55.8327 67.7587L54.4269 68.5739C54.3682 68.6098 54.3605 68.661 54.4141 68.6918L55.7587 69.4711C55.8123 69.5018 55.9042 69.4993 55.9628 69.4634ZM75.1342 52.0988L73.7284 52.914C73.6697 52.9499 73.662 53.0011 73.7156 53.0319L75.0602 53.8112C75.1138 53.8419 75.2056 53.8394 75.2643 53.8035L76.6702 52.9883C76.7288 52.9524 76.7339 52.9012 76.6829 52.8704L75.3383 52.0911C75.2847 52.0604 75.1929 52.0629 75.1342 52.0988ZM72.6466 53.542L71.2407 54.3572C71.1821 54.3905 71.1744 54.4443 71.228 54.4751L72.5726 55.2544C72.6262 55.2851 72.718 55.2826 72.7767 55.2467L74.1825 54.4315C74.2412 54.3956 74.2489 54.3444 74.1953 54.3136L72.8507 53.5343C72.7971 53.5036 72.7053 53.5061 72.6466 53.542ZM77.1881 50.9068L75.7823 51.722C75.7236 51.7579 75.7159 51.8092 75.7695 51.8399L77.1141 52.6192C77.1677 52.65 77.2595 52.6474 77.3182 52.6115L78.7241 51.7963C78.7827 51.7604 78.7904 51.7092 78.7368 51.6784L77.3922 50.8991C77.3386 50.8684 77.2468 50.8709 77.1881 50.9068ZM65.8292 61.5091L67.235 60.6939C67.2937 60.6581 67.3014 60.6068 67.2478 60.576L65.9032 59.7968C65.8496 59.766 65.7577 59.7686 65.6991 59.8044L64.2932 60.6196C64.2345 60.6555 64.2269 60.7068 64.2805 60.7375L65.6251 61.5168C65.6786 61.5476 65.7705 61.545 65.8292 61.5091ZM79.4487 49.7072C79.3951 49.6764 79.3032 49.679 79.2445 49.7148L77.8387 50.53C77.78 50.5659 77.7724 50.6172 77.826 50.6479L79.1706 51.4272C79.2241 51.458 79.316 51.4554 79.3747 51.4195L80.7805 50.6044C80.8392 50.5685 80.8468 50.5172 80.7933 50.4864L79.4487 49.7072ZM58.0167 68.2688L59.4226 67.4537C59.4812 67.4178 59.4889 67.3665 59.4353 67.3358L58.0907 66.5565C58.0371 66.5257 57.9453 66.5283 57.8866 66.5642L56.4808 67.3793C56.4221 67.4127 56.4144 67.4665 56.468 67.4972L57.8126 68.2765C57.8662 68.3073 57.958 68.3047 58.0167 68.2688ZM83.2197 53.6497L84.6255 52.8345C84.6842 52.7986 84.6918 52.7474 84.6383 52.7166L83.2936 51.9373C83.2401 51.9066 83.1482 51.9091 83.0895 51.945L81.6837 52.7602C81.625 52.7935 81.6174 52.8473 81.671 52.8781L83.0155 53.6574C83.0691 53.6881 83.161 53.6856 83.2197 53.6497ZM79.242 53.7266L80.6478 52.9114C80.7065 52.8781 80.7142 52.8243 80.6606 52.7935L79.316 52.0142C79.2624 51.9835 79.1706 51.986 79.1119 52.0219L77.706 52.8371C77.6474 52.873 77.6397 52.9242 77.6933 52.955L79.0379 53.7343C79.0915 53.765 79.1833 53.7625 79.242 53.7266ZM81.3699 50.8197C81.3163 50.7889 81.2244 50.7915 81.1658 50.8274L79.7599 51.6425C79.7012 51.6759 79.6936 51.7297 79.7472 51.7604L81.0918 52.5397C81.1454 52.5705 81.2372 52.5679 81.2959 52.532L82.7017 51.7169C82.7604 51.681 82.7681 51.6297 82.7145 51.599L81.3699 50.8197ZM81.8036 50.5685L85.0694 52.4628C85.123 52.4936 85.2149 52.491 85.2736 52.4551L86.6794 51.64C86.7381 51.6041 86.7457 51.5528 86.6921 51.5221L83.4263 49.6277C83.3727 49.5969 83.2809 49.5995 83.2222 49.6354L81.8164 50.4505C81.7577 50.4864 81.75 50.5377 81.8036 50.5685ZM77.0554 53.2113L75.6496 54.0265C75.5909 54.0598 75.5833 54.1137 75.6368 54.1444L76.9814 54.9237C77.035 54.9545 77.1269 54.9519 77.1856 54.916L78.5914 54.1008C78.6501 54.065 78.6577 54.0137 78.6041 53.9829L77.2595 53.2037C77.206 53.1729 77.1141 53.1755 77.0554 53.2113ZM61.5887 62.1833L60.1829 62.9985C60.1242 63.0343 60.1166 63.0856 60.1701 63.1164L61.5147 63.8957C61.5683 63.9264 61.6602 63.9238 61.7188 63.888L63.1247 63.0728C63.1834 63.0369 63.191 62.9856 63.1374 62.9549L61.7928 62.1756C61.7393 62.1448 61.6474 62.1474 61.5887 62.1833ZM80.9591 54.8494C81.0127 54.8801 81.1045 54.8776 81.1632 54.8417L82.569 54.0265C82.6277 53.9906 82.6354 53.9394 82.5818 53.9086L81.2372 53.1293C81.1836 53.0986 81.0918 53.1011 81.0331 53.137L79.6273 53.9522C79.5686 53.9855 79.5609 54.0393 79.6145 54.0701L80.9591 54.8494ZM63.6426 60.9913L62.2368 61.8065C62.1781 61.8424 62.1704 61.8936 62.224 61.9244L63.5686 62.7037C63.6222 62.7344 63.7141 62.7319 63.7727 62.696L65.1786 61.8808C65.2373 61.8449 65.2449 61.7937 65.1913 61.7629L63.8467 60.9836C63.7931 60.9529 63.7013 60.9554 63.6426 60.9913ZM47.5355 74.2365C47.5891 74.2672 47.6809 74.2647 47.7396 74.2288L49.1454 73.4136C49.2041 73.3777 49.2118 73.3265 49.1582 73.2957L47.8136 72.5164C47.76 72.4857 47.6682 72.4882 47.6095 72.5241L46.2037 73.3393C46.145 73.3752 46.1373 73.4264 46.1909 73.4572L47.5355 74.2365ZM45.1448 71.7218L43.739 72.5369C43.6803 72.5702 43.6727 72.6241 43.7262 72.6548L45.0708 73.4341C45.1244 73.4649 45.2163 73.4623 45.2749 73.4264L46.6808 72.6113C46.7395 72.5754 46.7471 72.5241 46.6935 72.4933L45.3489 71.7141C45.2954 71.6833 45.2035 71.6859 45.1448 71.7218ZM49.7935 73.0393L51.1993 72.2242C51.258 72.1883 51.2657 72.137 51.2121 72.1063L49.8675 71.327C49.8139 71.2962 49.7221 71.2988 49.6634 71.3347L48.2576 72.1498C48.1989 72.1857 48.1912 72.237 48.2448 72.2678L49.5894 73.047C49.643 73.0778 49.7348 73.0752 49.7935 73.0393ZM51.8474 71.8474L53.2532 71.0322C53.3119 70.9963 53.3196 70.945 53.266 70.9143L51.9214 70.135C51.8678 70.1042 51.776 70.1068 51.7173 70.1427L50.3114 70.9579C50.2528 70.9937 50.2451 71.045 50.2987 71.0758L51.6433 71.8551C51.6969 71.8858 51.7887 71.8832 51.8474 71.8474ZM53.9013 70.6554L55.3071 69.8402C55.3658 69.8043 55.3735 69.753 55.3199 69.7223L53.9753 68.943C53.9217 68.9123 53.8299 68.9148 53.7712 68.9507L52.3653 69.7659C52.3067 69.8018 52.299 69.853 52.3526 69.8838L53.6972 70.6631C53.7508 70.6938 53.8426 70.6913 53.9013 70.6554ZM47.1962 70.5323L45.7903 71.3475C45.7316 71.3834 45.724 71.4347 45.7776 71.4654L47.1222 72.2447C47.1757 72.2754 47.2676 72.2729 47.3263 72.237L48.7321 71.4218C48.7908 71.3859 48.7985 71.3347 48.7449 71.3039L47.4003 70.5246C47.3467 70.4939 47.2548 70.4964 47.1962 70.5323ZM49.2501 69.3403L47.8442 70.1555C47.7855 70.1914 47.7779 70.2427 47.8315 70.2734L49.1761 71.0527C49.2296 71.0835 49.3215 71.0809 49.3802 71.045L50.786 70.2298C50.8447 70.1965 50.8523 70.1427 50.7988 70.1119L49.4542 69.3327C49.4006 69.3019 49.3087 69.3045 49.2501 69.3403ZM57.4707 64.5724L56.0649 65.3876C56.0062 65.4234 55.9986 65.4747 56.0521 65.5055L57.3967 66.2847C57.4503 66.3155 57.5422 66.3129 57.6009 66.2771L59.0067 65.4619C59.0654 65.426 59.073 65.3747 59.0194 65.344L57.6748 64.5647C57.6213 64.5339 57.5294 64.5365 57.4707 64.5724ZM55.4168 65.7644L54.011 66.5795C53.9523 66.6129 53.9447 66.6667 53.9982 66.6975L55.3428 67.4767C55.3964 67.5075 55.4883 67.5049 55.547 67.4691L56.9528 66.6539C57.0115 66.618 57.0191 66.5667 56.9655 66.536L55.621 65.7567C55.5674 65.7259 55.4755 65.7285 55.4168 65.7644ZM59.5272 63.3804L58.1213 64.1956C58.0627 64.2315 58.055 64.2827 58.1086 64.3135L59.4532 65.0928C59.5068 65.1235 59.5986 65.121 59.6573 65.0851L61.0631 64.2699C61.1218 64.2366 61.1295 64.1828 61.0759 64.152L59.7313 63.3727C59.6777 63.342 59.5859 63.3445 59.5272 63.3804ZM51.3065 68.1484L49.9007 68.9635C49.842 68.9968 49.8343 69.0507 49.8879 69.0814L51.2325 69.8607C51.2861 69.8915 51.3779 69.8889 51.4366 69.853L52.8425 69.0379C52.9011 69.002 52.9088 68.9507 52.8552 68.9199L51.5106 68.1407C51.457 68.1099 51.3652 68.1125 51.3065 68.1484ZM53.3604 66.9564L51.9546 67.7715C51.8959 67.8074 51.8882 67.8587 51.9418 67.8895L53.2864 68.6687C53.34 68.6995 53.4318 68.6969 53.4905 68.661L54.8963 67.8459C54.955 67.81 54.9627 67.7587 54.9091 67.728L53.5645 66.9487C53.5109 66.9179 53.4191 66.9205 53.3604 66.9564ZM50.7375 74.7209L52.1434 73.9058C52.202 73.8725 52.2097 73.8186 52.1561 73.7879L50.8115 73.0086C50.7579 72.9778 50.6661 72.9804 50.6074 73.0163L49.2016 73.8314C49.1429 73.8673 49.1352 73.9186 49.1888 73.9494L50.5334 74.7286C50.587 74.7594 50.6789 74.7568 50.7375 74.7209ZM39.9017 74.2083L38.5571 73.429C38.5035 73.3982 38.4116 73.4008 38.3529 73.4367L36.9471 74.2518C36.8884 74.2852 36.8808 74.339 36.9343 74.3698L38.2789 75.149C38.3325 75.1798 38.4244 75.1772 38.4831 75.1413L39.8889 74.3262C39.9476 74.2903 39.9552 74.239 39.9017 74.2083ZM42.5806 74.885L41.236 74.1057C41.1825 74.075 41.0906 74.0775 41.0319 74.1134L38.8683 75.3669C38.8096 75.4028 38.802 75.4541 38.8556 75.4848L40.2002 76.2641C40.2537 76.2949 40.3456 76.2923 40.4043 76.2564L42.5679 75.0004C42.6266 74.9645 42.6342 74.9132 42.5806 74.8824V74.885ZM37.8937 72.6677L36.5491 71.8884C36.4955 71.8576 36.4037 71.8602 36.345 71.8961L34.6151 72.9009C34.5564 72.9343 34.5488 72.9881 34.6024 73.0188L35.947 73.7981C36.0005 73.8289 36.0924 73.8263 36.1511 73.7904L37.8809 72.7856C37.9396 72.7522 37.9473 72.6984 37.8937 72.6677ZM39.2204 71.8986C39.274 71.9294 39.3659 71.9268 39.4245 71.8909L40.8304 71.0758C40.8891 71.0399 40.8967 70.9886 40.8431 70.9579L39.4985 70.1786C39.4449 70.1478 39.3531 70.1504 39.2944 70.1863L37.8886 71.0014C37.8299 71.0373 37.8222 71.0886 37.8758 71.1194L39.2204 71.8986ZM45.0428 75.6848L43.6982 74.9055C43.6446 74.8748 43.5527 74.8773 43.4941 74.9132L40.7895 76.482C40.7309 76.5179 40.7232 76.5692 40.7768 76.5999L42.1214 77.3792C42.175 77.41 42.2668 77.4074 42.3255 77.3715L45.03 75.8027C45.0887 75.7668 45.0963 75.7156 45.0428 75.6848ZM45.9919 77.3638L44.6473 76.5846C44.5937 76.5538 44.5019 76.5564 44.4432 76.5922L42.7133 77.5971C42.6546 77.633 42.647 77.6843 42.7006 77.715L44.0452 78.4943C44.0987 78.5251 44.1906 78.5225 44.2493 78.4866L45.9791 77.4817C46.0378 77.4459 46.0429 77.3946 45.9919 77.3638ZM54.5009 63.0343C54.5545 63.0651 54.6463 63.0625 54.705 63.0267L56.1108 62.2115C56.1695 62.1782 56.1772 62.1243 56.1236 62.0936L54.779 61.3143C54.7254 61.2835 54.6335 61.2861 54.5749 61.322L53.169 62.1371C53.1104 62.173 53.1027 62.2243 53.1563 62.2551L54.5009 63.0343ZM50.3905 65.4183C50.4441 65.4491 50.536 65.4465 50.5947 65.4106L52.0005 64.5955C52.0592 64.5621 52.0668 64.5083 52.0132 64.4775L50.6686 63.6983C50.6151 63.6675 50.5232 63.6701 50.4645 63.706L49.0587 64.5211C49 64.557 48.9924 64.6083 49.0459 64.639L50.3905 65.4183ZM41.2769 70.7041C41.3304 70.7348 41.4223 70.7323 41.481 70.6964L42.8868 69.8812C42.9455 69.8453 42.9531 69.7941 42.8996 69.7633L41.555 68.984C41.5014 68.9533 41.4095 68.9558 41.3509 68.9917L39.945 69.8069C39.8863 69.8402 39.8787 69.894 39.9323 69.9248L41.2769 70.7041ZM52.447 64.2238C52.5006 64.2545 52.5924 64.252 52.6511 64.2161L54.0569 63.4009C54.1156 63.3676 54.1233 63.3138 54.0697 63.283L52.7251 62.5037C52.6715 62.473 52.5797 62.4755 52.521 62.5114L51.1151 63.3266C51.0565 63.3625 51.0488 63.4137 51.1024 63.4445L52.447 64.2238ZM48.3366 66.6077C48.3902 66.6385 48.4821 66.6359 48.5408 66.6001L49.9466 65.7849C50.0053 65.749 50.0129 65.6977 49.9593 65.667L48.6147 64.8877C48.5612 64.8569 48.4693 64.8595 48.4106 64.8954L47.0048 65.7105C46.9461 65.7464 46.9385 65.7977 46.992 65.8285L48.3366 66.6077ZM47.0023 77.4459C46.9487 77.4151 46.8568 77.4177 46.7981 77.4535L44.6345 78.7096C44.5759 78.7429 44.5682 78.7968 44.6218 78.8275L45.9664 79.6068C46.02 79.6376 46.1118 79.635 46.1705 79.5991L48.3341 78.3456C48.3928 78.3097 48.4004 78.2585 48.3469 78.2277L47.0023 77.4484V77.4459ZM45.3872 68.3201C45.4408 68.3509 45.5326 68.3483 45.5913 68.3124L46.9971 67.4972C47.0558 67.4614 47.0635 67.4101 47.0099 67.3793L45.6653 66.6001C45.6117 66.5693 45.5199 66.5719 45.4612 66.6077L44.0554 67.4229C43.9967 67.4588 43.989 67.5101 44.0426 67.5408L45.3872 68.3201ZM43.3333 69.5121C43.3869 69.5429 43.4787 69.5403 43.5374 69.5044L44.9433 68.6892C45.0019 68.6533 45.0096 68.6021 44.956 68.5713L43.6114 67.792C43.5578 67.7613 43.466 67.7638 43.4073 67.7997L42.0015 68.6149C41.9428 68.6508 41.9351 68.7021 41.9887 68.7328L43.3333 69.5121ZM85.0771 55.362C85.0235 55.3313 84.9317 55.3338 84.873 55.3697L81.4107 57.3769C81.352 57.4128 81.3444 57.464 81.3979 57.4948L82.7425 58.2741C82.7961 58.3048 82.888 58.3023 82.9467 58.2664L86.4089 56.2592C86.4676 56.2259 86.4753 56.1721 86.4217 56.1413L85.0771 55.362ZM80.5356 57.9972C80.482 57.9665 80.3901 57.969 80.3315 58.0049L78.9256 58.8201C78.8669 58.856 78.8593 58.9072 78.9129 58.938L80.2575 59.7173C80.311 59.748 80.4029 59.7455 80.4616 59.7096L81.8674 58.8944C81.9261 58.8611 81.9337 58.8073 81.8802 58.7765L80.5356 57.9972ZM52.7991 73.529L54.2049 72.7138C54.2636 72.6779 54.2712 72.6266 54.2177 72.5959L52.8731 71.8166C52.8195 71.7858 52.7276 71.7884 52.669 71.8243L51.2631 72.6395C51.2044 72.6753 51.1968 72.7266 51.2504 72.7574L52.595 73.5366C52.6485 73.5674 52.7404 73.5648 52.7991 73.529ZM76.4252 60.3812C76.3717 60.3505 76.2798 60.353 76.2211 60.3889L74.8153 61.2041C74.7566 61.24 74.7489 61.2912 74.8025 61.322L76.1471 62.1013C76.2007 62.132 76.2926 62.1295 76.3512 62.0936L77.7571 61.2784C77.8158 61.2425 77.8234 61.1912 77.7698 61.1605L76.4252 60.3812ZM87.1335 54.1701C87.08 54.1393 86.9881 54.1419 86.9294 54.1778L85.5236 54.9929C85.4649 55.0288 85.4573 55.0801 85.5108 55.1108L86.8554 55.8901C86.909 55.9209 87.0009 55.9183 87.0595 55.8824L88.4654 55.0673C88.5241 55.0314 88.5317 54.9801 88.4781 54.9493L87.1335 54.1701ZM90.5346 53.7574L87.2688 51.863C87.2152 51.8322 87.1233 51.8348 87.0646 51.8707L85.6588 52.6858C85.6001 52.7217 85.5925 52.773 85.6461 52.8038L88.9119 54.6981C88.9655 54.7289 89.0573 54.7263 89.116 54.6904L90.5218 53.8753C90.5805 53.8419 90.5882 53.7881 90.5346 53.7574ZM68.7455 64.8339C68.6919 64.8031 68.6 64.8057 68.5413 64.8416L66.8115 65.8464C66.7528 65.8797 66.7451 65.9336 66.7987 65.9643L68.1433 66.7436C68.1969 66.7744 68.2887 66.7718 68.3474 66.7359L70.0773 65.7311C70.136 65.6952 70.1436 65.6439 70.09 65.6131L68.7455 64.8339ZM73.9376 61.8218C73.884 61.7911 73.7922 61.7937 73.7335 61.8295L71.5699 63.0856C71.5112 63.1189 71.5035 63.1728 71.5571 63.2035L72.9017 63.9828C72.9553 64.0136 73.0471 64.011 73.1058 63.9751L75.2694 62.719C75.3281 62.6832 75.3358 62.6319 75.2822 62.6011L73.9376 61.8218ZM63.9871 67.5947C63.9335 67.5639 63.8416 67.5665 63.7829 67.6023L52.2097 74.3159C52.151 74.3518 52.1434 74.4031 52.1969 74.4338L53.5415 75.2131C53.5951 75.2439 53.687 75.2413 53.7457 75.2054L65.3189 68.4919C65.3776 68.456 65.3852 68.4047 65.3317 68.3739L63.9871 67.5947ZM51.7658 74.6851C51.7122 74.6543 51.6203 74.6569 51.5616 74.6928L49.8318 75.6976C49.7731 75.7335 49.7654 75.7848 49.819 75.8155L51.1636 76.5948C51.2172 76.6256 51.309 76.623 51.3677 76.5871L53.0976 75.5823C53.1563 75.5464 53.1614 75.4951 53.1104 75.4643L51.7658 74.6851ZM66.3675 66.2155C66.3139 66.1848 66.2221 66.1873 66.1634 66.2232L64.4336 67.2281C64.3749 67.264 64.3672 67.3152 64.4208 67.346L65.7654 68.1253C65.819 68.156 65.9108 68.1535 65.9695 68.1176L67.6994 67.1127C67.7581 67.0794 67.7657 67.0256 67.7121 66.9948L66.3675 66.2155ZM49.3853 76.0667C49.3317 76.036 49.2398 76.0385 49.1812 76.0744L47.4513 77.0793C47.3926 77.1152 47.385 77.1664 47.4385 77.1972L48.7831 77.9765C48.8367 78.0072 48.9286 78.0047 48.9873 77.9688L50.7171 76.9639C50.7758 76.928 50.7835 76.8768 50.7299 76.846L49.3853 76.0667ZM71.1259 63.4547C71.0723 63.424 70.9805 63.4265 70.9218 63.4624L69.192 64.4673C69.1333 64.5006 69.1256 64.5544 69.1792 64.5852L70.5238 65.3645C70.5774 65.3953 70.6692 65.3927 70.7279 65.3568L72.4578 64.3519C72.5164 64.316 72.5241 64.2648 72.4705 64.234L71.1259 63.4547ZM78.4817 59.1892C78.4281 59.1585 78.3362 59.161 78.2776 59.1969L76.8717 60.0121C76.813 60.048 76.8054 60.0992 76.859 60.13L78.2036 60.9093C78.2572 60.94 78.349 60.9375 78.4077 60.9016L79.8135 60.0864C79.8722 60.0505 79.8798 59.9993 79.8263 59.9685L78.4817 59.1892ZM83.0844 55.9619L84.4903 55.1467C84.549 55.1108 84.5566 55.0596 84.503 55.0288L83.1584 54.2495C83.1048 54.2188 83.013 54.2213 82.9543 54.2572L81.5485 55.0724C81.4898 55.1083 81.4821 55.1595 81.5357 55.1903L82.8803 55.9696C82.9339 56.0003 83.0258 55.9978 83.0844 55.9619ZM74.6979 56.3669L76.1037 55.5517C76.1624 55.5184 76.1701 55.4646 76.1165 55.4338L74.7719 54.6545C74.7183 54.6238 74.6265 54.6263 74.5678 54.6622L73.162 55.4774C73.1033 55.5133 73.0956 55.5646 73.1492 55.5953L74.4938 56.3746C74.5474 56.4054 74.6392 56.4028 74.6979 56.3669ZM69.2404 63.9931L73.3508 61.6091C73.4094 61.5732 73.4146 61.5219 73.3635 61.4912L72.0189 60.7119C71.9653 60.6811 71.8735 60.6837 71.8148 60.7196L67.7045 63.1036C67.6458 63.1369 67.6381 63.1907 67.6917 63.2215L69.0363 64.0008C69.0899 64.0315 69.1817 64.0289 69.2404 63.9931ZM80.8264 57.1616C80.88 57.1923 80.9719 57.1898 81.0305 57.1539L82.4364 56.3387C82.4951 56.3028 82.5027 56.2516 82.4491 56.2208L81.1045 55.4415C81.051 55.4108 80.9591 55.4133 80.9004 55.4492L79.4946 56.2644C79.4359 56.2977 79.4308 56.3515 79.4818 56.3823L80.8264 57.1616ZM79.1093 56.0388L80.5152 55.2236C80.5738 55.1903 80.5815 55.1365 80.5279 55.1057L79.1833 54.3264C79.1297 54.2957 79.0379 54.2982 78.9792 54.3341L77.5734 55.1493C77.5147 55.1852 77.507 55.2364 77.5606 55.2672L78.9052 56.0465C78.9588 56.0772 79.0506 56.0747 79.1093 56.0388ZM67.1865 65.185L68.5924 64.3699C68.6511 64.334 68.6587 64.2827 68.6051 64.252L67.2605 63.4727C67.2069 63.4419 67.1151 63.4445 67.0564 63.4804L65.6506 64.2955C65.5919 64.3289 65.5842 64.3827 65.6378 64.4135L66.9824 65.1927C67.036 65.2235 67.1278 65.2209 67.1865 65.185ZM76.2849 59.7968C76.3385 59.8275 76.4303 59.825 76.489 59.7891L77.8948 58.9739C77.9535 58.938 77.9612 58.8867 77.9076 58.856L76.563 58.0767C76.5094 58.0459 76.4176 58.0485 76.3589 58.0844L74.9531 58.8996C74.8944 58.9354 74.8867 58.9867 74.9403 59.0175L76.2849 59.7968ZM56.912 71.145L58.3178 70.3298C58.3765 70.2965 58.3816 70.2427 58.3306 70.2119L56.986 69.4326C56.9324 69.4019 56.8405 69.4044 56.7818 69.4403L55.376 70.2555C55.3173 70.2888 55.3097 70.3426 55.3633 70.3734L56.7079 71.1527C56.7614 71.1834 56.8533 71.1809 56.912 71.145ZM58.9659 69.953L60.3717 69.1378C60.4304 69.1019 60.438 69.0507 60.3845 69.0199L59.0399 68.2406C58.9863 68.2099 58.8944 68.2124 58.8357 68.2483L57.4299 69.0635C57.3712 69.0968 57.3636 69.1507 57.4171 69.1814L58.7617 69.9607C58.8153 69.9915 58.9072 69.9889 58.9659 69.953ZM54.8555 72.337L56.2614 71.5218C56.32 71.4859 56.3277 71.4346 56.2741 71.4039L54.9295 70.6246C54.8759 70.5939 54.7841 70.5964 54.7254 70.6323L53.3196 71.4475C53.2609 71.4834 53.2532 71.5346 53.3068 71.5654L54.6514 72.3447C54.705 72.3754 54.7968 72.3729 54.8555 72.337ZM63.0762 67.569L64.482 66.7539C64.5407 66.718 64.5484 66.6667 64.4948 66.6359L63.1502 65.8567C63.0966 65.8259 63.0048 65.8285 62.9461 65.8644L61.5402 66.6795C61.4816 66.7128 61.4739 66.7667 61.5275 66.7974L62.8721 67.5767C62.9257 67.6075 63.0175 67.6049 63.0762 67.569ZM61.0223 68.761L62.4281 67.9458C62.4868 67.9125 62.4945 67.8587 62.4409 67.8279L61.0963 67.0487C61.0427 67.0179 60.9509 67.0205 60.8922 67.0563L59.4863 67.8715C59.4277 67.9074 59.42 67.9587 59.4736 67.9894L60.8182 68.7687C60.8718 68.7995 60.9636 68.7969 61.0223 68.761ZM65.1326 66.377L66.5385 65.5619C66.5972 65.526 66.6048 65.4747 66.5512 65.444L65.2066 64.6647C65.1531 64.6339 65.0612 64.6365 65.0025 64.6724L63.5967 65.4875C63.538 65.5209 63.5304 65.5747 63.5839 65.6054L64.9285 66.3847C64.9821 66.4155 65.074 66.4129 65.1326 66.377ZM76.3461 49.7943C76.3997 49.8251 76.4916 49.8225 76.5502 49.7866L77.9561 48.9715C78.0148 48.9356 78.0224 48.8843 77.9688 48.8535L77.6116 48.6459C77.5581 48.6151 77.4662 48.6177 77.4075 48.6536L76.0017 49.4688C75.943 49.5021 75.9379 49.5559 75.9889 49.5867L76.3461 49.7943ZM66.1328 56.2926C66.1864 56.3233 66.2782 56.3208 66.3369 56.2849L67.7427 55.4697C67.8014 55.4338 67.8091 55.3826 67.7555 55.3518L66.4109 54.5725C66.3573 54.5418 66.2655 54.5443 66.2068 54.5802L64.801 55.3954C64.7423 55.4313 64.7346 55.4825 64.7882 55.5133L66.1328 56.2926ZM70.2431 53.9086C70.2967 53.9394 70.3886 53.9368 70.4472 53.9009L71.8531 53.0857C71.9118 53.0498 71.9194 52.9986 71.8658 52.9678L70.5212 52.1885C70.4677 52.1578 70.3758 52.1603 70.3171 52.1962L68.9113 53.0114C68.8526 53.0447 68.845 53.0986 68.8985 53.1293L70.2431 53.9086ZM63.6248 57.7486C63.6783 57.7793 63.7702 57.7768 63.8289 57.7409L65.2347 56.9257C65.2934 56.8924 65.301 56.8386 65.2475 56.8078L63.9029 56.0285C63.8493 55.9978 63.7574 56.0003 63.6987 56.0362L62.2929 56.8514C62.2342 56.8873 62.2266 56.9385 62.2802 56.9693L63.6248 57.7486ZM68.1892 55.1006C68.2428 55.1313 68.3347 55.1288 68.3934 55.0929L69.7992 54.2777C69.8579 54.2418 69.8655 54.1906 69.8119 54.1598L68.4674 53.3805C68.4138 53.3498 68.3219 53.3523 68.2632 53.3882L66.8574 54.2034C66.7987 54.2393 66.7911 54.2905 66.8446 54.3213L68.1892 55.1006ZM59.5144 60.1326C59.568 60.1633 59.6598 60.1608 59.7185 60.1249L61.1244 59.3097C61.183 59.2738 61.1907 59.2225 61.1371 59.1918L59.7925 58.4125C59.7389 58.3817 59.6471 58.3843 59.5884 58.4202L58.1826 59.2354C58.1239 59.2713 58.1162 59.3225 58.1698 59.3533L59.5144 60.1326ZM61.5683 58.9406C61.6219 58.9713 61.7137 58.9688 61.7724 58.9329L63.1783 58.1177C63.2369 58.0818 63.242 58.0306 63.191 57.9998L61.8464 57.2205C61.7928 57.1898 61.701 57.1923 61.6423 57.2282L60.2365 58.0434C60.1778 58.0793 60.1701 58.1305 60.2237 58.1613L61.5683 58.9406ZM72.2383 52.1783C72.2919 52.209 72.3838 52.2065 72.4425 52.1706L73.8483 51.3554C73.907 51.3221 73.9121 51.2683 73.861 51.2375L73.5039 51.0299C73.4503 50.9991 73.3584 51.0017 73.2997 51.0376L71.8939 51.8527C71.8352 51.8886 71.8276 51.9399 71.8812 51.9707L72.2383 52.1783ZM78.4026 48.6023C78.4562 48.6331 78.548 48.6305 78.6067 48.5946L80.0125 47.7795C80.0712 47.7436 80.0789 47.6923 80.0253 47.6615L79.6681 47.4539C79.6145 47.4232 79.5227 47.4257 79.464 47.4616L78.0581 48.2768C77.9995 48.3127 77.9918 48.3639 78.0454 48.3947L78.4026 48.6023ZM81.2296 50.2403C81.2831 50.2711 81.375 50.2685 81.4337 50.2327L82.8395 49.4175C82.8982 49.3816 82.9058 49.3303 82.8523 49.2996L81.5077 48.5203C81.4541 48.4895 81.3622 48.4921 81.3035 48.528L79.8977 49.3432C79.839 49.379 79.8314 49.4303 79.885 49.4611L81.2296 50.2403ZM85.1434 54.7699L86.5493 53.9547C86.6079 53.9214 86.6156 53.8676 86.562 53.8368L85.2174 53.0575C85.1638 53.0268 85.072 53.0293 85.0133 53.0652L83.6075 53.8804C83.5488 53.9163 83.5411 53.9675 83.5947 53.9983L84.9393 54.7776C84.9929 54.8084 85.0847 54.8058 85.1434 54.7699ZM74.2922 50.9863C74.3458 51.0171 74.4377 51.0145 74.4964 50.9786L75.9022 50.1634C75.9609 50.1276 75.9685 50.0763 75.9149 50.0455L75.5578 49.8379C75.5042 49.8071 75.4123 49.8097 75.3536 49.8456L73.9478 50.6607C73.8891 50.6966 73.8815 50.7479 73.935 50.7787L74.2922 50.9863ZM57.458 61.3245C57.5116 61.3553 57.6034 61.3527 57.6621 61.3169L59.0679 60.5017C59.1266 60.4658 59.1343 60.4145 59.0807 60.3838L57.7361 59.6045C57.6825 59.5737 57.5906 59.5763 57.532 59.6122L56.1261 60.4274C56.0674 60.4632 56.0598 60.5145 56.1134 60.5453L57.458 61.3245Z" fill="#455A64" />
        <path d="M63.5355 71.973L63.8238 72.1422L71.4806 76.582L85.1001 68.6816L85.3833 68.5201L77.4357 63.911L63.5355 71.973Z" fill="#37474F" />
        <path d="M63.8239 72.1422L71.4807 76.582L85.1001 68.6815L77.4357 64.2417L63.8239 72.1422Z" fill="#263238" />
        <path d="M20.5316 37.372L17.4112 35.5622C17.2735 35.4828 17.1714 35.4623 17.1178 35.493C17.0515 35.5315 16.7938 35.6827 16.7377 35.7135C16.6713 35.7519 16.6713 35.8647 16.7555 36.039L17.5133 37.6181L16.9469 38.141C16.6866 38.3794 16.7249 38.7178 17.0285 38.8947L20.1489 40.7044L20.5291 40.484V37.372H20.5316Z" fill="#279FFE" />
        <path opacity="0.5" d="M20.5316 37.372L17.4112 35.5622C17.2735 35.4828 17.1714 35.4623 17.1178 35.493C17.0515 35.5315 16.7938 35.6827 16.7377 35.7135C16.6713 35.7519 16.6713 35.8647 16.7555 36.039L17.5133 37.6181L16.9469 38.141C16.6866 38.3794 16.7249 38.7178 17.0285 38.8947L20.1489 40.7044L20.5291 40.484V37.372H20.5316Z" fill="white" />
        <path d="M17.0281 35.7853C16.7219 35.6084 16.5995 35.7237 16.7526 36.0416L17.5103 37.6207L16.9439 38.1436C16.6837 38.382 16.7219 38.7204 17.0256 38.8972L20.1459 40.707V37.595L17.0256 35.7853H17.0281Z" fill="#279FFE" />
        <path d="M20.5158 47.3463C20.3143 47.3463 20.1484 47.1822 20.1484 46.9771V36.5645C20.1484 36.362 20.3117 36.1954 20.5158 36.1954C20.72 36.1954 20.8832 36.3595 20.8832 36.5645V46.9771C20.8832 47.1796 20.72 47.3463 20.5158 47.3463Z" fill="#455A64" />
        <path d="M7.09034 75.0721V74.421H7.25108C7.43734 74.0417 7.78688 73.6853 8.29972 73.3854C9.91221 72.4498 12.5249 72.4498 14.1374 73.3854C14.6502 73.6828 14.9997 74.0417 15.186 74.421H15.3442V75.0516C15.3569 75.6745 14.9564 76.2975 14.1374 76.7743C12.5249 77.7099 9.91221 77.7099 8.29972 76.7743C7.49092 76.3051 7.08779 75.6874 7.09034 75.0721Z" fill="#263238" />
        <path d="M14.1348 72.7292C12.5223 71.7935 9.90964 71.7935 8.29714 72.7292C6.68464 73.6648 6.68464 75.1798 8.29714 76.1155C9.90964 77.0511 12.5223 77.0511 14.1348 76.1155C15.7473 75.1798 15.7473 73.6648 14.1348 72.7292Z" fill="#455A64" />
        <path d="M12.2799 51.8732V74.1365C12.2799 74.2954 12.1753 74.4518 11.9686 74.5723C11.5527 74.8132 10.8817 74.8132 10.4658 74.5723C10.2591 74.4518 10.1545 74.2954 10.1545 74.1365V51.8732H12.2799Z" fill="#37474F" />
        <path d="M10.1545 54.5674V56.6617L12.2799 57.8896V55.803L10.1545 54.5674Z" fill="#263238" />
        <path d="M17.8599 49.8815L21.7891 52.1629C21.7686 52.1937 21.7406 52.2244 21.7125 52.2424L14.839 56.2285C14.7803 56.2618 14.7344 56.2362 14.7344 56.167V51.1914C14.7344 50.3249 14.9334 49.3611 15.3084 48.4024L17.8599 49.8815Z" fill="#279FFE" />
        <path opacity="0.4" d="M17.8599 49.8815L21.7891 52.1629C21.7686 52.1937 21.7406 52.2244 21.7125 52.2424L14.839 56.2285C14.7803 56.2618 14.7344 56.2362 14.7344 56.167V51.1914C14.7344 50.3249 14.9334 49.3611 15.3084 48.4024L17.8599 49.8815Z" fill="black" />
        <path d="M21.8197 46.6131V52.1809L15.311 48.4049C15.3187 48.387 15.3238 48.3691 15.3314 48.3511C16.0305 46.6003 17.2067 45.1135 18.4825 44.3753C19.0055 44.0702 19.5005 43.9164 19.9546 43.9164C21.1053 43.9164 21.8197 44.9495 21.8197 46.6131Z" fill="#279FFE" />
        <path opacity="0.3" d="M21.8197 46.6131V52.1809L15.311 48.4049C15.3187 48.387 15.3238 48.3691 15.3314 48.3511C16.0305 46.6003 17.2067 45.1135 18.4825 44.3753C19.0055 44.0702 19.5005 43.9164 19.9546 43.9164C21.1053 43.9164 21.8197 44.9495 21.8197 46.6131Z" fill="black" />
        <path d="M28.8897 58.3971V57.8998H28.8438V57.9716C28.8157 57.8357 28.7723 57.7024 28.7136 57.5692C28.4534 56.9591 27.9074 56.3746 27.0705 55.8901L22.4193 53.1908C22.2254 53.078 21.9115 53.078 21.7176 53.1908L14.6043 57.3154C14.5303 57.2487 14.4461 57.1821 14.3772 57.0642V57.564C14.3772 57.6384 14.4257 57.7101 14.5226 57.7665L19.1739 60.4658C20.419 61.1887 22.0468 61.5424 23.6235 61.5219C24.9886 61.504 26.3153 61.2041 27.3257 60.6171C28.3717 60.0121 28.8871 59.2123 28.8871 58.3946L28.8897 58.3971Z" fill="#279FFE" />
        <path opacity="0.4" d="M28.8897 58.3971V57.8998H28.8438V57.9716C28.8157 57.8357 28.7723 57.7024 28.7136 57.5692C28.4534 56.9591 27.9074 56.3746 27.0705 55.8901L22.4193 53.1908C22.2254 53.078 21.9115 53.078 21.7176 53.1908L14.6043 57.3154C14.5303 57.2487 14.4461 57.1821 14.3772 57.0642V57.564C14.3772 57.6384 14.4257 57.7101 14.5226 57.7665L19.1739 60.4658C20.419 61.1887 22.0468 61.5424 23.6235 61.5219C24.9886 61.504 26.3153 61.2041 27.3257 60.6171C28.3717 60.0121 28.8871 59.2123 28.8871 58.3946L28.8897 58.3971Z" fill="black" />
        <path d="M28.7136 57.5666C28.4534 56.9565 27.9074 56.372 27.0705 55.8876L22.4192 53.1883C22.2253 53.0755 21.9115 53.0755 21.7176 53.1883L14.6042 57.3128L19.1738 59.9634C20.4189 60.6863 22.0467 61.04 23.6235 61.0195C24.9885 61.0016 26.3153 60.7016 27.3256 60.1146C28.2646 59.5712 28.7774 58.8714 28.8718 58.1408C28.8488 57.946 28.7952 57.7537 28.711 57.5615L28.7136 57.5666Z" fill="#279FFE" />
        <path opacity="0.2" d="M28.7136 57.5666C28.4534 56.9565 27.9074 56.372 27.0705 55.8876L22.4192 53.1883C22.2253 53.0755 21.9115 53.0755 21.7176 53.1883L14.6042 57.3128L19.1738 59.9634C20.4189 60.6863 22.0467 61.04 23.6235 61.0195C24.9885 61.0016 26.3153 60.7016 27.3256 60.1146C28.2646 59.5712 28.7774 58.8714 28.8718 58.1408C28.8488 57.946 28.7952 57.7537 28.711 57.5615L28.7136 57.5666Z" fill="black" />
        <path d="M28.8744 58.1459C28.8514 57.9511 28.7978 57.7588 28.7136 57.5666C28.4534 56.9565 27.9074 56.372 27.0705 55.8876L22.4193 53.1883C22.2254 53.0755 21.9115 53.0755 21.7176 53.1883L14.6043 57.3128L14.5226 57.2667C14.3287 57.1539 14.3287 56.9719 14.5226 56.8591L21.7151 52.6858C21.909 52.5731 22.2228 52.5731 22.4167 52.6858L27.068 55.3851C27.9048 55.8696 28.4508 56.4541 28.7111 57.0642C28.7978 57.2667 28.854 57.4717 28.8744 57.6794C28.8922 57.8357 28.8897 57.9896 28.8693 58.1434L28.8744 58.1459Z" fill="#279FFE" />
        <path opacity="0.3" d="M28.8744 58.1459C28.8514 57.9511 28.7978 57.7588 28.7136 57.5666C28.4534 56.9565 27.9074 56.372 27.0705 55.8876L22.4193 53.1883C22.2254 53.0755 21.9115 53.0755 21.7176 53.1883L14.6043 57.3128L14.5226 57.2667C14.3287 57.1539 14.3287 56.9719 14.5226 56.8591L21.7151 52.6858C21.909 52.5731 22.2228 52.5731 22.4167 52.6858L27.068 55.3851C27.9048 55.8696 28.4508 56.4541 28.7111 57.0642C28.7978 57.2667 28.854 57.4717 28.8744 57.6794C28.8922 57.8357 28.8897 57.9896 28.8693 58.1434L28.8744 58.1459Z" fill="black" />
        <path d="M14.6808 56.7924L21.8732 52.6192L21.7151 52.2424L14.8415 56.2285L14.6808 56.7924Z" fill="#279FFE" />
        <path opacity="0.1" d="M14.6808 56.7924L21.8732 52.6192L21.7151 52.2424L14.8415 56.2285L14.6808 56.7924Z" fill="black" />
        <path d="M21.1873 46.2826C21.1873 46.1724 21.1107 46.0391 21.0163 45.9853L12.2598 40.9046C12.1654 40.8507 12.0124 40.8507 11.918 40.9046L11.724 41.0174C11.6296 41.0712 11.5531 41.2045 11.5531 41.3147V48.0591C11.5531 48.1693 11.6296 48.3026 11.724 48.3564L20.4805 53.4371C20.5749 53.4909 20.728 53.4909 20.8224 53.4371L21.0163 53.3243C21.1107 53.2705 21.1873 53.1346 21.1873 53.027V46.2826Z" fill="#F5F5F5" />
        <path d="M21.136 46.1107L20.6512 46.3927L11.6013 41.1428C11.6319 41.089 11.6753 41.0428 11.7212 41.0146L11.9151 40.9044C12.0095 40.848 12.1626 40.848 12.257 40.9044L21.0135 45.9851C21.062 46.0133 21.1054 46.0594 21.136 46.1133V46.1107Z" fill="#E0E0E0" />
        <path d="M20.6104 53.4728C20.6104 53.4728 20.632 53.4755 20.6455 53.4755H20.6347C20.6347 53.4755 20.6185 53.4755 20.6104 53.4728Z" fill="#279FFE" />
        <path d="M20.6512 46.3927L20.5619 46.4465C20.6155 46.467 20.6512 46.5208 20.6512 46.5926V53.337C20.6512 53.3933 20.6308 53.4318 20.5976 53.4497C20.5747 53.46 20.5466 53.4626 20.516 53.4523C20.5032 53.4472 20.4905 53.4421 20.4803 53.4369L11.7212 48.3562C11.6268 48.2998 11.5503 48.1665 11.5503 48.0589V41.3145C11.5503 41.2581 11.5707 41.1966 11.6013 41.1428L20.6512 46.3927Z" fill="#EBEBEB" />
        <path opacity="0.2" d="M20.6512 46.3927L16.5945 47.9153C16.3061 48.023 15.9796 47.9153 15.8112 47.6564L15.1606 46.6541L11.5682 41.1248L15.0304 46.6926L11.5503 48.0614C11.5503 48.1178 11.5707 48.1794 11.6039 48.2332L15.0406 46.708L15.7984 47.9256C15.9719 48.205 16.324 48.3127 16.6225 48.1794L17.1609 47.941L20.5976 53.4497C20.6308 53.4318 20.6512 53.3934 20.6512 53.337V53.2242L17.1787 47.9333L20.6512 46.3927Z" fill="black" />
        <path d="M19.1129 47.4744C19.1129 47.3642 19.0364 47.2309 18.942 47.1771L10.1855 42.0964C10.0911 42.0426 9.93802 42.0426 9.84361 42.0964L9.6497 42.2092C9.5553 42.263 9.47876 42.3963 9.47876 42.5065V49.2509C9.47876 49.3611 9.5553 49.4944 9.6497 49.5482L18.4062 54.6289C18.5006 54.6828 18.6537 54.6828 18.7481 54.6289L18.942 54.5161C19.0364 54.4623 19.1129 54.3264 19.1129 54.2188V47.4744Z" fill="#F5F5F5" />
        <path d="M19.0642 47.3052L18.5794 47.5872L9.52954 42.3374C9.56016 42.2835 9.60353 42.2374 9.64946 42.2092L9.84337 42.099C9.93777 42.0426 10.0909 42.0426 10.1853 42.099L18.9417 47.1796C18.9902 47.2078 19.0336 47.254 19.0642 47.3078V47.3052Z" fill="#E0E0E0" />
        <path d="M18.536 54.6674C18.536 54.6674 18.5576 54.6701 18.5711 54.6701H18.5603C18.5603 54.6701 18.5441 54.6701 18.536 54.6674Z" fill="#279FFE" />
        <path d="M18.5769 47.5872L18.4876 47.6411C18.5411 47.6616 18.5769 47.7154 18.5769 47.7872V54.5315C18.5769 54.5879 18.5565 54.6264 18.5233 54.6443C18.5003 54.6546 18.4723 54.6571 18.4416 54.6469C18.4289 54.6417 18.4161 54.6366 18.4059 54.6315L9.6469 49.5508C9.5525 49.4944 9.47595 49.3611 9.47595 49.2534V42.5091C9.47595 42.4527 9.49636 42.3912 9.52698 42.3374L18.5769 47.5872Z" fill="#EBEBEB" />
        <path opacity="0.2" d="M18.5769 47.5872L14.5201 49.1099C14.2318 49.2176 13.9052 49.1099 13.7368 48.851L13.0862 47.8487L9.49381 42.3194L12.9561 47.8871L9.47595 49.256C9.47595 49.3124 9.49636 49.3739 9.52953 49.4278L12.9663 47.9025L13.7241 49.1202C13.8976 49.3996 14.2497 49.5072 14.5482 49.3739L15.0865 49.1355L18.5233 54.6443C18.5565 54.6264 18.5769 54.5879 18.5769 54.5315V54.4187L15.1044 49.1278L18.5769 47.5872Z" fill="black" />
        <path d="M17.0411 48.669C17.0411 48.5588 16.9646 48.4255 16.8702 48.3716L8.11373 43.2909C8.01932 43.2371 7.86624 43.2371 7.77184 43.2909L7.57793 43.4037C7.48353 43.4576 7.40698 43.5909 7.40698 43.7011V50.4454C7.40698 50.5557 7.48353 50.6889 7.57793 50.7428L16.3344 55.8235C16.4288 55.8773 16.5819 55.8773 16.6763 55.8235L16.8702 55.7107C16.9646 55.6568 17.0411 55.521 17.0411 55.4133V48.669Z" fill="#F5F5F5" />
        <path d="M16.9899 48.4998L16.5051 48.7818L7.4552 43.5319C7.48582 43.4781 7.52919 43.4319 7.57512 43.4037L7.76903 43.2935C7.86343 43.2371 8.01651 43.2371 8.11092 43.2935L16.8674 48.3742C16.9159 48.4024 16.9592 48.4485 16.9899 48.5024V48.4998Z" fill="#E0E0E0" />
        <path d="M16.4642 55.8593C16.4642 55.8593 16.4859 55.8621 16.4994 55.8621H16.4886C16.4886 55.8621 16.4723 55.8621 16.4642 55.8593Z" fill="#279FFE" />
        <path d="M16.5051 48.7792L16.4158 48.833C16.4694 48.8535 16.5051 48.9074 16.5051 48.9791V55.7235C16.5051 55.7799 16.4847 55.8183 16.4515 55.8363C16.4285 55.8465 16.4005 55.8491 16.3699 55.8388C16.3571 55.8337 16.3443 55.8286 16.3341 55.8235L7.57512 50.7428C7.48072 50.6864 7.40417 50.5531 7.40417 50.4454V43.7011C7.40417 43.6447 7.42459 43.5832 7.4552 43.5293L16.5051 48.7792Z" fill="#EBEBEB" />
        <path opacity="0.2" d="M16.5051 48.7818L12.4483 50.3044C12.16 50.4121 11.8334 50.3044 11.665 50.0455L11.0144 49.0432L7.42203 43.514L10.8843 49.0817L7.40417 50.4506C7.40417 50.507 7.42459 50.5685 7.45775 50.6223L10.8945 49.0971L11.6523 50.3147C11.8258 50.5941 12.1779 50.7018 12.4764 50.5685L13.0147 50.3301L16.4515 55.8389C16.4847 55.8209 16.5051 55.7825 16.5051 55.7261V55.6133L13.0326 50.3224L16.5051 48.7818Z" fill="black" />
        <path d="M20.9088 43.737C20.2123 43.3704 19.2887 43.4345 18.2783 44.0215C17.1429 44.6777 16.1198 45.8646 15.4029 47.2283C15.2345 47.5436 15.0865 47.8692 14.9538 48.1973C14.5584 49.1868 14.3287 50.2224 14.3287 51.1914V56.877C14.2012 56.877 14.0761 56.8463 13.9792 56.7924L3.90362 50.9453C3.71227 50.8325 3.55408 50.5582 3.55408 50.3352V44.9366C3.55408 42.2399 5.32221 39.0305 7.50112 37.7642C8.53445 37.1644 9.47337 37.1157 10.1776 37.513V37.5079L20.9088 43.737Z" fill="#279FFE" />
        <path opacity="0.2" d="M20.9088 43.737C20.2123 43.3704 19.2887 43.4345 18.2783 44.0215C17.1429 44.6777 16.1198 45.8646 15.4029 47.2283C15.2345 47.5436 15.0865 47.8692 14.9538 48.1973C14.5584 49.1868 14.3287 50.2224 14.3287 51.1914V56.877C14.2012 56.877 14.0761 56.8463 13.9792 56.7924L3.90362 50.9453C3.71227 50.8325 3.55408 50.5582 3.55408 50.3352V44.9366C3.55408 42.2399 5.32221 39.0305 7.50112 37.7642C8.53445 37.1644 9.47337 37.1157 10.1776 37.513V37.5079L20.9088 43.737Z" fill="black" />
        <path opacity="0.1" d="M3.90362 50.9453L13.9792 56.7924C14.0761 56.8463 14.2012 56.877 14.3287 56.877V51.1914C14.3287 50.6736 14.3951 50.1378 14.5175 49.5995L3.74033 43.3473C3.62041 43.8856 3.55408 44.4214 3.55408 44.9366V50.3352C3.55408 50.5582 3.71227 50.8325 3.90362 50.9453Z" fill="black" />
        <path d="M14.9538 48.1973C14.5583 49.1868 14.3287 50.2224 14.3287 51.1914V56.877C14.2853 56.877 14.242 56.8719 14.2011 56.8642C14.2011 56.5361 14.196 54.7109 14.196 51.1914C14.196 47.0079 17.3981 44.3496 18.2783 44.0215C17.1429 44.6777 16.1198 45.8646 15.4029 47.2283C15.2345 47.5436 15.0865 47.8692 14.9538 48.1973Z" fill="#279FFE" />
        <path opacity="0.4" d="M14.9538 48.1973C14.5583 49.1868 14.3287 50.2224 14.3287 51.1914V56.877C14.2853 56.877 14.242 56.8719 14.2011 56.8642C14.2011 56.5361 14.196 54.7109 14.196 51.1914C14.196 47.0079 17.3981 44.3496 18.2783 44.0215C17.1429 44.6777 16.1198 45.8646 15.4029 47.2283C15.2345 47.5436 15.0865 47.8692 14.9538 48.1973Z" fill="black" />
        <path d="M14.8416 56.2285C14.7829 56.2618 14.737 56.2336 14.737 56.167V51.1914C14.737 50.3249 14.936 49.3611 15.3111 48.4024C15.3187 48.3844 15.3238 48.3665 15.3315 48.3486C15.4718 47.9948 15.6325 47.6513 15.8111 47.3232C16.5102 46.0261 17.4645 44.9623 18.4825 44.3727C19.0055 44.0677 19.5005 43.9138 19.9546 43.9138C20.2404 43.9138 20.5006 43.9779 20.7303 44.101C21.4192 44.4701 21.8223 45.3622 21.8223 46.6106V52.0553C21.8223 52.1219 21.7764 52.2039 21.7177 52.2373L21.8759 52.6141C21.8759 52.6141 21.9014 52.5987 21.9116 52.591C21.9652 52.5551 22.0136 52.5064 22.057 52.45C22.1591 52.3218 22.2254 52.1527 22.2254 52.004V46.608C22.2254 45.1648 21.7177 44.1599 20.9114 43.7344C20.2123 43.3678 19.2913 43.4319 18.2809 44.019C17.1455 44.6752 16.1224 45.862 15.4055 47.2258C15.2396 47.5411 15.0891 47.8641 14.959 48.1948C14.5635 49.1842 14.3339 50.2198 14.3339 51.1888V56.8719C14.3543 56.8719 14.3747 56.8719 14.3951 56.8719C14.5023 56.8642 14.6043 56.836 14.686 56.7899L14.8441 56.2285H14.8416Z" fill="#279FFE" />
        <path opacity="0.1" d="M14.8416 56.2285C14.7829 56.2618 14.737 56.2336 14.737 56.167V51.1914C14.737 50.3249 14.936 49.3611 15.3111 48.4024C15.3187 48.3844 15.3238 48.3665 15.3315 48.3486C15.4718 47.9948 15.6325 47.6513 15.8111 47.3232C16.5102 46.0261 17.4645 44.9623 18.4825 44.3727C19.0055 44.0677 19.5005 43.9138 19.9546 43.9138C20.2404 43.9138 20.5006 43.9779 20.7303 44.101C21.4192 44.4701 21.8223 45.3622 21.8223 46.6106V52.0553C21.8223 52.1219 21.7764 52.2039 21.7177 52.2373L21.8759 52.6141C21.8759 52.6141 21.9014 52.5987 21.9116 52.591C21.9652 52.5551 22.0136 52.5064 22.057 52.45C22.1591 52.3218 22.2254 52.1527 22.2254 52.004V46.608C22.2254 45.1648 21.7177 44.1599 20.9114 43.7344C20.2123 43.3678 19.2913 43.4319 18.2809 44.019C17.1455 44.6752 16.1224 45.862 15.4055 47.2258C15.2396 47.5411 15.0891 47.8641 14.959 48.1948C14.5635 49.1842 14.3339 50.2198 14.3339 51.1888V56.8719C14.3543 56.8719 14.3747 56.8719 14.3951 56.8719C14.5023 56.8642 14.6043 56.836 14.686 56.7899L14.8441 56.2285H14.8416Z" fill="black" />
        <path d="M38.8683 41.6452C38.8683 41.2197 39.1643 40.7045 39.5317 40.4917L72.2332 21.5224C72.5981 21.3097 73.1925 21.3097 73.5599 21.5224L74.3075 21.9556C74.6724 22.1684 74.9709 22.6837 74.9709 23.1092V49.2252C74.9709 49.6482 74.6724 50.166 74.3075 50.3788L41.606 69.348C41.2411 69.5608 40.6441 69.5608 40.2792 69.348L39.5317 68.9148C39.1668 68.7021 38.8683 68.1843 38.8683 67.7613V41.6452Z" fill="#279FFE" />
        <g opacity="0.7">
            <path d="M38.8683 41.6452C38.8683 41.2197 39.1643 40.7045 39.5317 40.4917L72.2332 21.5224C72.5981 21.3097 73.1925 21.3097 73.5599 21.5224L74.3075 21.9556C74.6724 22.1684 74.9709 22.6837 74.9709 23.1092V49.2252C74.9709 49.6482 74.6724 50.166 74.3075 50.3788L41.606 69.348C41.2411 69.5608 40.6441 69.5608 40.2792 69.348L39.5317 68.9148C39.1668 68.7021 38.8683 68.1843 38.8683 67.7613V41.6452Z" fill="white" />
        </g>
        <path d="M39.0623 40.9916L40.9427 42.081L74.7745 22.4555C74.6546 22.2479 74.4887 22.0659 74.3076 21.9582L73.5574 21.5276C73.1926 21.3122 72.5981 21.3122 72.2333 21.5276L39.5317 40.4943C39.3455 40.6019 39.1796 40.7839 39.0623 40.9916Z" fill="#279FFE" />
        <path opacity="0.8" d="M39.0623 40.9916L40.9427 42.081L74.7745 22.4555C74.6546 22.2479 74.4887 22.0659 74.3076 21.9582L73.5574 21.5276C73.1926 21.3122 72.5981 21.3122 72.2333 21.5276L39.5317 40.4943C39.3455 40.6019 39.1796 40.7839 39.0623 40.9916Z" fill="white" />
        <path opacity="0.1" d="M38.8683 41.6452V67.7613C38.8683 68.1868 39.1668 68.7021 39.5342 68.9148L40.2818 69.3506C40.3379 69.3814 40.3966 69.4096 40.4629 69.4326C40.5471 69.4608 40.639 69.4839 40.7359 69.4967C40.9094 69.5198 41.0906 69.5121 41.259 69.4788C41.3023 69.4685 41.3483 69.4583 41.3891 69.4455C41.4172 69.4352 41.4478 69.4275 41.4707 69.4173C41.3483 69.4608 41.2386 69.4506 41.1493 69.4044C41.0242 69.3378 40.9451 69.1866 40.9451 68.9661V42.85C40.9451 42.5758 41.0829 42.3681 41.2896 42.2835L40.9451 42.081L39.0647 40.9916C38.9448 41.1992 38.8708 41.435 38.8708 41.6478L38.8683 41.6452Z" fill="#279FFE" />
        <path opacity="0.05" d="M38.8683 41.6452V67.7613C38.8683 68.1868 39.1668 68.7021 39.5342 68.9148L40.2818 69.3506C40.3379 69.3814 40.3966 69.4096 40.4629 69.4326C40.5471 69.4608 40.639 69.4839 40.7359 69.4967C40.9094 69.5198 41.0906 69.5121 41.259 69.4788C41.3023 69.4685 41.3483 69.4583 41.3891 69.4455C41.4172 69.4352 41.4478 69.4275 41.4707 69.4173C41.3483 69.4608 41.2386 69.4506 41.1493 69.4044C41.0242 69.3378 40.9451 69.1866 40.9451 68.9661V42.85C40.9451 42.5758 41.0829 42.3681 41.2896 42.2835L40.9451 42.081L39.0647 40.9916C38.9448 41.1992 38.8708 41.435 38.8708 41.6478L38.8683 41.6452Z" fill="black" />
        <path opacity="0.2" d="M40.9426 42.081L56.6466 47.9769C57.7667 48.3947 59.0245 47.9794 59.6751 46.9746L62.1959 43.0936L74.7719 22.4581L62.6986 43.2397L74.9658 49.2406C74.9632 49.4559 74.8842 49.6943 74.7591 49.9045L62.6603 43.2986L59.7287 48.0102C59.0551 49.0919 57.6927 49.5123 56.5343 48.9971L54.4473 48.0717L41.1442 69.4044C41.0192 69.3378 40.9401 69.1865 40.9401 68.9661V68.5303L54.3835 48.0435L40.9401 42.081H40.9426Z" fill="#279FFE" />
        <path opacity="0.05" d="M40.9426 42.081L56.6466 47.9769C57.7667 48.3947 59.0245 47.9794 59.6751 46.9746L62.1959 43.0936L74.7719 22.4581L62.6986 43.2397L74.9658 49.2406C74.9632 49.4559 74.8842 49.6943 74.7591 49.9045L62.6603 43.2986L59.7287 48.0102C59.0551 49.0919 57.6927 49.5123 56.5343 48.9971L54.4473 48.0717L41.1442 69.4044C41.0192 69.3378 40.9401 69.1865 40.9401 68.9661V68.5303L54.3835 48.0435L40.9401 42.081H40.9426Z" fill="black" />
        <path d="M47.1608 46.4593C47.1608 46.0338 47.4567 45.5185 47.8241 45.3058L80.5257 26.3365C80.8905 26.1238 81.485 26.1238 81.8524 26.3365L82.6 26.7697C82.9648 26.9825 83.2634 27.4977 83.2634 27.9233V54.0393C83.2634 54.4623 82.9648 54.9801 82.6 55.1929L49.8984 74.1621C49.5336 74.3723 48.9366 74.3723 48.5717 74.1621L47.8241 73.7289C47.4593 73.5187 47.1608 72.9983 47.1608 72.5754V46.4593Z" fill="#279FFE" />
        <g opacity="0.5">
            <path d="M47.1608 46.4593C47.1608 46.0338 47.4567 45.5185 47.8241 45.3058L80.5257 26.3365C80.8905 26.1238 81.485 26.1238 81.8524 26.3365L82.6 26.7697C82.9648 26.9825 83.2634 27.4977 83.2634 27.9233V54.0393C83.2634 54.4623 82.9648 54.9801 82.6 55.1929L49.8984 74.1621C49.5336 74.3723 48.9366 74.3723 48.5717 74.1621L47.8241 73.7289C47.4593 73.5187 47.1608 72.9983 47.1608 72.5754V46.4593Z" fill="white" />
        </g>
        <path d="M47.3544 45.8056L49.2348 46.8951L83.0666 27.2696C82.9467 27.062 82.7808 26.88 82.5997 26.7723L81.8496 26.3416C81.4847 26.1263 80.8902 26.1263 80.5254 26.3416L47.8238 45.3083C47.6376 45.416 47.4717 45.598 47.3544 45.8056Z" fill="#279FFE" />
        <path opacity="0.6" d="M47.3544 45.8056L49.2348 46.8951L83.0666 27.2696C82.9467 27.062 82.7808 26.88 82.5997 26.7723L81.8496 26.3416C81.4847 26.1263 80.8902 26.1263 80.5254 26.3416L47.8238 45.3083C47.6376 45.416 47.4717 45.598 47.3544 45.8056Z" fill="white" />
        <path opacity="0.1" d="M47.158 46.4593V72.5754C47.158 73.0009 47.4565 73.5161 47.8239 73.7289L48.5714 74.1647C48.6276 74.1954 48.6863 74.2236 48.7526 74.2467C48.8368 74.2749 48.9286 74.298 49.0256 74.3108C49.1991 74.3339 49.3802 74.3262 49.5486 74.2929C49.592 74.2826 49.6354 74.2698 49.6762 74.257C49.7043 74.2467 49.7298 74.239 49.7553 74.2262C49.6328 74.2698 49.5257 74.2647 49.4389 74.2211C49.3139 74.1544 49.2348 74.0032 49.2348 73.7827V47.6667C49.2348 47.3924 49.3726 47.1848 49.5793 47.1002L49.2348 46.8976L47.3544 45.8082C47.2345 46.0158 47.1605 46.2517 47.1605 46.4644L47.158 46.4593Z" fill="black" />
        <path opacity="0.4" d="M49.2348 46.8951L64.9388 52.7909C66.0589 53.2088 67.3168 52.7935 67.9674 51.7886L70.4882 47.9076L83.0641 27.2722L70.9908 48.0538L83.258 54.0547C83.2555 54.27 83.1764 54.5084 83.0514 54.7186L70.9525 48.1127L68.021 52.8243C67.3474 53.906 65.9849 54.3264 64.8266 53.8112L62.7395 52.8858L49.4364 74.2185C49.3114 74.1519 49.2323 74.0006 49.2323 73.7802V73.3444L62.6757 52.8576L49.2323 46.8951H49.2348Z" fill="#279FFE" />
        <path opacity="0.05" d="M49.2348 46.8951L64.9388 52.7909C66.0589 53.2088 67.3168 52.7935 67.9674 51.7886L70.4882 47.9076L83.0641 27.2722L70.9908 48.0538L83.258 54.0547C83.2555 54.27 83.1764 54.5084 83.0514 54.7186L70.9525 48.1127L68.021 52.8243C67.3474 53.906 65.9849 54.3264 64.8266 53.8112L62.7395 52.8858L49.4364 74.2185C49.3114 74.1519 49.2323 74.0006 49.2323 73.7802V73.3444L62.6757 52.8576L49.2323 46.8951H49.2348Z" fill="black" />
        <path d="M55.5189 51.4836L89.5498 31.7428L90.9122 32.5323C91.2643 32.7374 91.5526 33.2372 91.5526 33.6474V58.8688C91.5526 59.2764 91.2643 59.7788 90.9122 59.9839L58.1622 78.9814C57.8101 79.1864 57.2335 79.1864 56.8814 78.9814L56.1593 78.5635C55.8072 78.3585 55.5189 77.8586 55.5189 77.4484V51.4836Z" fill="#279FFE" />
        <path opacity="0.2" d="M55.5189 51.4836L89.5498 31.7428L90.9122 32.5323C91.2643 32.7374 91.5526 33.2372 91.5526 33.6474V58.8688C91.5526 59.2764 91.2643 59.7788 90.9122 59.9839L58.1622 78.9814C57.8101 79.1864 57.2335 79.1864 56.8814 78.9814L56.1593 78.5635C55.8072 78.3585 55.5189 77.8586 55.5189 77.4484V51.4836Z" fill="black" />
        <path d="M89.3635 29.528L89.5039 29.4511L88.9757 29.1434C88.9298 29.1178 88.8839 29.0947 88.8354 29.0768L73.8586 23.5014C73.4631 23.3527 72.9477 23.5193 72.7079 23.8679L55.9552 48.4485C55.7154 48.7997 55.524 49.4277 55.524 49.8507C55.524 50.5531 55.524 51.4836 55.524 51.4836L56.0445 51.7861L89.5574 31.7428V30.1099C89.5574 29.9099 89.486 29.7048 89.3686 29.5254L89.3635 29.528Z" fill="#279FFE" />
        <path opacity="0.1" d="M73.3992 23.9859C73.3329 24.0371 73.2742 24.1012 73.2257 24.1704L56.4706 48.751C56.3481 48.933 56.2358 49.1893 56.1593 49.4534L55.6388 49.1509C55.6771 49.0227 55.723 48.8971 55.774 48.7792C55.7766 48.7741 55.7766 48.7715 55.7791 48.7689C55.8021 48.7177 55.825 48.669 55.8506 48.6203C55.8557 48.6126 55.8582 48.6049 55.8633 48.5972C55.8914 48.5434 55.922 48.4921 55.9526 48.4485L72.7052 23.8679C72.7308 23.8295 72.7588 23.7987 72.7894 23.7654C72.8175 23.7372 72.8481 23.709 72.8787 23.6834L73.3992 23.9859Z" fill="black" />
        <path opacity="0.35" d="M89.4962 29.4485C89.4503 29.4203 89.4018 29.3972 89.3533 29.3793L74.3739 23.8013C74.0575 23.6834 73.6646 23.7654 73.3993 23.9859L72.8788 23.6834C73.1467 23.4655 73.537 23.3809 73.856 23.4988L88.8328 29.0742C88.8813 29.0922 88.9272 29.1153 88.9731 29.1434L89.4962 29.4485Z" fill="white" />
        <path d="M55.8633 48.5972C55.8913 48.5434 55.922 48.4947 55.9526 48.4485C55.922 48.4947 55.8913 48.5434 55.8633 48.5972Z" fill="#279FFE" />
        <path d="M72.7894 23.7659C72.8177 23.7376 72.8485 23.7092 72.8793 23.6834C72.8485 23.7092 72.8177 23.735 72.7894 23.7659Z" fill="#279FFE" />
        <path d="M55.6388 49.1509C55.6771 49.0227 55.723 48.8946 55.774 48.7792C55.723 48.8971 55.6771 49.0227 55.6388 49.1509Z" fill="#279FFE" />
        <path d="M55.7792 48.7689C55.8021 48.7177 55.8251 48.669 55.8506 48.6228C55.8251 48.669 55.8021 48.7177 55.7792 48.7689Z" fill="#279FFE" />
        <path opacity="0.2" d="M55.774 48.7801C55.774 48.7801 55.7768 48.7717 55.7796 48.769C55.7796 48.7717 55.7768 48.7773 55.774 48.7801Z" fill="black" />
        <path opacity="0.2" d="M55.8506 48.6217C55.8506 48.6217 55.8586 48.6027 55.864 48.5946C55.8586 48.6027 55.8559 48.6109 55.8506 48.6217Z" fill="black" />
        <path opacity="0.2" d="M72.7053 23.866C72.731 23.8299 72.7592 23.7964 72.79 23.7628C72.7592 23.7938 72.731 23.8273 72.7053 23.866Z" fill="black" />
        <path d="M73.2258 24.1704L56.4732 48.751C56.2333 49.1022 56.042 49.7302 56.042 50.1532C56.042 50.8556 56.042 51.7861 56.042 51.7861L90.0728 32.0452V30.4149C90.0728 29.9894 89.7514 29.5254 89.3559 29.3793L74.379 23.8039C73.9836 23.6552 73.4682 23.8218 73.2284 24.1704H73.2258Z" fill="#279FFE" />
        <path opacity="0.05" d="M90.0703 30.4149C90.0703 30.2201 90.0014 30.0176 89.8891 29.8407L56.1593 49.4534C56.1593 49.4534 56.1593 49.4559 56.1568 49.4585C56.0854 49.702 56.0394 49.9507 56.0394 50.1532V51.7861L90.0703 32.0452V30.4149Z" fill="black" />
        <path d="M88.6159 23.486C88.6159 23.3091 88.5547 23.1861 88.4552 23.1271C88.3557 23.0682 87.5163 22.5837 87.4168 22.5247C87.3173 22.4658 87.1795 22.476 87.0264 22.5632L59.1139 38.7537C58.8077 38.9306 58.5602 39.3612 58.5628 39.715V73.3008C58.5628 73.4777 58.624 73.6007 58.7235 73.6597C58.823 73.7187 59.6599 74.2032 59.7594 74.2621C59.8589 74.3211 59.9967 74.3108 60.1497 74.2237L88.0623 58.0331C88.3685 57.8563 88.6159 57.4256 88.6159 57.0719V23.486Z" fill="#F0F0F0" />
        <path d="M60.1523 74.2236L88.0648 58.0331C88.371 57.8562 88.6185 57.4256 88.6185 57.0718V23.486C88.6185 23.1322 88.371 22.9887 88.0648 23.1656L60.1523 39.3561C59.8461 39.533 59.5986 39.9636 59.5986 40.3174V73.9032C59.5986 74.257 59.8461 74.4005 60.1523 74.2236Z" fill="#FAFAFA" />
        <path d="M78.0404 42.4373C78.0097 42.8346 77.9409 43.2063 77.8311 43.555C77.7214 43.9036 77.5862 44.2163 77.428 44.4932C77.2698 44.77 77.0938 45.0084 76.9024 45.2084C76.7085 45.4083 76.5146 45.557 76.3182 45.6595C75.9686 45.839 75.7007 45.903 75.5145 45.8543C75.3282 45.8056 75.1879 45.7185 75.0986 45.5929C75.0373 45.7236 74.9761 45.8569 74.9072 45.9928C74.8409 46.1286 74.7567 46.2619 74.6546 46.3952C74.5526 46.5285 74.4276 46.6567 74.2796 46.7849C74.1316 46.9105 73.9479 47.0309 73.731 47.1412C73.4733 47.2745 73.2411 47.3206 73.037 47.2796C72.8329 47.2386 72.662 47.1181 72.5216 46.9182C72.3813 46.7182 72.2793 46.4465 72.2155 46.103C72.1491 45.7595 72.1262 45.3519 72.1466 44.8802C72.1644 44.4086 72.2206 43.96 72.3124 43.5345C72.4043 43.1089 72.5267 42.7244 72.6773 42.3758C72.8278 42.0272 73.009 41.7221 73.2233 41.4632C73.435 41.2043 73.6723 41.0069 73.93 40.8736C74.2158 40.7275 74.4275 40.6814 74.5628 40.7378C74.698 40.7942 74.8077 40.8967 74.8894 41.0454L74.8945 40.907C74.8996 40.7942 74.9302 40.6839 74.9889 40.5711C75.0475 40.4609 75.1164 40.384 75.193 40.3456L75.739 40.0662C75.8155 40.0277 75.8819 40.0328 75.9329 40.0867C75.9839 40.1405 76.0094 40.2225 76.0043 40.3353L75.8742 43.6139C75.864 43.86 75.9099 44.0215 76.0145 44.101C76.1166 44.1779 76.2391 44.183 76.3794 44.1087C76.5197 44.0369 76.6422 43.9061 76.7493 43.7139C76.8565 43.5242 76.9228 43.2602 76.9509 42.9244C76.9764 42.6398 76.9943 42.3476 77.007 42.0425C77.0198 41.7401 77.0198 41.4606 77.0096 41.2043C76.9892 40.6609 76.9228 40.2097 76.808 39.8457C76.6932 39.4817 76.5223 39.2202 76.3003 39.0587C76.0783 38.8972 75.7926 38.8357 75.4456 38.8716C75.0986 38.9101 74.6827 39.051 74.2005 39.2997C73.7948 39.5073 73.4274 39.7791 73.0983 40.1149C72.7691 40.4507 72.4834 40.8275 72.241 41.2479C71.9986 41.6708 71.7996 42.1271 71.6414 42.6193C71.4858 43.1115 71.3761 43.6165 71.3148 44.1292C71.2944 44.2701 71.2791 44.4522 71.2663 44.6726C71.2536 44.8956 71.2434 45.1263 71.2332 45.3673C71.223 45.6083 71.2153 45.8415 71.2102 46.0645C71.2051 46.2876 71.2051 46.4696 71.2153 46.6054C71.2383 47.0771 71.3097 47.4821 71.4347 47.8205C71.5572 48.1589 71.7307 48.4203 71.9476 48.6049C72.167 48.7894 72.4323 48.8843 72.7487 48.8869C73.0625 48.892 73.4248 48.7894 73.8305 48.5792C74.1163 48.4331 74.3663 48.2845 74.5781 48.1358C74.7898 47.9871 74.9761 47.8359 75.1343 47.6821C75.295 47.5282 75.4328 47.3796 75.5476 47.236C75.6624 47.0925 75.767 46.9489 75.8614 46.8105C75.9405 46.69 76.0043 46.5977 76.0528 46.5388C76.0987 46.4798 76.1625 46.4311 76.2391 46.3901L77.0147 45.9902C77.0912 45.9518 77.1576 45.9543 77.2137 46.0005C77.2698 46.0466 77.2928 46.1389 77.28 46.2747C77.2775 46.3568 77.2494 46.4465 77.1984 46.5439C77.0428 46.8361 76.8667 47.1412 76.6728 47.4616C76.4789 47.782 76.2493 48.0973 75.9839 48.4049C75.7186 48.7125 75.4047 49.015 75.045 49.3098C74.6827 49.6046 74.2592 49.8789 73.7693 50.1327C73.162 50.4454 72.6313 50.589 72.1797 50.5659C71.7281 50.5403 71.3531 50.3865 71.052 50.1045C70.751 49.8225 70.5213 49.4329 70.3631 48.9356C70.2049 48.4383 70.1182 47.8769 70.1003 47.254C70.1003 47.113 70.1003 46.9233 70.108 46.6849C70.1131 46.4465 70.1233 46.1953 70.1335 45.9338C70.1437 45.6723 70.1565 45.4237 70.1692 45.1853C70.182 44.9469 70.1947 44.7598 70.2075 44.6239C70.2687 43.9702 70.3989 43.3012 70.6004 42.6193C70.802 41.9374 71.0724 41.2889 71.4118 40.6711C71.7511 40.0533 72.1593 39.4894 72.6339 38.9793C73.1085 38.4691 73.6519 38.0564 74.2592 37.7437C74.9736 37.3771 75.5731 37.1951 76.0579 37.1951C76.5452 37.1951 76.9382 37.3361 77.2392 37.613C77.5403 37.8898 77.7572 38.2871 77.8898 38.8024C78.0225 39.3176 78.0965 39.9021 78.1118 40.5583C78.1144 40.8172 78.1118 41.1248 78.0965 41.4786C78.0812 41.8323 78.0633 42.1528 78.0378 42.4373H78.0404ZM73.2488 44.3112C73.2284 44.8136 73.2794 45.1699 73.4019 45.3775C73.5243 45.5877 73.7055 45.6288 73.9504 45.5032C74.2081 45.3699 74.4097 45.134 74.55 44.7957C74.6903 44.4573 74.7694 44.0318 74.7899 43.5191C74.8103 43.0166 74.7592 42.6578 74.6419 42.4424C74.5245 42.2271 74.3357 42.1861 74.0755 42.3194C73.8305 42.445 73.6366 42.6834 73.4912 43.0346C73.3458 43.3858 73.2641 43.8113 73.2462 44.3137L73.2488 44.3112Z" fill="#279FFE" />
        <path d="M59.5986 73.9032C59.5986 74.0596 59.6471 74.1749 59.7287 74.2416C59.5425 74.1365 58.8179 73.7135 58.726 73.6623C58.624 73.6033 58.5627 73.4803 58.5627 73.3034V39.715C58.5627 39.5381 58.624 39.3433 58.726 39.169L59.7619 39.7688C59.6599 39.9431 59.5986 40.1405 59.5986 40.3174V73.9032Z" fill="#E0E0E0" />
        <path d="M90.6902 59.2072C90.68 59.2251 90.6698 59.2405 90.6545 59.2584L76.4737 54.7417C75.3588 54.2444 74.055 54.6494 73.4095 55.6902L58.2489 78.3302L57.6876 78.6558H57.6825C57.5116 78.7532 57.361 78.766 57.2488 78.7071L72.8405 55.3723C73.4886 54.3316 74.7949 53.9265 75.9073 54.4213L90.6902 59.2097V59.2072Z" fill="#279FFE" />
        <path opacity="0.4" d="M72.0113 57.9101L72.047 57.8793L58.2464 78.3277L57.6851 78.6532H57.68C57.5116 78.7506 57.3585 78.7609 57.2462 78.7045L71.4653 57.582L72.0113 57.9101Z" fill="white" />
        <path opacity="0.4" d="M90.6902 59.2072C90.68 59.2251 90.6698 59.2405 90.6545 59.2584L76.4711 54.7391C75.3587 54.2418 74.0549 54.6469 73.4069 55.6876L72.8456 55.3595C73.4936 54.3239 74.7949 53.924 75.9073 54.4162L90.6902 59.2072Z" fill="white" />
        <path d="M91.5424 33.4859H91.5398C91.5092 33.3013 91.4122 33.25 91.2872 33.3372C91.2388 33.3705 91.1826 33.4269 91.1239 33.5064L91.0525 33.6064L77.058 54.9827L74.9683 57.9075C74.7336 58.2408 74.2182 58.433 73.8177 58.3407L72.0138 57.9101L58.2438 52.8166C58.1443 52.7935 58.0499 52.791 57.9631 52.8063C57.9274 52.814 57.8917 52.8243 57.8585 52.8397L58.3765 52.5372L71.5775 57.3974L73.315 58.0203C73.713 58.1152 74.2284 57.9229 74.4657 57.5871L76.5553 54.6648L90.6188 33.1885C90.6647 33.1244 90.7208 33.0783 90.7769 33.0424L89.5599 32.3375L90.0702 32.0427L90.9122 32.5297C91.2183 32.7092 91.476 33.1116 91.5398 33.4833L91.5424 33.4859Z" fill="#279FFE" />
        <path opacity="0.4" d="M77.0555 54.9827L74.9659 57.9075C74.7312 58.2408 74.2158 58.433 73.8152 58.3407L72.0114 57.9101L72.0471 57.8793L72.1338 57.7409L73.3151 58.0229C73.7132 58.1177 74.2285 57.9255 74.4658 57.5897L76.535 54.6981L77.0555 54.9827Z" fill="white" />
        <path opacity="0.1" d="M90.9122 32.5323L90.0702 32.0452L89.5599 32.34L90.777 33.045C90.777 33.045 90.7769 33.045 90.7795 33.045C90.7183 33.0834 90.6647 33.1296 90.6213 33.1911L76.5579 54.6648L76.5375 54.693L77.058 54.9801L91.0525 33.6038L91.1239 33.5038C91.1826 33.4244 91.2388 33.368 91.2872 33.3346C91.4123 33.2475 91.5092 33.2987 91.5398 33.4833H91.5424C91.4786 33.1116 91.2209 32.7092 90.9147 32.5297L90.9122 32.5323Z" fill="black" />
        <path d="M58.5219 53.2267L55.5189 51.4836V77.4484C55.5189 77.856 55.8072 78.3584 56.1593 78.5635L56.8814 78.9814C57.2335 79.1864 57.8101 79.1864 58.1622 78.9814L58.5219 78.7712V53.2242V53.2267Z" fill="#279FFE" />
        <path opacity="0.15" d="M58.5219 53.2267L55.5189 51.4836V77.4484C55.5189 77.856 55.8072 78.3584 56.1593 78.5635L56.8814 78.9814C57.2335 79.1864 57.8101 79.1864 58.1622 78.9814L58.5219 78.7712V53.2242V53.2267Z" fill="black" />
        <path d="M91.5551 33.6474V58.8688C91.5551 59.0816 91.4786 59.3148 91.3561 59.5199C91.2541 59.6891 91.1265 59.8403 90.9811 59.9429L90.9555 59.9557C90.9402 59.966 90.93 59.9762 90.9147 59.9839L58.1647 78.9788H58.1596C57.9886 79.0788 57.8356 79.0916 57.7233 79.0326C57.6238 78.9814 57.5549 78.8763 57.5319 78.725C57.5268 78.6891 57.5243 78.6507 57.5243 78.6097V53.3857C57.5243 52.9781 57.8432 52.7217 58.2438 52.8166L72.0138 57.9101L73.8177 58.3407C74.2182 58.433 74.7336 58.2408 74.9683 57.9075L77.058 54.9827L91.0525 33.6064L91.1239 33.5064C91.3612 33.1757 91.5551 33.2372 91.5551 33.6474Z" fill="#279FFE" />
        <path d="M90.9122 59.9839C90.9275 59.9762 90.9403 59.9659 90.953 59.9557L90.9785 59.9403C91.124 59.8378 91.2515 59.6865 91.3536 59.5199C91.4735 59.3174 91.55 59.0867 91.5526 58.8791L77.058 54.9801L86.7661 62.3884L90.9147 59.9813L90.9122 59.9839Z" fill="#279FFE" />
        <path opacity="0.2" d="M90.9122 59.9839C90.9275 59.9762 90.9403 59.9659 90.953 59.9557L90.9785 59.9403C91.124 59.8378 91.2515 59.6865 91.3536 59.5199C91.4735 59.3174 91.55 59.0867 91.5526 58.8791L77.058 54.9801L86.7661 62.3884L90.9147 59.9813L90.9122 59.9839Z" fill="black" />
        <path d="M57.5217 78.6097C57.5217 78.8224 57.5983 78.9685 57.7207 79.0326C57.833 79.0916 57.9861 79.0788 58.157 78.9839H58.1621L69.4369 72.4421L72.0112 57.9101L57.5217 78.1893V78.6097Z" fill="#279FFE" />
        <path opacity="0.15" d="M73.4018 55.6851L57.7207 79.0326C57.5983 78.9685 57.5217 78.8224 57.5217 78.6097V78.1893L72.8405 55.3646C72.8405 55.3621 72.8405 55.3595 72.8456 55.3569L73.4018 55.6825V55.6851Z" fill="black" />
        <path d="M91.3536 59.5225C91.2516 59.6917 91.124 59.8429 90.9786 59.9429L90.9531 59.9583L58.1622 78.9813H58.1571C57.9862 79.0813 57.8331 79.0916 57.7208 79.0326L73.4044 55.6799C74.055 54.6366 75.3664 54.2316 76.4865 54.7289L91.3536 59.5199V59.5225Z" fill="#279FFE" />
        <path opacity="0.15" d="M55.6388 49.1509L56.1593 49.4534C56.0853 49.6995 56.0394 49.9507 56.0394 50.1558V51.7861L55.5189 51.4836V49.8507C55.5189 49.6482 55.5648 49.397 55.6388 49.1509Z" fill="black" />
        <path d="M58.3765 52.5397L57.8586 52.8397L57.333 52.5346L56.0394 51.7861L56.5421 51.4862L58.3765 52.5397Z" fill="#279FFE" />
        <path opacity="0.1" d="M58.3995 52.55L56.5421 51.4887L56.0394 51.7887L57.333 52.5372L57.8586 52.8422H57.8637C57.8943 52.8243 57.9275 52.814 57.9632 52.8089C58.0499 52.7935 58.1444 52.7961 58.2439 52.8192L59.2899 53.2062L71.3097 57.6512L71.4985 57.3718L58.402 52.55H58.3995Z" fill="black" />
        <path d="M30.2165 8.8848L28.2723 10.0127C28.2825 9.92555 28.2876 9.83839 28.2876 9.7538V9.18729C28.2876 8.17987 27.5834 7.77228 26.7159 8.27471C26.3638 8.47978 26.0424 8.80278 25.7796 9.1796C25.6367 7.91327 24.6493 7.4416 23.4476 8.13885C22.1489 8.89249 21.0977 10.7228 21.0977 12.2301V13.076C21.0977 13.4656 21.1691 13.7937 21.2967 14.0578L19.6817 14.9934C19.1994 15.2728 18.8091 15.9521 18.8091 16.511C18.8091 17.0698 19.1994 17.2954 19.6817 17.016L30.2139 10.9048C30.6961 10.6254 31.0865 9.94606 31.0865 9.38723C31.0865 8.82841 30.6961 8.60283 30.2139 8.88224L30.2165 8.8848Z" fill="#F0F0F0" />
        <path d="M20.8068 2.44807L18.4136 3.83487C18.4263 3.72721 18.434 3.62211 18.434 3.51701V2.81976C18.434 1.57907 17.5691 1.07664 16.5 1.69699C16.0663 1.9482 15.6683 2.34553 15.3468 2.81207C15.1707 1.25352 13.9537 0.674184 12.4764 1.53036C10.8792 2.45832 9.58313 4.71156 9.58313 6.56747V7.60822C9.58313 8.08758 9.67242 8.4926 9.82806 8.81559L7.84051 9.96912C7.24858 10.3126 6.76636 11.1483 6.76636 11.8353C6.76636 12.5223 7.24602 12.8017 7.84051 12.4582L20.8068 4.93714C21.3988 4.59364 21.881 3.75797 21.881 3.07098C21.881 2.38398 21.4013 2.10457 20.8068 2.44807Z" fill="#F0F0F0" />
        <path d="M96.5355 24.9446L105.562 19.1359L109.538 20.4202L96.5355 24.9446Z" fill="#279FFE" />
        <path d="M96.5355 24.9446L104.338 18.4079L102.603 16.3982L96.5355 24.9446Z" fill="#279FFE" />
        <path d="M104.338 18.4079V19.9254L96.5355 24.9446L104.338 18.4079Z" fill="#279FFE" />
        <path opacity="0.25" d="M104.338 18.4079V19.9254L96.5355 24.9446L104.338 18.4079Z" fill="black" />
        <path d="M105.636 18.2823C105.585 18.2823 105.534 18.2618 105.496 18.2208C105.425 18.1439 105.43 18.0208 105.506 17.949C105.774 17.7004 106.022 17.4287 106.244 17.1416C106.307 17.057 106.427 17.0416 106.512 17.1082C106.596 17.1723 106.611 17.2928 106.545 17.3774C106.31 17.6799 106.05 17.9695 105.764 18.2336C105.728 18.2669 105.68 18.2848 105.634 18.2848L105.636 18.2823ZM107.073 16.3674C107.045 16.3674 107.014 16.3597 106.989 16.3469C106.894 16.2982 106.856 16.1828 106.902 16.088C107.124 15.6445 107.292 15.1729 107.407 14.6884C107.43 14.5858 107.535 14.5217 107.637 14.5448C107.739 14.5705 107.803 14.673 107.78 14.7755C107.66 15.2908 107.479 15.7906 107.244 16.2597C107.211 16.3264 107.142 16.3648 107.073 16.3648V16.3674ZM107.769 13.6579C107.769 13.6579 107.764 13.6579 107.762 13.6579C107.657 13.6528 107.575 13.563 107.578 13.4579C107.583 13.3554 107.586 13.2503 107.586 13.1478C107.586 12.7556 107.552 12.3582 107.486 11.966C107.468 11.8609 107.54 11.761 107.642 11.7456C107.744 11.7276 107.843 11.7994 107.861 11.9019C107.93 12.3146 107.966 12.735 107.966 13.1478C107.966 13.258 107.966 13.3656 107.958 13.4759C107.953 13.5784 107.869 13.6604 107.767 13.6604L107.769 13.6579ZM107.359 10.8868C107.279 10.8868 107.206 10.8381 107.177 10.7587C107.017 10.2947 106.81 9.83326 106.56 9.39236C106.509 9.30007 106.54 9.18216 106.631 9.13089C106.723 9.07706 106.841 9.11038 106.892 9.20266C107.152 9.66408 107.371 10.146 107.54 10.633C107.575 10.733 107.522 10.8432 107.422 10.8766C107.402 10.8843 107.382 10.8868 107.359 10.8868ZM106.019 8.42339C105.963 8.42339 105.904 8.39775 105.869 8.34905C105.57 7.95941 105.231 7.58258 104.863 7.2314C104.787 7.15706 104.784 7.03658 104.856 6.95968C104.927 6.88277 105.05 6.88021 105.126 6.95199C105.509 7.31855 105.861 7.70819 106.172 8.11321C106.236 8.1978 106.221 8.31829 106.136 8.38237C106.101 8.41057 106.06 8.42339 106.019 8.42339ZM104.021 6.45468C103.981 6.45468 103.94 6.44187 103.907 6.41623C103.516 6.11888 103.093 5.83946 102.651 5.58312C102.559 5.52929 102.529 5.41137 102.582 5.32165C102.636 5.22937 102.751 5.19861 102.843 5.25244C103.299 5.51647 103.736 5.80614 104.139 6.11375C104.223 6.17783 104.241 6.29831 104.177 6.38291C104.139 6.43161 104.083 6.45981 104.024 6.45981L104.021 6.45468ZM83.9697 5.71129C83.9034 5.71129 83.8396 5.67797 83.8039 5.61388C83.7503 5.5216 83.7835 5.40368 83.8728 5.35241C84.3167 5.09607 84.776 4.85255 85.2429 4.6321C85.3398 4.58595 85.4521 4.62697 85.498 4.72438C85.544 4.81923 85.5031 4.93458 85.4062 4.98072C84.9495 5.19605 84.4979 5.43444 84.0641 5.68566C84.0335 5.7036 84.0003 5.71129 83.9697 5.71129ZM101.618 5.00892C101.59 5.00892 101.562 5.00379 101.534 4.99097C101.08 4.77052 100.613 4.56801 100.143 4.38601C100.044 4.34756 99.9952 4.23733 100.033 4.13736C100.072 4.03738 100.181 3.98868 100.281 4.02713C100.761 4.2117 101.238 4.41933 101.7 4.64491C101.794 4.69105 101.835 4.80641 101.789 4.90125C101.756 4.97047 101.687 5.00892 101.615 5.00892H101.618ZM86.4956 4.49111C86.4191 4.49111 86.3476 4.44497 86.317 4.36806C86.2788 4.26809 86.3272 4.15786 86.4242 4.11941C86.9013 3.93228 87.3937 3.76054 87.8862 3.61186C87.9857 3.5811 88.0928 3.64005 88.1234 3.74003C88.1541 3.84256 88.0979 3.95023 87.9959 3.97843C87.5137 4.12454 87.0314 4.29116 86.5645 4.47573C86.5416 4.48598 86.5186 4.48854 86.4956 4.48854V4.49111ZM99.0078 3.98099C98.9899 3.98099 98.9695 3.97843 98.9517 3.9733C98.472 3.82718 97.9796 3.69645 97.4871 3.58879C97.3851 3.56572 97.3188 3.46318 97.3417 3.36064C97.3647 3.25554 97.4667 3.19146 97.5688 3.21453C98.0714 3.32475 98.574 3.45549 99.0639 3.60673C99.166 3.63749 99.2221 3.74515 99.1915 3.84769C99.166 3.92972 99.0894 3.98355 99.0078 3.98355V3.98099ZM89.1746 3.66056C89.0879 3.66056 89.0088 3.6016 88.9884 3.51188C88.9654 3.40935 89.0292 3.30425 89.1312 3.28118C89.6313 3.16582 90.1416 3.06841 90.6493 2.99407C90.7514 2.97869 90.8509 3.05047 90.8662 3.15557C90.8815 3.26067 90.8101 3.35808 90.7055 3.37346C90.2079 3.4478 89.7053 3.54264 89.2154 3.65544C89.2001 3.658 89.1874 3.66056 89.1721 3.66056H89.1746ZM96.2727 3.36577C96.2727 3.36577 96.2548 3.36577 96.2446 3.36577C95.7471 3.29143 95.2419 3.24016 94.7367 3.20684C94.6321 3.19915 94.5505 3.10943 94.5581 3.00176C94.5658 2.89666 94.6551 2.81464 94.7622 2.82233C95.2751 2.85565 95.793 2.90948 96.2982 2.98382C96.4028 2.9992 96.4742 3.09661 96.4589 3.20171C96.4462 3.29656 96.362 3.36577 96.2701 3.36577H96.2727ZM91.9455 3.22991C91.846 3.22991 91.7643 3.15301 91.7541 3.05303C91.7465 2.94793 91.823 2.85565 91.9302 2.8454C92.443 2.80438 92.9609 2.78131 93.4738 2.78131C93.5784 2.78131 93.6651 2.8659 93.6651 2.97357C93.6651 3.07867 93.5809 3.16582 93.4738 3.16582C92.9711 3.16582 92.4634 3.18889 91.9608 3.22991C91.9557 3.22991 91.9506 3.22991 91.9455 3.22991Z" fill="#E0E0E0" />
    </g>
    <defs>
        <clipPath id="clip0_900_1795">
            <rect width="114" height="105" fill="white" />
        </clipPath>
    </defs>
</svg>
    