<svg width="28" height="28" viewBox="0 0 28 28" fill="none" xmlns="http://www.w3.org/2000/svg">
    <rect width="28" height="28" rx="5" fill="white" />
    <path fill-rule="evenodd" clip-rule="evenodd" d="M18.0674 6.58826C19.1718 6.58826 20.2341 7.02473 21.0156 7.8079C21.798 8.58943 22.2353 9.64355 22.2353 10.7471V17.253C22.2353 19.5506 20.3659 21.4118 18.0674 21.4118H9.93177C7.6333 21.4118 5.76471 19.5506 5.76471 17.253V10.7471C5.76471 8.44943 7.62506 6.58826 9.93177 6.58826H18.0674ZM19.3777 11.9741L19.4435 11.9083C19.6404 11.6694 19.6404 11.3236 19.4345 11.0847C19.32 10.962 19.1627 10.8871 18.9988 10.8706C18.8259 10.8616 18.6612 10.92 18.5368 11.0353L14.8235 14C14.3459 14.3961 13.6615 14.3961 13.1765 14L9.47059 11.0353C9.21447 10.8459 8.86036 10.8706 8.64706 11.093C8.42471 11.3153 8.4 11.6694 8.58859 11.9165L8.69647 12.0236L12.4435 14.9471C12.9047 15.3094 13.4639 15.5071 14.0494 15.5071C14.6333 15.5071 15.2024 15.3094 15.6627 14.9471L19.3777 11.9741Z" fill="#279FFE" />
</svg>
    