<svg width="28" height="28" viewBox="0 0 28 28" fill="none" xmlns="http://www.w3.org/2000/svg">
    <rect width="28" height="28" rx="5" fill="white" />
    <path fill-rule="evenodd" clip-rule="evenodd" d="M11.3381 6.04895C10.6878 6.27852 10.4994 7.08552 10.9833 7.56935C11.2284 7.81443 11.302 7.83182 12.0949 7.83182C12.8878 7.83182 12.9614 7.81443 13.2065 7.56935C13.396 7.37982 13.4677 7.2019 13.4677 6.92091C13.4677 6.63992 13.396 6.462 13.2065 6.27247C12.9669 6.03289 12.8811 6.01112 12.1412 6.0022C11.5865 5.9955 11.4704 6.00226 11.3381 6.04895ZM7.23965 6.98458C7.16909 7.02185 7.10005 7.09287 7.0621 7.16726C7.00043 7.28818 7 7.337 7 14.3625C7 21.3909 7.0004 21.4369 7.06216 21.5579C7.10218 21.6364 7.16776 21.702 7.24622 21.742C7.3668 21.8035 7.4184 21.8042 12.1258 21.8042C16.8331 21.8042 16.8847 21.8035 17.0053 21.742C17.0838 21.702 17.1494 21.6364 17.1894 21.5579C17.2511 21.4369 17.2515 21.3909 17.2515 14.3625C17.2515 7.33415 17.2511 7.28821 17.1894 7.16713C17.1494 7.08867 17.0838 7.02309 17.0053 6.98307C16.8892 6.92385 16.8253 6.92091 15.6471 6.92091H14.4108L14.4102 7.00583C14.4099 7.05255 14.3893 7.18801 14.3643 7.30689C14.2184 8.00189 13.639 8.58123 12.944 8.72716C12.6454 8.78984 11.5444 8.78984 11.2457 8.72716C10.5507 8.58123 9.9714 8.00189 9.82547 7.30689C9.80052 7.18801 9.77987 7.05255 9.77956 7.00583L9.77903 6.92091L8.56706 6.92227C7.42146 6.92357 7.34877 6.92696 7.23965 6.98458ZM19.2928 7.91154C18.7627 8.01563 18.3121 8.4755 18.2094 9.01726C18.1921 9.10866 18.1779 9.51505 18.1779 9.92029V10.6572H19.5674H20.9569V9.92029C20.9569 9.51505 20.9427 9.10866 20.9254 9.01726C20.7824 8.26328 20.045 7.76382 19.2928 7.91154ZM13.6595 10.4531C14.4548 10.8504 15.1383 11.2067 15.1784 11.2449C15.3385 11.3975 15.3371 11.3776 15.3371 13.4362C15.3371 15.4948 15.3385 15.4749 15.1784 15.6275C15.1383 15.6657 14.4548 16.022 13.6595 16.4193C12.5255 16.9858 12.188 17.1416 12.0949 17.1416C12.0018 17.1416 11.6643 16.9858 10.5302 16.4193C9.73494 16.022 9.05148 15.6657 9.0114 15.6275C8.85124 15.4749 8.85269 15.4948 8.85269 13.4362C8.85269 11.3776 8.85124 11.3975 9.0114 11.2449C9.05148 11.2067 9.73494 10.8504 10.5302 10.4531C11.6643 9.8866 12.0018 9.73082 12.0949 9.73082C12.188 9.73082 12.5255 9.8866 13.6595 10.4531ZM18.1779 15.1154V18.6473L18.6411 19.5789L19.1042 20.5105V20.9733C19.1042 21.5177 19.142 21.6357 19.3504 21.742C19.5048 21.8208 19.63 21.8208 19.7843 21.742C19.9928 21.6357 20.0306 21.5177 20.0306 20.9733V20.5105L20.4937 19.5789L20.9569 18.6473V15.5786V12.5099H21.2361C21.58 12.5099 21.727 12.5717 21.8211 12.7561C21.8808 12.8732 21.8833 12.9356 21.8833 14.3625C21.8833 15.7895 21.8857 15.8519 21.9454 15.969C22.0153 16.106 22.1932 16.2152 22.3464 16.2152C22.4996 16.2152 22.6775 16.106 22.7474 15.969C22.8072 15.8519 22.8096 15.7895 22.8096 14.368C22.8096 13.491 22.7968 12.8212 22.7781 12.7226C22.6729 12.1681 22.225 11.7202 21.6705 11.615C21.5703 11.596 20.8433 11.5835 19.8411 11.5835H18.1779V15.1154ZM15.0909 18.1301C15.2279 18.2 15.3371 18.3779 15.3371 18.5311C15.3371 18.6843 15.2279 18.8622 15.0909 18.9321C14.9713 18.9931 14.9145 18.9943 12.0949 18.9943C9.27529 18.9943 9.21844 18.9931 9.09891 18.9321C8.9619 18.8622 8.85269 18.6843 8.85269 18.5311C8.85269 18.3826 8.96197 18.2004 9.09233 18.1316C9.20482 18.0722 9.28137 18.0706 12.0884 18.0693C14.9159 18.0679 14.9713 18.0691 15.0909 18.1301Z" fill="#279FFE" />
    <path d="M13.8148 12.8718C13.8893 12.3495 13.51 12.0687 12.9913 11.8813L13.1596 11.1737L12.7487 11.0664L12.585 11.7554C12.477 11.7271 12.366 11.7005 12.2558 11.6741L12.4208 10.9806L12.0102 10.8733L11.8419 11.5807C11.7525 11.5593 11.6647 11.5382 11.5796 11.516L11.58 11.5138L11.0135 11.3655L10.9042 11.8255C10.9042 11.8255 11.209 11.8988 11.2026 11.9033C11.369 11.9468 11.3991 12.0623 11.3941 12.1538L11.2024 12.9599C11.2139 12.963 11.2287 12.9674 11.2451 12.9743C11.2314 12.9707 11.2168 12.9668 11.2017 12.963L10.933 14.0923C10.9127 14.1453 10.8611 14.2248 10.7448 14.1946C10.7489 14.2009 10.4462 14.1165 10.4462 14.1165L10.2422 14.6096L10.7769 14.7493C10.8763 14.7755 10.9738 14.8028 11.0697 14.8285L10.8997 15.5443L11.3101 15.6516L11.4784 14.9435C11.5905 14.9754 11.6993 15.0048 11.8058 15.0326L11.638 15.7373L12.0489 15.8447L12.2188 15.1303C12.9194 15.2693 13.4461 15.2133 13.6678 14.5489C13.8465 14.014 13.6589 13.7055 13.2904 13.5043C13.5588 13.4394 13.761 13.2543 13.8149 12.8719L13.8148 12.8718L13.8148 12.8718ZM12.8761 14.2519C12.7492 14.7867 11.8903 14.4976 11.6118 14.4251L11.8374 13.4769C12.1158 13.5498 13.0088 13.694 12.8762 14.2519H12.8761ZM13.0032 12.8641C12.8874 13.3506 12.1725 13.1034 11.9406 13.0428L12.1451 12.1829C12.377 12.2435 13.1238 12.3566 13.0032 12.8641H13.0032Z" fill="#279FFE" />
</svg>
    