<svg width="650" height="569" viewBox="0 0 650 569" fill="none" xmlns="http://www.w3.org/2000/svg">
    <path d="M165.129 558.41C85.491 531.577 16.4227 464.859 2.30096 382.006C-11.8208 299.153 40.3869 205.816 122.464 187.842C161.278 179.368 203.172 186.943 240.274 172.692C310.198 145.816 333.991 54.8325 398.609 16.8727C460.873 -19.6749 546.203 6.68726 592.591 62.0222C638.979 117.357 652.501 193.705 649.634 265.858C645.44 371.863 600.422 486.171 504.308 530.978C423.258 568.681 251.999 579.38 165.129 558.41Z" fill="white" />
    <g opacity="0.43">
        <path d="M124.351 392.152C110.157 356.339 125.164 311.339 157.991 291.183C177.844 278.996 201.824 275.714 223.177 266.402C256.036 252.089 280.922 224.402 310.342 203.933C332.196 188.746 357.082 177.371 383.438 173.527C409.794 169.683 437.65 173.683 460.598 187.214C484.953 201.558 502.586 226.027 510.996 252.996C519.406 279.964 518.968 309.246 512.309 336.714C509.777 347.214 506.244 357.652 500.085 366.527C493.926 375.402 484.828 382.621 474.229 384.714" fill="#EDE6F5" />
    </g>
    <path d="M494.582 380.464C494.582 380.464 126.477 388.839 124.32 389.996C124.32 389.996 155.084 439.464 248.501 436.902C341.919 434.308 498.584 429.839 494.582 380.464Z" fill="#EDE6F5" />
    <path d="M296.179 214.277C285.799 218.027 289.457 206.214 289.082 201.183C288.707 196.152 288.988 190.902 286.925 186.308C285.268 182.652 282.141 179.402 282.11 175.402C282.11 172.339 283.955 169.621 284.705 166.683C285.768 162.621 284.768 158.277 285.456 154.121C286.769 146.152 295.022 140.027 303.026 141.089C307.028 141.621 310.905 143.683 314.875 143.121C319.283 142.527 322.566 138.933 326.412 136.683C331.758 133.527 338.699 133.027 344.232 135.871C349.766 138.683 353.487 144.933 352.83 151.121C352.173 157.277 346.796 162.777 340.606 163.121C336.979 163.308 333.509 161.933 329.976 161.058C326.474 160.152 322.472 159.839 319.471 161.871C315.688 164.433 314.062 170.371 309.529 170.777C307.122 170.996 304.964 169.464 302.776 168.496C300.556 167.527 297.492 167.339 296.242 169.402C295.21 171.121 296.054 173.277 296.304 175.246C296.711 178.871 295.867 182.496 292.584 184.089C291.271 194.089 294.272 203.683 297.273 213.308" fill="#552E3B" />
    <path d="M210.734 387.996L182.752 231.433H272.793L306.152 385.058L210.734 387.996Z" fill="#B8ABD6" />
    <path d="M217.675 387.777L188.161 231.433H278.233L311.561 385.058L217.675 387.777Z" fill="#DDD2F3" />
    <path opacity="0.44" d="M279.203 231.433C279.203 231.433 248.063 245.152 239.341 259.902C231.806 272.652 195.758 347.558 209.139 358.058C222.489 368.558 311.217 365.214 311.217 365.214L316.97 341.371L247.282 329.433L290.02 291.902L279.203 231.433Z" fill="#B8ABD6" />
    <path d="M357.176 269.433C356.676 267.902 353.236 234.777 318.283 235.589C285.518 236.371 267.291 238.246 255.88 263.714L268.041 311.839L270.574 386.308L365.023 383.277L357.176 269.433Z" fill="#6338A1" />
    <path d="M270.042 245.308C270.042 245.308 256.661 252.402 247.97 267.152C240.435 279.902 204.387 354.808 217.768 365.308C231.118 375.808 319.846 372.464 319.846 372.464L325.599 348.621L255.911 336.683L268.073 311.871L270.042 245.308Z" fill="#6338A1" />
    <path d="M339.918 241.152C339.918 241.152 373.277 263.527 408.105 321.714L394.036 356.152L357.332 309.589L339.918 241.152Z" fill="#6338A1" />
    <path d="M304.277 390.527H380.718L384.501 383.996L304.277 386.308V390.527Z" fill="#B8ABD6" />
    <path d="M323.973 357.121H355.3C355.3 357.121 374.465 374.183 371.151 375.027C367.837 375.871 356.144 364.308 356.144 364.308L365.054 384.121C365.054 384.121 351.361 382.246 346.89 378.527C342.45 374.808 338.292 371.902 338.292 371.902L320.471 373.558L323.973 357.121Z" fill="#F9C8C7" />
    <path d="M269.542 245.964C269.542 245.933 269.823 245.902 270.355 245.839C270.636 245.808 270.98 245.777 271.387 245.777C271.793 245.777 272.262 245.777 272.762 245.871C274.826 246.089 277.858 247.183 280.61 249.746C281.985 251.027 283.267 252.683 284.299 254.621C285.362 256.558 286.018 258.902 286.331 261.339C286.987 266.277 286.081 271.777 284.486 277.214C281.297 288.152 276.889 297.527 273.231 303.996C271.418 307.246 269.792 309.808 268.635 311.527C268.073 312.402 267.604 313.058 267.291 313.496C266.978 313.933 266.791 314.183 266.791 314.152C266.759 314.152 266.916 313.902 267.197 313.433C267.51 312.933 267.948 312.246 268.479 311.402C269.573 309.652 271.136 307.058 272.919 303.808C276.451 297.308 280.797 287.933 283.986 277.058C285.549 271.652 286.456 266.246 285.862 261.402C285.362 256.527 283.017 252.527 280.391 249.996C277.733 247.433 274.794 246.339 272.793 246.027C270.699 245.777 269.542 246.027 269.542 245.964Z" fill="#452775" />
    <path d="M352.517 265.589C352.549 265.589 352.58 265.808 352.674 266.246C352.767 266.746 352.861 267.371 352.986 268.152C353.268 269.871 353.643 272.277 354.112 275.183C355.05 281.183 356.363 289.339 357.801 298.371C359.177 307.433 360.365 315.652 361.021 321.652C361.365 324.652 361.584 327.058 361.678 328.746C361.709 329.527 361.74 330.183 361.772 330.683C361.803 331.121 361.803 331.371 361.772 331.371C361.74 331.371 361.709 331.152 361.678 330.714C361.615 330.214 361.553 329.589 361.49 328.777C361.303 327.121 361.021 324.683 360.646 321.714C359.896 315.746 358.676 307.558 357.27 298.496C355.863 289.433 354.612 281.246 353.768 275.277C353.33 272.308 353.018 269.902 352.83 268.214C352.736 267.433 352.674 266.777 352.611 266.277C352.517 265.839 352.517 265.589 352.517 265.589Z" fill="#452775" />
    <path opacity="0.14" d="M262.32 405.902C262.32 407.589 254.504 408.933 244.874 408.933C235.245 408.933 227.429 407.558 227.429 405.902C227.429 404.214 235.245 402.871 244.874 402.871C254.504 402.871 262.32 404.214 262.32 405.902Z" fill="#B8ABD6" />
    <path d="M251.159 373.808C251.159 373.808 236.089 368.089 222.02 373.808V377.058C222.02 377.058 216.924 376.652 216.924 381.527C216.924 386.402 218.55 392.933 225.084 395.589L227.929 404.558C227.929 404.558 240.154 407.621 246.469 404.558C246.469 404.558 247.907 399.871 249.126 394.996C250.002 391.464 251.159 373.808 251.159 373.808ZM219.425 383.339C219.081 379.214 222.458 380.558 222.458 380.558L224.24 392.183C224.24 392.183 220.051 390.964 219.425 383.339Z" fill="#FAC28C" />
    <path d="M249.126 374.152C249.126 374.152 235.902 370.964 224.24 374.277C224.24 374.246 236.214 384.246 249.126 374.152Z" fill="#DB9D6A" />
    <path d="M250.471 387.652C250.471 387.683 250.127 387.839 249.502 388.121C248.876 388.402 247.907 388.746 246.719 389.089C244.343 389.808 240.966 390.527 237.152 390.652C233.338 390.777 229.93 390.308 227.492 389.714C226.272 389.433 225.303 389.152 224.678 388.902C224.021 388.683 223.677 388.527 223.677 388.496C223.709 388.402 225.178 388.871 227.585 389.308C229.993 389.777 233.401 390.183 237.152 390.058C240.904 389.933 244.249 389.308 246.625 388.683C249.001 388.121 250.44 387.558 250.471 387.652Z" fill="#B28560" />
    <path d="M249.814 384.808C249.846 384.839 249.502 385.027 248.876 385.339C248.282 385.652 247.344 386.058 246.188 386.464C243.874 387.308 240.529 388.121 236.746 388.277C232.963 388.433 229.555 387.871 227.179 387.214C225.991 386.902 225.053 386.558 224.396 386.308C223.771 386.058 223.427 385.871 223.427 385.839C223.458 385.746 224.897 386.277 227.273 386.839C229.649 387.402 232.994 387.871 236.715 387.746C240.435 387.589 243.749 386.839 246.063 386.089C248.376 385.371 249.752 384.714 249.814 384.808Z" fill="#B28560" />
    <g opacity="0.07">
        <path d="M224.74 374.246C223.584 372.964 224.209 370.808 225.491 369.652C226.741 368.464 228.461 367.964 230.024 367.214C231.587 366.464 233.119 365.277 233.432 363.589C233.995 360.339 229.711 357.464 230.806 354.339C231.837 351.402 236.433 351.621 238.184 349.058C240.122 346.277 237.496 342.246 238.684 339.058C239.497 336.871 242.123 335.683 244.437 336.027C246.75 336.371 248.751 337.964 250.064 339.902C251.377 341.839 252.128 344.089 252.816 346.339C253.722 349.246 254.504 352.589 253.003 355.246C252.253 356.589 250.877 357.996 251.471 359.433C251.815 360.308 252.784 360.746 253.441 361.402C255.098 363.027 254.91 365.746 254.16 367.933C252.065 373.871 246.375 378.371 240.122 379.058C233.869 379.746 227.335 376.558 224.021 371.214" fill="#F9FAFD" />
    </g>
    <path d="M345.545 271.027C345.671 271.121 344.764 272.621 343.482 274.402C342.231 276.183 341.106 277.558 340.981 277.464C340.856 277.371 341.762 275.871 343.044 274.089C344.295 272.308 345.42 270.933 345.545 271.027Z" fill="#A869C5" />
    <path d="M296.273 236.746C296.273 236.746 315.532 286.621 328.975 303.496C328.975 303.496 334.634 254.308 328.975 236.527C328.944 236.527 303.151 233.433 296.273 236.746Z" fill="#F9FAFD" />
    <path d="M293.053 155.621L291.771 185.214C291.771 185.214 282.673 185.089 282.673 193.433C282.673 203.933 292.521 202.152 292.521 202.152C292.521 202.152 290.489 222.152 317.939 223.808C350.079 225.746 343.232 175.558 341.981 151.996L293.053 155.621Z" fill="#F9C8C7" />
    <path d="M328.944 200.777L327.35 236.871C326.912 246.996 316.188 253.277 307.122 248.746C306.997 248.683 306.903 248.621 306.778 248.558C301.901 246.121 298.899 241.058 299.056 235.621C299.431 222.933 299.587 201.089 299.587 201.089L328.944 200.777Z" fill="#F9C8C7" />
    <path d="M328.944 303.496C328.944 303.496 328.694 303.308 328.288 302.964C327.881 302.589 327.287 302.027 326.506 301.308C324.974 299.871 322.816 297.714 320.19 295.027C317.564 292.339 314.469 289.121 310.873 285.683C309.091 283.964 307.122 282.214 305.371 280.121C303.62 278.027 302.088 275.496 301.588 272.589C301.181 270.277 301.432 267.839 302.526 265.902L302.932 266.246C301.901 267.152 300.4 267.246 299.212 266.839C298.024 266.464 296.961 265.683 296.273 264.683C294.929 262.652 294.804 260.277 294.647 258.214C294.428 254.027 294.21 250.308 294.053 247.183C293.897 244.121 293.803 241.621 293.709 239.839C293.678 239.027 293.647 238.371 293.647 237.871C293.647 237.433 293.647 237.183 293.647 237.183C293.678 237.183 293.709 237.402 293.741 237.871C293.772 238.371 293.834 239.027 293.897 239.839C294.022 241.621 294.21 244.089 294.397 247.152C294.585 250.277 294.835 254.027 295.116 258.183C295.273 260.246 295.429 262.527 296.679 264.402C297.305 265.308 298.243 265.996 299.337 266.339C300.4 266.683 301.682 266.589 302.526 265.839L303.714 264.808L302.932 266.183C301.901 267.996 301.65 270.308 302.057 272.496C302.557 275.277 304.027 277.714 305.715 279.777C307.434 281.839 309.373 283.589 311.155 285.339C314.719 288.808 317.814 292.058 320.409 294.777C323.004 297.496 325.13 299.683 326.599 301.183C327.318 301.902 327.881 302.464 328.288 302.902C328.757 303.277 328.975 303.464 328.944 303.496Z" fill="#452775" />
    <path d="M328.944 236.527C328.944 236.527 329.1 236.621 329.351 236.839C329.601 237.058 330.007 237.402 330.476 237.871C331.414 238.808 332.758 240.246 334.134 242.246C334.822 243.246 335.51 244.402 336.166 245.683C336.823 246.964 337.511 248.402 337.854 250.027C338.23 251.652 338.323 253.433 338.011 255.277C337.729 257.089 336.885 258.964 335.478 260.402V260.027C336.416 261.089 337.042 262.464 337.354 263.902C337.636 265.371 337.636 266.871 337.511 268.371C337.292 270.871 336.76 273.214 336.354 275.527C335.916 277.808 335.478 280.027 335.041 282.121C334.165 286.308 333.259 290.089 332.477 293.214C331.695 296.371 330.976 298.902 330.476 300.621C330.226 301.433 330.038 302.121 329.882 302.621C329.726 303.089 329.663 303.308 329.632 303.308C329.601 303.308 329.663 303.058 329.788 302.589C329.913 302.058 330.07 301.402 330.288 300.558C330.726 298.808 331.383 296.246 332.133 293.121C332.883 289.964 333.728 286.214 334.603 281.996C335.041 279.902 335.447 277.683 335.885 275.402C336.291 273.121 336.791 270.746 337.01 268.308C337.135 266.839 337.135 265.371 336.854 263.996C336.573 262.621 336.01 261.339 335.134 260.339L334.978 260.152L335.134 259.964C336.448 258.589 337.26 256.871 337.542 255.121C337.854 253.371 337.761 251.652 337.417 250.058C337.104 248.464 336.448 247.058 335.822 245.777C335.197 244.496 334.509 243.339 333.884 242.339C332.571 240.308 331.289 238.871 330.382 237.902C329.945 237.464 329.601 237.089 329.319 236.808C329.069 236.683 328.944 236.527 328.944 236.527Z" fill="#452775" />
    <path d="M332.164 357.121C332.008 357.121 331.07 345.183 330.07 330.433C329.069 315.683 328.35 303.714 328.506 303.683C328.663 303.683 329.601 315.621 330.601 330.371C331.602 345.152 332.321 357.121 332.164 357.121Z" fill="#452775" />
    <path d="M336.979 317.964C336.979 317.933 337.229 317.839 337.698 317.902C338.167 317.964 338.886 318.152 339.48 318.808C340.074 319.433 340.418 320.589 340.012 321.714C339.668 322.871 338.386 323.777 336.979 323.652C335.541 323.558 334.54 322.433 334.228 321.339C333.884 320.214 334.134 319.089 334.697 318.402C335.259 317.714 336.01 317.496 336.479 317.464C336.948 317.464 337.198 317.589 337.198 317.621C337.198 317.652 336.948 317.621 336.51 317.683C336.104 317.746 335.447 317.996 335.009 318.621C334.572 319.214 334.384 320.214 334.728 321.152C335.041 322.089 335.916 323.027 337.042 323.089C338.167 323.183 339.23 322.464 339.543 321.527C339.887 320.589 339.668 319.621 339.168 319.027C338.667 318.433 338.073 318.183 337.636 318.058C337.229 317.996 336.979 318.027 336.979 317.964Z" fill="#452775" />
    <path d="M338.667 339.183C338.667 339.152 338.917 339.058 339.386 339.121C339.855 339.183 340.574 339.371 341.168 340.027C341.762 340.652 342.106 341.808 341.7 342.933C341.356 344.089 340.074 344.996 338.667 344.871C337.229 344.777 336.229 343.652 335.885 342.558C335.541 341.433 335.791 340.308 336.354 339.621C336.916 338.933 337.667 338.714 338.136 338.683C338.636 338.683 338.855 338.808 338.855 338.839C338.855 338.871 338.605 338.839 338.167 338.902C337.761 338.964 337.104 339.214 336.666 339.839C336.229 340.433 336.041 341.433 336.354 342.371C336.666 343.308 337.542 344.246 338.667 344.308C339.793 344.402 340.856 343.683 341.168 342.746C341.512 341.808 341.294 340.839 340.793 340.246C340.293 339.652 339.699 339.402 339.261 339.277C338.917 339.214 338.667 339.246 338.667 339.183Z" fill="#452775" />
    <path d="M336.51 319.683C336.573 319.808 336.573 319.964 336.51 320.058C336.448 320.152 336.322 320.214 336.166 320.214C336.01 320.183 335.916 319.964 336.072 319.777C336.197 319.558 336.416 319.558 336.51 319.683Z" fill="#452775" />
    <path d="M338.011 320.871C338.136 320.964 338.167 321.121 338.105 321.246C338.011 321.371 337.854 321.402 337.729 321.339C337.604 321.246 337.573 321.089 337.636 320.964C337.729 320.808 337.886 320.777 338.011 320.871Z" fill="#452775" />
    <path d="M338.011 340.777C338.136 340.871 338.105 341.089 337.979 341.246C337.854 341.402 337.636 341.464 337.542 341.371C337.417 341.277 337.448 341.058 337.573 340.902C337.698 340.746 337.917 340.683 338.011 340.777Z" fill="#452775" />
    <path d="M339.73 342.433C339.824 342.558 339.762 342.777 339.605 342.933C339.418 343.089 339.199 343.152 339.105 343.027C339.011 342.902 339.074 342.683 339.23 342.527C339.386 342.371 339.637 342.308 339.73 342.433Z" fill="#452775" />
    <path d="M324.974 349.746C325.13 349.777 324.036 355.933 322.566 363.527C321.097 371.121 319.784 377.246 319.627 377.214C319.471 377.183 320.565 371.027 322.035 363.433C323.504 355.839 324.817 349.714 324.974 349.746Z" fill="#452775" />
    <path d="M313.374 348.089C313.531 348.121 312.343 354.183 310.748 361.621C309.154 369.058 307.747 375.058 307.591 375.027C307.434 374.996 308.622 368.933 310.217 361.496C311.811 354.058 313.218 348.058 313.374 348.089Z" fill="#452775" />
    <path d="M325.849 349.933C325.818 350.089 313.249 347.777 297.774 344.808C282.298 341.839 269.761 339.277 269.792 339.152C269.823 338.996 282.392 341.308 297.867 344.277C313.374 347.246 325.88 349.777 325.849 349.933Z" fill="#452775" />
    <path d="M319.596 376.777C319.596 376.933 308.622 376.183 295.147 375.121C281.641 374.058 270.73 373.058 270.73 372.902C270.73 372.746 281.704 373.496 295.179 374.589C308.685 375.621 319.627 376.621 319.596 376.777Z" fill="#452775" />
    <path d="M333.884 384.308C333.759 384.339 333.04 381.746 332.79 378.433C332.539 375.121 332.821 372.464 332.977 372.464C333.134 372.464 333.102 375.121 333.352 378.402C333.571 381.652 334.04 384.277 333.884 384.308Z" fill="#452775" />
    <path d="M353.205 288.402C353.205 288.558 349.922 288.933 345.827 289.246C341.731 289.558 338.417 289.714 338.417 289.558C338.417 289.402 341.7 289.027 345.796 288.714C349.891 288.402 353.205 288.246 353.205 288.402Z" fill="#452775" />
    <path d="M399.664 343.621C399.539 343.714 390.035 332.214 378.435 317.964C366.836 303.683 357.52 292.058 357.645 291.964C357.77 291.871 367.274 303.371 378.873 317.621C390.472 331.902 399.789 343.527 399.664 343.621Z" fill="#452775" />
    <path d="M277.421 340.339C277.264 340.339 276.514 331.589 275.732 320.746C274.951 309.902 274.451 301.121 274.576 301.121C274.732 301.121 275.482 309.871 276.264 320.714C277.045 331.527 277.546 340.339 277.421 340.339Z" fill="#452775" />
    <path d="M281.923 386.027C281.798 386.089 280.578 383.527 280.109 380.058C279.609 376.621 280.047 373.808 280.203 373.839C280.359 373.839 280.172 376.621 280.672 379.996C281.141 383.371 282.079 385.964 281.923 386.027Z" fill="#452775" />
    <path d="M348.453 284.433C348.328 284.527 347.515 283.746 346.64 282.714C345.764 281.652 345.139 280.746 345.233 280.621C345.358 280.527 346.171 281.308 347.046 282.339C347.922 283.402 348.578 284.339 348.453 284.433Z" fill="#A869C5" />
    <path d="M298.18 302.683C298.305 302.777 297.649 303.964 296.679 305.339C295.741 306.714 294.866 307.777 294.741 307.683C294.616 307.589 295.273 306.402 296.242 305.027C297.18 303.652 298.055 302.589 298.18 302.683Z" fill="#A869C5" />
    <path d="M285.018 313.339C284.924 313.464 283.642 312.433 282.204 311.058C280.766 309.683 279.672 308.464 279.765 308.371C279.859 308.277 281.141 309.277 282.579 310.652C284.017 312.027 285.112 313.214 285.018 313.339Z" fill="#A869C5" />
    <path d="M287.613 299.496C287.488 299.589 286.55 298.433 286.018 296.683C285.487 294.964 285.612 293.464 285.768 293.464C285.925 293.464 286.05 294.871 286.55 296.527C287.05 298.183 287.738 299.433 287.613 299.496Z" fill="#A869C5" />
    <path d="M294.616 287.683C294.553 287.808 293.24 287.339 291.896 286.308C290.52 285.277 289.707 284.152 289.801 284.058C289.926 283.964 290.896 284.871 292.209 285.871C293.522 286.871 294.678 287.527 294.616 287.683Z" fill="#A869C5" />
    <path d="M314.781 299.964C314.906 300.027 314.406 301.152 313.625 302.464C312.843 303.777 312.124 304.777 311.999 304.683C311.874 304.589 312.374 303.496 313.156 302.183C313.906 300.871 314.625 299.871 314.781 299.964Z" fill="#A869C5" />
    <path d="M306.872 295.902C306.715 295.933 306.309 294.371 306.215 292.433C306.09 290.464 306.34 288.871 306.496 288.902C306.653 288.902 306.653 290.496 306.778 292.402C306.84 294.308 307.028 295.871 306.872 295.902Z" fill="#A869C5" />
    <path d="M306.809 319.589C306.684 319.652 305.965 318.121 305.715 316.058C305.433 313.996 305.746 312.339 305.871 312.371C306.027 312.371 305.996 314.027 306.246 315.996C306.496 317.964 306.965 319.527 306.809 319.589Z" fill="#A869C5" />
    <path d="M299.024 325.589C298.93 325.683 297.68 324.683 296.554 323.121C295.429 321.527 294.866 320.027 294.991 319.996C295.147 319.933 295.867 321.277 296.992 322.808C298.118 324.339 299.149 325.496 299.024 325.589Z" fill="#A869C5" />
    <path d="M288.019 329.027C288.113 329.152 287.238 329.933 286.081 330.746C284.924 331.589 283.892 332.152 283.83 332.027C283.736 331.902 284.611 331.121 285.768 330.308C286.925 329.496 287.925 328.902 288.019 329.027Z" fill="#A869C5" />
    <path d="M281.329 323.246C281.235 323.371 280.485 322.902 279.859 321.996C279.234 321.089 279.078 320.214 279.203 320.183C279.359 320.121 279.734 320.871 280.297 321.714C280.86 322.527 281.422 323.121 281.329 323.246Z" fill="#A869C5" />
    <path d="M298.555 337.621C298.712 337.652 298.461 338.902 298.024 340.402C297.586 341.902 297.117 343.089 296.961 343.027C296.804 342.996 297.055 341.746 297.492 340.246C297.961 338.746 298.43 337.558 298.555 337.621Z" fill="#A869C5" />
    <path d="M309.279 340.621C309.185 340.714 308.091 339.714 307.278 338.121C306.465 336.527 306.278 335.058 306.434 335.027C306.59 334.996 306.997 336.339 307.778 337.871C308.56 339.402 309.404 340.527 309.279 340.621Z" fill="#A869C5" />
    <path d="M322.723 340.839C322.629 340.964 321.347 340.246 319.846 339.277C318.346 338.277 317.189 337.371 317.283 337.246C317.376 337.121 318.658 337.839 320.159 338.808C321.66 339.808 322.785 340.714 322.723 340.839Z" fill="#A869C5" />
    <path d="M324.192 325.277C324.286 325.402 323.285 326.371 321.972 327.496C320.628 328.589 319.502 329.402 319.377 329.308C319.283 329.183 320.284 328.214 321.597 327.089C322.91 325.964 324.098 325.152 324.192 325.277Z" fill="#A869C5" />
    <path d="M312.655 325.183C312.78 325.277 312.53 325.839 312.061 326.433C311.624 327.027 311.155 327.464 311.03 327.371C310.905 327.277 311.186 326.714 311.624 326.121C312.093 325.496 312.53 325.089 312.655 325.183Z" fill="#A869C5" />
    <path d="M321.316 316.371C321.191 316.464 320.128 315.339 318.689 314.089C317.251 312.839 315.969 311.933 316.063 311.808C316.126 311.683 317.564 312.402 319.033 313.683C320.534 314.964 321.441 316.277 321.316 316.371Z" fill="#A869C5" />
    <path d="M294.929 279.339C294.804 279.246 295.898 277.777 296.836 275.777C297.805 273.777 298.243 271.996 298.399 272.027C298.524 272.058 298.305 273.933 297.336 275.996C296.335 278.089 295.022 279.433 294.929 279.339Z" fill="#A869C5" />
    <path d="M289.833 273.621C289.676 273.652 289.27 272.027 289.113 269.933C288.957 267.871 289.176 266.183 289.301 266.183C289.457 266.183 289.489 267.839 289.645 269.902C289.801 271.964 289.989 273.621 289.833 273.621Z" fill="#A869C5" />
    <path d="M290.02 251.964C289.989 252.089 288.77 251.902 287.613 250.996C286.425 250.121 285.893 249.027 286.018 248.964C286.143 248.871 286.862 249.746 287.957 250.558C289.02 251.402 290.051 251.808 290.02 251.964Z" fill="#A869C5" />
    <path d="M286.206 241.371C286.268 241.496 285.456 242.027 284.424 242.527C283.392 243.027 282.454 243.308 282.392 243.183C282.329 243.058 283.142 242.527 284.174 242.027C285.237 241.527 286.143 241.214 286.206 241.371Z" fill="#A869C5" />
    <path d="M299.399 257.777C299.243 257.746 299.274 256.621 299.431 255.246C299.587 253.871 299.837 252.746 299.993 252.777C300.15 252.808 300.118 253.933 299.962 255.308C299.806 256.683 299.556 257.808 299.399 257.777Z" fill="#A869C5" />
    <path d="M308.06 273.246C307.966 273.371 307.372 273.058 306.684 272.558C306.027 272.058 305.558 271.558 305.652 271.433C305.746 271.308 306.34 271.621 307.028 272.121C307.684 272.621 308.153 273.121 308.06 273.246Z" fill="#A869C5" />
    <path d="M334.916 267.621C335.072 267.652 334.884 268.933 334.54 270.464C334.165 271.996 333.759 273.246 333.634 273.214C333.477 273.183 333.665 271.902 334.009 270.339C334.384 268.808 334.791 267.589 334.916 267.621Z" fill="#A869C5" />
    <path d="M335.572 253.996C335.51 254.121 334.697 253.777 334.04 252.933C333.384 252.089 333.227 251.214 333.384 251.183C333.54 251.121 333.884 251.839 334.478 252.589C335.041 253.339 335.635 253.839 335.572 253.996Z" fill="#A869C5" />
    <path d="M342.982 257.183C343.107 257.277 342.638 258.277 341.919 259.433C341.2 260.589 340.512 261.464 340.387 261.402C340.262 261.308 340.731 260.308 341.45 259.152C342.169 257.996 342.857 257.121 342.982 257.183Z" fill="#A869C5" />
    <path d="M348.734 263.996C348.578 263.996 348.547 262.589 348.641 260.871C348.734 259.152 348.953 257.777 349.11 257.777C349.266 257.777 349.297 259.183 349.203 260.902C349.11 262.621 348.891 264.027 348.734 263.996Z" fill="#A869C5" />
    <path d="M344.357 248.996C344.232 249.089 343.169 247.964 341.95 246.464C340.731 244.964 339.824 243.683 339.949 243.589C340.074 243.496 341.137 244.621 342.356 246.121C343.576 247.621 344.451 248.902 344.357 248.996Z" fill="#A869C5" />
    <path d="M271.856 271.027C271.699 270.996 271.856 269.308 272.199 267.277C272.543 265.214 272.919 263.589 273.075 263.621C273.231 263.652 273.075 265.339 272.731 267.371C272.418 269.402 272.012 271.058 271.856 271.027Z" fill="#A869C5" />
    <path d="M266.134 258.371C266.134 258.527 264.884 258.746 263.352 259.121C261.82 259.496 260.6 259.933 260.538 259.777C260.475 259.652 261.632 258.996 263.227 258.589C264.79 258.214 266.103 258.246 266.134 258.371Z" fill="#A869C5" />
    <path d="M274.138 253.371C274.044 253.464 273.137 252.746 272.137 251.746C271.136 250.746 270.417 249.839 270.511 249.746C270.605 249.652 271.512 250.371 272.512 251.371C273.544 252.371 274.263 253.277 274.138 253.371Z" fill="#A869C5" />
    <path d="M280.766 268.214C280.641 268.246 280.141 266.902 280.078 265.121C280.016 263.339 280.422 261.964 280.547 261.996C280.703 262.027 280.547 263.402 280.61 265.121C280.703 266.808 280.922 268.183 280.766 268.214Z" fill="#A869C5" />
    <path d="M272.512 288.683C272.387 288.621 272.793 287.371 273.419 285.839C274.075 284.339 274.701 283.152 274.826 283.214C274.951 283.277 274.544 284.527 273.919 286.058C273.294 287.558 272.668 288.746 272.512 288.683Z" fill="#A869C5" />
    <path d="M265.134 279.871C265.009 279.839 265.259 278.652 266.072 277.464C266.885 276.246 267.854 275.558 267.948 275.683C268.041 275.808 267.291 276.621 266.509 277.777C265.728 278.871 265.259 279.902 265.134 279.871Z" fill="#A869C5" />
    <path d="M255.317 277.652C255.192 277.589 255.692 276.121 256.474 274.339C257.255 272.558 257.974 271.183 258.131 271.246C258.256 271.308 257.755 272.808 256.974 274.558C256.192 276.339 255.442 277.714 255.317 277.652Z" fill="#A869C5" />
    <path d="M249.001 275.246C248.845 275.214 248.908 273.777 249.158 271.996C249.377 270.214 249.689 268.808 249.846 268.839C250.002 268.871 249.939 270.308 249.689 272.089C249.47 273.839 249.158 275.246 249.001 275.246Z" fill="#A869C5" />
    <path d="M244.624 291.902C244.499 291.964 243.749 290.964 242.967 289.652C242.186 288.339 241.654 287.183 241.779 287.121C241.904 287.058 242.655 288.058 243.436 289.371C244.218 290.714 244.749 291.839 244.624 291.902Z" fill="#A869C5" />
    <path d="M252.284 286.683C252.128 286.714 251.659 285.496 251.19 283.964C250.752 282.402 250.502 281.121 250.627 281.089C250.783 281.058 251.252 282.277 251.721 283.808C252.159 285.339 252.409 286.652 252.284 286.683Z" fill="#A869C5" />
    <path d="M262.32 292.714C262.383 292.871 260.913 293.589 259.194 294.621C257.474 295.652 256.161 296.621 256.067 296.496C255.973 296.402 257.161 295.214 258.912 294.152C260.694 293.089 262.257 292.589 262.32 292.714Z" fill="#A869C5" />
    <path d="M264.727 308.152C264.602 308.058 265.446 306.777 266.322 305.152C267.197 303.496 267.76 302.089 267.916 302.152C268.041 302.183 267.697 303.714 266.791 305.433C265.915 307.089 264.852 308.246 264.727 308.152Z" fill="#A869C5" />
    <path d="M257.474 310.339C257.318 310.339 257.286 308.652 257.411 306.621C257.537 304.558 257.755 302.902 257.912 302.933C258.068 302.933 258.099 304.621 257.974 306.652C257.849 308.714 257.63 310.371 257.474 310.339Z" fill="#A869C5" />
    <path d="M250.471 306.308C250.44 306.433 248.595 305.777 246.969 304.089C245.312 302.402 244.687 300.589 244.812 300.527C244.968 300.464 245.781 302.121 247.344 303.683C248.908 305.308 250.565 306.183 250.471 306.308Z" fill="#A869C5" />
    <path d="M238.278 304.933C238.121 304.902 238.278 303.496 238.622 301.777C238.966 300.058 239.341 298.683 239.497 298.714C239.653 298.746 239.497 300.152 239.153 301.871C238.809 303.589 238.434 304.964 238.278 304.933Z" fill="#A869C5" />
    <path d="M257.912 318.964C258.005 319.089 257.068 319.808 256.036 320.808C255.004 321.777 254.223 322.683 254.097 322.589C253.972 322.496 254.566 321.433 255.661 320.402C256.724 319.371 257.818 318.839 257.912 318.964Z" fill="#A869C5" />
    <path d="M243.655 323.996C243.499 323.996 243.374 322.433 243.343 320.496C243.311 318.558 243.405 316.996 243.561 316.996C243.718 316.996 243.843 318.558 243.874 320.496C243.905 322.402 243.812 323.996 243.655 323.996Z" fill="#A869C5" />
    <path d="M237.027 328.027C236.996 328.183 235.464 327.902 233.713 327.183C231.962 326.464 230.681 325.589 230.774 325.464C230.837 325.339 232.212 325.996 233.932 326.683C235.62 327.402 237.058 327.871 237.027 328.027Z" fill="#A869C5" />
    <path d="M233.244 317.558C233.088 317.589 232.775 316.214 232.556 314.496C232.338 312.777 232.244 311.371 232.4 311.339C232.556 311.308 232.869 312.683 233.088 314.402C233.338 316.152 233.401 317.558 233.244 317.558Z" fill="#A869C5" />
    <path d="M245.25 334.777C245.281 334.933 244.03 335.277 242.498 335.558C240.935 335.839 239.653 335.964 239.653 335.808C239.622 335.652 240.873 335.308 242.405 335.027C243.937 334.746 245.218 334.652 245.25 334.777Z" fill="#A869C5" />
    <path d="M226.616 339.433C226.46 339.433 226.21 338.121 226.053 336.464C225.897 334.808 225.866 333.433 226.022 333.433C226.178 333.433 226.429 334.746 226.585 336.402C226.741 338.058 226.773 339.433 226.616 339.433Z" fill="#A869C5" />
    <path d="M220.363 350.277C220.207 350.308 219.801 348.933 219.394 347.214C219.019 345.496 218.831 344.089 218.956 344.058C219.113 344.027 219.519 345.402 219.926 347.121C220.301 348.808 220.488 350.246 220.363 350.277Z" fill="#A869C5" />
    <path d="M225.584 355.683C225.647 355.808 224.584 356.496 223.208 357.246C221.833 357.964 220.645 358.433 220.582 358.308C220.52 358.183 221.583 357.496 222.958 356.746C224.334 356.027 225.522 355.527 225.584 355.683Z" fill="#A869C5" />
    <path d="M232.15 353.339C232.056 353.433 230.899 352.246 229.961 350.464C229.024 348.683 228.68 347.089 228.836 347.058C228.992 346.996 229.555 348.496 230.462 350.214C231.368 351.933 232.275 353.214 232.15 353.339Z" fill="#A869C5" />
    <path d="M240.998 349.496C240.873 349.558 240.31 348.589 239.81 347.308C239.278 346.058 238.966 344.964 239.122 344.902C239.247 344.839 239.81 345.808 240.31 347.089C240.841 348.339 241.154 349.433 240.998 349.496Z" fill="#A869C5" />
    <path d="M236.621 358.902C236.715 359.027 235.589 360.183 234.088 361.496C232.588 362.839 231.306 363.808 231.212 363.714C231.118 363.589 232.244 362.433 233.744 361.121C235.245 359.777 236.527 358.777 236.621 358.902Z" fill="#A869C5" />
    <path d="M249.345 363.027C249.252 363.121 247.782 361.839 246.406 359.902C245.031 357.964 244.28 356.183 244.406 356.121C244.531 356.058 245.5 357.683 246.844 359.589C248.189 361.496 249.439 362.933 249.345 363.027Z" fill="#A869C5" />
    <path d="M246.063 367.933C246.063 368.089 244.812 368.308 243.28 368.402C241.717 368.527 240.466 368.496 240.466 368.339C240.466 368.183 241.717 367.964 243.249 367.871C244.781 367.746 246.031 367.777 246.063 367.933Z" fill="#A869C5" />
    <path d="M254.285 347.871C254.129 347.902 253.441 345.964 252.691 343.558C251.94 341.121 251.471 339.121 251.628 339.089C251.784 339.058 252.472 340.996 253.222 343.402C253.941 345.808 254.441 347.808 254.285 347.871Z" fill="#A869C5" />
    <path d="M266.947 343.121C266.978 343.277 265.415 343.621 263.477 343.871C261.538 344.152 259.944 344.246 259.913 344.089C259.881 343.933 261.445 343.589 263.383 343.339C265.321 343.058 266.916 342.964 266.947 343.121Z" fill="#A869C5" />
    <path d="M260.319 356.277C260.35 356.433 259.319 356.746 258.099 357.277C256.911 357.808 256.005 358.402 255.88 358.277C255.786 358.152 256.599 357.339 257.849 356.777C259.131 356.214 260.288 356.152 260.319 356.277Z" fill="#A869C5" />
    <path d="M265.728 367.933C265.634 368.027 264.352 366.933 262.914 365.433C261.476 363.933 260.382 362.652 260.475 362.558C260.569 362.464 261.851 363.558 263.289 365.058C264.727 366.527 265.822 367.808 265.728 367.933Z" fill="#A869C5" />
    <path d="M271.949 358.308C271.793 358.277 272.012 356.839 272.168 355.089C272.325 353.339 272.387 351.902 272.543 351.871C272.7 351.871 272.887 353.339 272.7 355.121C272.543 356.933 272.074 358.339 271.949 358.308Z" fill="#A869C5" />
    <path d="M280.203 365.402C280.266 365.527 278.796 366.308 276.889 367.152C275.013 367.964 273.419 368.527 273.356 368.402C273.294 368.277 274.763 367.496 276.67 366.652C278.577 365.808 280.141 365.246 280.203 365.402Z" fill="#A869C5" />
    <path d="M285.018 350.839C284.893 350.902 283.892 349.371 282.767 347.371C281.673 345.371 280.86 343.714 280.985 343.621C281.11 343.558 282.11 345.121 283.236 347.089C284.361 349.058 285.143 350.777 285.018 350.839Z" fill="#A869C5" />
    <path d="M288.394 356.714C288.394 356.871 286.862 356.808 285.049 356.996C283.205 357.183 281.735 357.527 281.704 357.371C281.641 357.246 283.111 356.621 284.987 356.433C286.894 356.277 288.426 356.558 288.394 356.714Z" fill="#A869C5" />
    <path d="M300.244 353.464C300.087 353.527 299.243 352.058 297.899 350.402C296.586 348.746 295.335 347.558 295.429 347.433C295.523 347.308 296.961 348.339 298.336 350.058C299.681 351.777 300.369 353.433 300.244 353.464Z" fill="#A869C5" />
    <path d="M297.461 363.402C297.524 363.558 296.398 364.089 294.929 364.621C293.49 365.152 292.271 365.496 292.209 365.339C292.146 365.214 293.272 364.652 294.741 364.121C296.21 363.589 297.398 363.246 297.461 363.402Z" fill="#A869C5" />
    <path d="M316.313 368.933C316.157 368.964 315.844 367.621 315.626 365.964C315.407 364.308 315.313 362.933 315.469 362.933C315.626 362.902 315.938 364.246 316.157 365.902C316.407 367.527 316.47 368.902 316.313 368.933Z" fill="#A869C5" />
    <path d="M318.908 357.089C318.752 357.058 318.877 355.464 319.127 353.527C319.409 351.589 319.752 350.027 319.909 350.058C320.065 350.089 319.94 351.683 319.69 353.621C319.409 355.558 319.065 357.121 318.908 357.089Z" fill="#A869C5" />
    <path d="M306.278 360.089C306.403 360.152 305.621 362.339 304.527 364.996C303.432 367.652 302.401 369.777 302.276 369.714C302.151 369.652 302.932 367.464 304.027 364.808C305.121 362.152 306.121 360.058 306.278 360.089Z" fill="#A869C5" />
    <path d="M272.512 324.402C272.356 324.433 272.012 322.808 271.731 320.839C271.449 318.839 271.355 317.214 271.48 317.183C271.637 317.152 271.981 318.746 272.262 320.746C272.575 322.746 272.668 324.371 272.512 324.402Z" fill="#A869C5" />
    <path d="M273.544 336.621C273.419 336.683 272.887 335.808 272.731 334.589C272.543 333.371 272.825 332.371 272.95 332.402C273.106 332.433 273.106 333.371 273.262 334.496C273.419 335.652 273.7 336.558 273.544 336.621Z" fill="#A869C5" />
    <path d="M275.951 383.152C275.795 383.183 275.42 382.089 275.076 380.714C274.732 379.339 274.607 378.183 274.732 378.152C274.888 378.121 275.263 379.214 275.607 380.589C275.951 381.996 276.108 383.121 275.951 383.152Z" fill="#A869C5" />
    <path d="M290.208 380.933C290.145 381.089 288.582 380.683 286.706 380.089C284.83 379.464 283.33 378.871 283.392 378.714C283.455 378.558 285.018 378.964 286.894 379.558C288.77 380.183 290.27 380.777 290.208 380.933Z" fill="#A869C5" />
    <path d="M302.463 378.558C302.557 378.683 301.682 379.527 300.525 380.464C299.368 381.402 298.336 382.058 298.243 381.964C298.149 381.839 299.024 380.996 300.181 380.058C301.338 379.089 302.369 378.433 302.463 378.558Z" fill="#A869C5" />
    <path d="M314.5 381.339C314.406 381.464 313.187 380.871 311.592 380.339C309.998 379.777 308.654 379.496 308.685 379.339C308.685 379.183 310.123 379.246 311.78 379.808C313.406 380.402 314.563 381.246 314.5 381.339Z" fill="#A869C5" />
    <path d="M328.538 376.339C328.663 376.464 328.037 377.246 327.381 378.277C326.724 379.308 326.287 380.214 326.13 380.152C326.005 380.121 326.224 379.089 326.912 377.996C327.6 376.902 328.444 376.246 328.538 376.339Z" fill="#A869C5" />
    <path d="M328.882 348.058C328.725 348.089 328.381 346.621 328.1 344.777C327.819 342.964 327.725 341.464 327.881 341.433C328.037 341.402 328.381 342.871 328.663 344.714C328.944 346.558 329.038 348.058 328.882 348.058Z" fill="#A869C5" />
    <path d="M340.574 354.277C340.481 354.402 339.355 353.746 338.011 352.777C336.698 351.839 335.666 350.964 335.76 350.839C335.854 350.714 336.979 351.371 338.323 352.339C339.668 353.277 340.668 354.152 340.574 354.277Z" fill="#A869C5" />
    <path d="M353.049 336.027C352.893 335.964 353.393 334.152 354.143 331.933C354.893 329.714 355.613 327.964 355.738 328.027C355.894 328.089 355.394 329.902 354.643 332.121C353.893 334.339 353.205 336.089 353.049 336.027Z" fill="#A869C5" />
    <path d="M345.796 334.839C345.702 334.964 344.576 334.214 343.263 333.183C341.95 332.152 340.981 331.214 341.075 331.089C341.168 330.964 342.294 331.714 343.607 332.746C344.889 333.777 345.889 334.714 345.796 334.839Z" fill="#A869C5" />
    <path d="M349.453 320.589C349.579 320.652 349.172 321.871 348.484 323.308C347.828 324.746 347.171 325.871 347.046 325.808C346.921 325.746 347.327 324.527 348.015 323.089C348.641 321.652 349.297 320.527 349.453 320.589Z" fill="#A869C5" />
    <path d="M335.572 333.621C335.447 333.714 334.665 332.652 334.04 331.183C333.415 329.714 333.227 328.433 333.352 328.402C333.509 328.371 333.915 329.558 334.54 330.964C335.134 332.402 335.697 333.527 335.572 333.621Z" fill="#A869C5" />
    <path d="M346.39 306.933C346.515 306.996 345.921 308.183 344.795 309.246C343.638 310.339 342.45 310.871 342.388 310.746C342.325 310.621 343.326 309.902 344.42 308.871C345.514 307.839 346.265 306.839 346.39 306.933Z" fill="#A869C5" />
    <path d="M334.759 308.746C334.634 308.839 333.853 307.902 333.04 306.683C332.196 305.464 331.633 304.402 331.758 304.308C331.883 304.214 332.665 305.152 333.477 306.371C334.322 307.589 334.884 308.652 334.759 308.746Z" fill="#A869C5" />
    <path d="M345.983 298.121C345.921 298.246 344.795 297.714 343.545 296.964C342.263 296.183 341.293 295.464 341.387 295.339C341.481 295.214 342.575 295.746 343.826 296.496C345.108 297.246 346.077 297.996 345.983 298.121Z" fill="#A869C5" />
    <path d="M353.705 307.933C353.549 307.933 353.549 306.027 353.674 303.714C353.799 301.371 354.049 299.496 354.206 299.527C354.362 299.527 354.362 301.433 354.237 303.746C354.081 306.089 353.862 307.964 353.705 307.933Z" fill="#A869C5" />
    <path d="M347.734 351.652C347.578 351.589 348.078 349.996 348.797 348.058C349.516 346.121 350.235 344.589 350.36 344.652C350.516 344.714 350.016 346.308 349.297 348.246C348.578 350.152 347.859 351.683 347.734 351.652Z" fill="#A869C5" />
    <path d="M358.426 352.871C358.27 352.839 358.52 351.277 358.989 349.402C359.458 347.527 359.927 346.027 360.083 346.058C360.24 346.089 359.99 347.652 359.521 349.527C359.083 351.402 358.583 352.902 358.426 352.871Z" fill="#A869C5" />
    <path d="M342.2 380.964C342.106 381.058 341.168 380.058 340.637 378.496C340.105 376.933 340.199 375.558 340.356 375.558C340.512 375.558 340.637 376.839 341.168 378.308C341.637 379.777 342.325 380.871 342.2 380.964Z" fill="#A869C5" />
    <path d="M374.058 296.308C373.902 296.339 373.558 294.714 373.621 292.683C373.683 290.652 374.152 289.058 374.309 289.089C374.465 289.121 374.246 290.714 374.183 292.714C374.09 294.683 374.215 296.308 374.058 296.308Z" fill="#A869C5" />
    <path d="M367.681 289.089C367.649 289.246 366.43 289.027 364.992 288.652C363.554 288.277 362.428 287.839 362.459 287.683C362.491 287.527 363.71 287.746 365.148 288.121C366.586 288.527 367.712 288.964 367.681 289.089Z" fill="#A869C5" />
    <path d="M368.837 279.464C368.681 279.464 368.587 277.746 368.618 275.652C368.65 273.558 368.806 271.839 368.962 271.839C369.119 271.839 369.212 273.558 369.181 275.652C369.15 277.746 368.994 279.464 368.837 279.464Z" fill="#A869C5" />
    <path d="M363.429 274.652C363.429 274.808 362.053 274.808 360.396 274.683C358.739 274.558 357.395 274.308 357.426 274.152C357.426 273.996 358.802 273.996 360.459 274.121C362.116 274.277 363.46 274.496 363.429 274.652Z" fill="#A869C5" />
    <path d="M359.052 264.402C358.895 264.402 358.676 263.214 358.583 261.714C358.458 260.214 358.489 258.996 358.645 258.996C358.801 258.996 359.02 260.183 359.114 261.683C359.208 263.183 359.177 264.402 359.052 264.402Z" fill="#A869C5" />
    <path d="M367.118 312.933C366.993 313.027 366.055 311.964 364.992 310.589C363.929 309.214 363.178 307.996 363.304 307.902C363.429 307.808 364.367 308.871 365.429 310.246C366.461 311.652 367.212 312.839 367.118 312.933Z" fill="#A869C5" />
    <path d="M372.058 320.371C371.901 320.371 371.901 318.964 372.058 317.246C372.214 315.527 372.433 314.152 372.589 314.152C372.745 314.152 372.745 315.558 372.589 317.277C372.464 318.996 372.214 320.402 372.058 320.371Z" fill="#A869C5" />
    <path d="M380.53 325.214C380.561 325.371 379.436 325.621 378.06 325.777C376.685 325.933 375.528 325.964 375.528 325.808C375.497 325.652 376.622 325.402 377.998 325.246C379.373 325.089 380.499 325.058 380.53 325.214Z" fill="#A869C5" />
    <path d="M384.501 331.214C384.657 331.277 384.407 332.371 383.969 333.714C383.532 335.058 383.063 336.089 382.906 336.027C382.75 335.964 383 334.871 383.438 333.527C383.875 332.183 384.376 331.152 384.501 331.214Z" fill="#A869C5" />
    <path d="M390.972 340.246C391.097 340.339 390.566 341.183 390.347 342.308C390.097 343.464 390.285 344.402 390.128 344.464C390.003 344.527 389.534 343.496 389.816 342.214C390.066 340.902 390.847 340.152 390.972 340.246Z" fill="#A869C5" />
    <path d="M393.349 325.402C393.349 325.558 391.848 325.496 390.035 325.683C388.221 325.839 386.783 326.152 386.72 325.996C386.689 325.871 388.096 325.277 389.972 325.121C391.879 324.964 393.38 325.246 393.349 325.402Z" fill="#A869C5" />
    <path d="M400.414 322.777C400.571 322.839 400.227 324.277 400.039 326.089C399.851 327.902 399.883 329.371 399.726 329.402C399.57 329.433 399.289 327.902 399.508 326.027C399.695 324.152 400.258 322.746 400.414 322.777Z" fill="#A869C5" />
    <path d="M383.469 310.933C383.313 310.933 383.375 309.058 383.594 306.808C383.813 304.527 384.094 302.714 384.251 302.714C384.407 302.714 384.344 304.589 384.126 306.839C383.907 309.121 383.625 310.964 383.469 310.933Z" fill="#A869C5" />
    <path d="M379.498 303.433C379.467 303.589 378.248 303.464 376.747 303.183C375.247 302.902 374.058 302.527 374.09 302.402C374.121 302.246 375.34 302.371 376.841 302.652C378.342 302.933 379.53 303.308 379.498 303.433Z" fill="#A869C5" />
    <path d="M382.937 292.277C382.812 292.308 382.218 290.808 382.093 288.808C381.968 286.808 382.343 285.214 382.5 285.246C382.656 285.277 382.5 286.839 382.656 288.777C382.75 290.714 383.094 292.246 382.937 292.277Z" fill="#A869C5" />
    <path d="M378.092 281.277C378.06 281.433 377.341 281.464 376.466 281.339C375.59 281.214 374.871 281.027 374.903 280.871C374.934 280.714 375.653 280.683 376.528 280.808C377.435 280.933 378.123 281.152 378.092 281.277Z" fill="#A869C5" />
    <path d="M392.567 301.527C392.536 301.683 391.379 301.527 390.191 300.808C388.971 300.121 388.252 299.214 388.377 299.121C388.503 298.996 389.315 299.683 390.472 300.339C391.566 300.996 392.598 301.371 392.567 301.527Z" fill="#A869C5" />
    <path d="M397.819 312.839C397.882 312.964 396.788 313.683 395.349 314.433C393.911 315.183 392.692 315.652 392.629 315.527C392.567 315.402 393.661 314.683 395.099 313.933C396.537 313.183 397.757 312.683 397.819 312.839Z" fill="#A869C5" />
    <path d="M297.617 236.246L298.399 227.371L316.063 241.152L320.471 248.277L328.381 229.871L330.32 232.433V243.589L321.785 253.996L305.652 252.589L297.617 236.246Z" fill="#F9FAFD" />
    <path d="M315.313 242.246C315.344 242.246 315.344 242.621 315.313 243.339C315.25 244.121 315.188 245.121 315.125 246.339C314.906 248.996 314.594 252.558 314.25 256.683L314.187 257.308L313.781 256.808C312.562 255.339 311.217 253.714 309.842 252.058C306.215 247.652 302.964 243.652 300.65 240.746C299.556 239.339 298.618 238.183 297.899 237.277C297.273 236.464 296.929 235.996 296.961 235.964C296.992 235.933 297.398 236.371 298.086 237.152C298.837 238.027 299.806 239.152 300.963 240.496C303.37 243.339 306.653 247.308 310.279 251.683C311.655 253.339 312.968 254.964 314.187 256.433L313.718 256.589C314.125 252.496 314.5 248.933 314.781 246.277C314.938 245.089 315.032 244.089 315.125 243.308C315.219 242.621 315.282 242.246 315.313 242.246Z" fill="#C7CDDD" />
    <path d="M330.101 243.121C330.163 243.121 330.132 243.777 330.007 244.902C329.882 246.027 329.694 247.589 329.476 249.433L329.319 250.589L328.975 249.496C328.663 248.527 328.35 247.464 328.069 246.339C327.412 243.746 327.006 241.371 326.818 239.652C326.599 237.933 326.568 236.839 326.662 236.839C326.756 236.839 326.912 237.902 327.225 239.589C327.537 241.308 327.975 243.652 328.631 246.214C328.913 247.339 329.194 248.402 329.476 249.339L328.975 249.371C329.257 247.527 329.507 245.964 329.694 244.871C329.913 243.746 330.038 243.089 330.101 243.121Z" fill="#C7CDDD" />
    <path d="M328.944 303.496C328.913 303.496 328.882 303.308 328.819 302.933C328.757 302.496 328.663 301.964 328.538 301.308C328.288 299.808 327.975 297.808 327.6 295.339C326.849 290.246 325.818 283.308 324.661 275.652C323.535 267.996 322.504 261.089 321.722 255.964C321.347 253.496 321.034 251.496 320.815 249.996C320.722 249.339 320.659 248.808 320.597 248.371C320.534 247.996 320.534 247.808 320.565 247.808C320.597 247.808 320.628 247.996 320.722 248.371C320.815 248.808 320.909 249.339 321.066 249.964C321.347 251.371 321.722 253.402 322.16 255.902C323.035 260.933 324.129 267.871 325.255 275.558C326.38 283.246 327.35 290.214 328.037 295.277C328.35 297.746 328.631 299.777 328.819 301.246C328.882 301.902 328.944 302.433 329.007 302.871C328.944 303.277 328.975 303.496 328.944 303.496Z" fill="#C7CDDD" />
    <path d="M312.843 250.589C312.937 250.714 312.749 251.027 312.53 251.371C312.343 251.714 312.186 252.058 312.03 252.058C311.874 252.058 311.78 251.589 312.061 251.121C312.343 250.652 312.78 250.464 312.843 250.589Z" fill="#C7CDDD" />
    <path d="M329.1 244.683C328.944 244.683 328.85 244.277 328.85 243.777C328.85 243.277 329.007 242.871 329.163 242.871C329.319 242.871 329.413 243.277 329.413 243.777C329.382 244.308 329.257 244.683 329.1 244.683Z" fill="#C7CDDD" />
    <path d="M326.693 237.402C326.818 237.433 325.974 240.089 324.254 243.027C322.535 245.964 320.628 247.996 320.534 247.902C320.409 247.808 322.097 245.652 323.786 242.746C325.474 239.871 326.537 237.339 326.693 237.402Z" fill="#C7CDDD" />
    <path d="M320.878 248.589C320.784 248.683 319.346 247.527 317.814 245.902C316.251 244.277 315.157 242.808 315.25 242.714C315.375 242.621 316.657 243.902 318.189 245.527C319.721 247.152 320.972 248.496 320.878 248.589Z" fill="#C7CDDD" />
    <path d="M325.505 264.746C325.38 264.839 325.067 264.496 325.005 264.089C324.942 263.652 324.942 263.402 325.067 263.308C325.192 263.214 325.474 263.558 325.536 263.996C325.599 264.371 325.599 264.652 325.505 264.746Z" fill="#C7CDDD" />
    <path d="M327.1 275.308C326.943 275.308 326.849 274.996 326.787 274.621C326.724 274.214 326.818 273.871 326.974 273.871C327.131 273.871 327.287 274.152 327.318 274.558C327.381 274.964 327.256 275.308 327.1 275.308Z" fill="#C7CDDD" />
    <path d="M322.16 197.246C322.222 197.214 322.347 197.652 322.941 197.964C323.535 198.308 324.692 198.433 325.568 197.527C326.005 197.089 326.349 196.496 326.537 195.808C326.724 195.121 326.756 194.308 326.693 193.464C326.568 191.746 326.443 189.871 326.318 187.933C326.068 183.996 325.88 180.433 325.755 177.839C325.693 176.558 325.661 175.496 325.661 174.777C325.661 174.058 325.661 173.652 325.693 173.652C325.724 173.652 325.786 174.058 325.88 174.777C325.974 175.496 326.068 176.527 326.162 177.839C326.38 180.402 326.631 183.964 326.881 187.902C327.006 189.871 327.1 191.746 327.193 193.464C327.225 194.339 327.193 195.183 326.974 195.933C326.756 196.714 326.349 197.371 325.849 197.808C325.349 198.277 324.723 198.527 324.161 198.527C323.598 198.527 323.16 198.371 322.848 198.152C322.191 197.714 322.16 197.214 322.16 197.246Z" fill="#E08F8D" />
    <path d="M325.099 204.214C325.13 204.277 324.473 204.714 323.191 204.964C321.941 205.214 320.065 205.121 318.346 204.121C316.626 203.121 315.626 201.496 315.219 200.308C314.813 199.089 314.875 198.277 314.938 198.277C315.032 198.277 315.094 199.058 315.594 200.152C316.063 201.246 317.064 202.714 318.627 203.621C320.221 204.558 321.972 204.683 323.16 204.558C324.348 204.464 325.067 204.121 325.099 204.214Z" fill="#E08F8D" />
    <path d="M316.157 197.839C316.126 197.996 315.219 197.808 314.312 198.339C313.406 198.839 313.093 199.683 312.937 199.652C312.874 199.652 312.843 199.371 312.999 198.996C313.156 198.621 313.5 198.152 314.031 197.839C314.563 197.527 315.157 197.464 315.563 197.527C315.969 197.621 316.188 197.777 316.157 197.839Z" fill="#E08F8D" />
    <path d="M329.476 221.527C329.507 221.558 329.1 221.808 328.381 222.183C327.662 222.558 326.568 223.058 325.192 223.558C322.41 224.527 318.283 225.246 313.812 224.621C309.31 223.996 305.558 222.152 303.182 220.464C301.963 219.621 301.056 218.839 300.494 218.277C299.9 217.714 299.618 217.371 299.65 217.339C299.712 217.277 300.994 218.558 303.432 220.152C305.84 221.746 309.56 223.464 313.937 224.089C318.314 224.714 322.379 224.058 325.13 223.214C327.85 222.339 329.444 221.433 329.476 221.527Z" fill="#E08F8D" />
    <path d="M288.363 197.558C288.301 197.496 289.113 197.183 289.489 196.027C289.676 195.496 289.707 194.746 289.426 194.058C289.176 193.371 288.457 192.777 287.644 192.871C286.894 192.933 286.487 193.839 286.8 194.371L286.331 194.558C285.925 192.058 285.674 190.277 285.799 190.246C285.925 190.214 286.331 191.964 286.831 194.464L287.113 195.871L286.362 194.652C285.831 193.808 286.456 192.496 287.582 192.371C288.144 192.308 288.676 192.464 289.082 192.746C289.489 193.058 289.77 193.464 289.895 193.902C290.208 194.746 290.083 195.589 289.833 196.183C289.582 196.777 289.176 197.183 288.863 197.371C288.582 197.558 288.363 197.589 288.363 197.558Z" fill="#E08F8D" />
    <path d="M313.249 182.371C312.937 182.371 312.687 181.183 312.687 179.714C312.687 178.246 312.906 177.058 313.218 177.058C313.531 177.058 313.781 178.246 313.781 179.714C313.781 181.183 313.562 182.371 313.249 182.371Z" fill="#452775" />
    <path d="M335.979 181.277C335.666 181.277 335.416 180.277 335.385 179.058C335.353 177.808 335.572 176.808 335.885 176.808C336.197 176.808 336.448 177.808 336.479 179.027C336.51 180.246 336.291 181.246 335.979 181.277Z" fill="#452775" />
    <path d="M292.24 185.277C291.646 187.089 291.052 189.089 291.771 190.839C292.521 192.589 295.273 193.433 296.304 191.839C296.711 191.214 296.742 190.433 296.742 189.683C296.773 184.558 296.836 179.433 296.867 174.339C304.245 173.027 310.623 167.152 312.499 159.902C316.407 162.277 321.566 162.464 325.63 160.339C327.287 159.464 328.975 158.183 330.851 158.433C333.102 158.746 334.415 161.058 336.26 162.371C339.48 164.652 344.639 163.246 346.233 159.652C347.89 155.933 345.639 151.339 342.169 149.246C337.792 146.589 332.258 147.089 327.162 147.714C317.752 148.839 308.341 149.933 298.93 151.058C297.117 151.277 295.21 151.527 293.803 152.652C292.334 153.808 291.677 155.683 291.146 157.464C289.051 164.527 288.082 171.933 288.269 179.277C288.332 181.527 288.738 184.152 290.708 185.277" fill="#552E3B" />
    <path d="M316.345 171.746C316.501 172.496 314.875 173.402 312.749 173.839C310.623 174.246 308.779 173.996 308.654 173.246C308.497 172.496 310.123 171.589 312.249 171.152C314.375 170.714 316.22 171.027 316.345 171.746Z" fill="#552E3B" />
    <path d="M338.73 171.433C338.667 172.183 337.26 172.683 335.603 172.558C333.915 172.433 332.602 171.714 332.665 170.964C332.727 170.214 334.134 169.714 335.791 169.839C337.479 169.964 338.792 170.683 338.73 171.433Z" fill="#552E3B" />
    <g opacity="0.26">
        <path d="M314.781 168.933C320.378 169.433 324.473 174.371 323.973 179.964C323.473 185.558 318.533 189.652 312.937 189.152C307.341 188.652 303.245 183.714 303.745 178.121C304.245 172.527 309.185 168.433 314.781 168.933Z" fill="#DEECFC" />
    </g>
    <g opacity="0.26">
        <path d="M339.668 167.996C345.264 168.496 349.36 173.433 348.859 179.027C348.359 184.621 343.419 188.714 337.823 188.214C332.227 187.714 328.131 182.777 328.631 177.183C329.132 171.589 334.071 167.496 339.668 167.996Z" fill="#DEECFC" />
    </g>
    <path d="M328.35 180.027C328.35 180.183 327.287 180.308 325.943 180.308C324.63 180.308 323.535 180.183 323.535 180.027C323.535 179.871 324.598 179.746 325.943 179.746C327.287 179.746 328.35 179.871 328.35 180.027Z" fill="#635252" />
    <path d="M363.71 384.214C363.647 384.246 362.803 383.277 361.553 381.621C360.302 379.964 358.614 377.589 356.863 374.902C355.144 372.214 353.674 369.714 352.674 367.871C351.673 366.027 351.142 364.871 351.204 364.808C351.267 364.777 351.955 365.871 353.018 367.652C354.081 369.433 355.581 371.902 357.332 374.589C359.052 377.277 360.677 379.652 361.865 381.371C363.022 383.121 363.772 384.183 363.71 384.214Z" fill="#E08F8D" />
    <path d="M361.99 384.089C361.99 384.121 361.709 384.121 361.209 383.996C360.709 383.871 359.99 383.652 359.177 383.214C357.52 382.371 355.644 380.589 353.893 378.433C352.142 376.308 350.579 374.339 349.453 372.933C348.328 371.496 347.671 370.589 347.734 370.558C347.796 370.527 348.547 371.339 349.735 372.714C350.923 374.089 352.517 375.996 354.299 378.121C356.05 380.246 357.801 381.996 359.364 382.902C360.896 383.839 362.022 383.996 361.99 384.089Z" fill="#E08F8D" />
    <path d="M380.718 390.527L408.105 321.714L499.866 323.402L474.073 388.589L380.718 390.527Z" fill="#B8ABD6" />
    <path d="M412.326 321.808L384.282 390.527L474.073 388.589L499.866 323.402L412.326 321.808Z" fill="#968ABC" />
    <path d="M441.777 352.308C444.215 349.871 447.811 349.496 449.781 351.464C451.75 353.433 451.375 357.027 448.936 359.464C446.498 361.902 442.902 362.277 440.933 360.308C438.963 358.339 439.338 354.746 441.777 352.308Z" fill="#D7D1E8" />
    <path opacity="0.19" d="M439.964 350.496C443.809 346.652 449.437 346.089 452.532 349.183C455.627 352.277 455.064 357.902 451.219 361.746C447.373 365.589 441.746 366.152 438.65 363.058C435.555 359.933 436.118 354.308 439.964 350.496Z" fill="#D7D1E8" />
    <g opacity="0.43">
        <path d="M213.923 147.339C228.805 141.464 247.657 149.277 254.035 163.933C260.444 178.589 253.316 197.683 238.903 204.589C224.49 211.496 205.138 205.089 197.697 190.933C190.256 176.777 195.977 157.214 209.89 149.277" fill="#EDE6F5" />
    </g>
    <path d="M436.649 284.121C437.056 281.433 436.962 278.902 438.463 276.527C441.464 271.808 445.716 272.996 449.812 275.058C454.001 277.152 457.94 278.433 462.474 276.464C469.633 273.371 472.822 262.777 466.132 257.652C463.974 255.996 461.755 258.714 462.067 260.777C462.536 263.652 463.943 266.839 461.442 269.339C458.128 272.652 454.251 269.871 450.937 268.402C447.373 266.808 443.59 266.433 439.932 267.902C433.617 270.464 428.99 279.027 434.023 284.808C434.774 285.621 436.493 285.277 436.649 284.121Z" fill="#6E3281" />
    <path d="M451.563 176.777C451.719 179.777 453.376 182.496 455.033 184.964C456.158 186.652 457.503 188.964 459.504 189.652C461.661 190.402 463.224 189.339 464.944 188.183C468.133 186.058 471.197 183.808 474.323 181.589C475.605 180.683 476.355 178.933 475.417 177.464C472.822 173.496 470.259 169.527 467.664 165.558C466.851 164.277 464.912 163.496 463.537 164.464C460.285 166.777 456.721 168.871 453.845 171.589C451.437 173.871 454.501 177.433 457.253 175.996C460.567 174.308 463.537 171.777 466.569 169.652C465.194 169.277 463.818 168.933 462.443 168.558C465.037 172.527 467.601 176.496 470.196 180.464C470.571 179.089 470.915 177.714 471.29 176.339C469.54 177.589 467.789 178.808 466.038 180.089C465.256 180.652 461.442 183.933 460.942 183.839C460.348 183.714 458.128 180.246 457.534 179.558C456.252 178.089 455.064 176.683 453.345 175.746C452.594 175.371 451.5 175.839 451.563 176.777Z" fill="#EDC483" />
    <path d="M415.108 213.902C410.888 217.902 409.199 224.058 413.201 228.933C416.984 233.527 424.238 234.464 428.958 230.871C440.276 222.339 428.615 205.433 416.328 209.246C413.67 210.058 414.327 213.683 416.953 213.902C420.298 214.214 423.894 214.214 426.614 216.558C429.459 218.996 429.49 223.214 427.176 226.027C421.017 233.589 410.419 222.246 416.734 215.558C417.766 214.464 416.171 212.871 415.108 213.902Z" fill="#8AA9FC" />
    <path d="M508.338 249.996C506.838 257.246 505.618 264.496 504.462 271.808C504.118 273.933 505.618 275.371 507.713 275.058C514.591 274.089 521.438 273.183 528.223 271.621C529.786 271.246 530.442 269.339 529.692 267.996C527.472 264.121 525.377 260.277 522.595 256.714C520.156 253.589 517.28 249.558 513.591 247.933C511.309 246.902 508.338 249.121 509.902 251.621C511.903 254.839 515.279 257.152 517.78 259.996C520.657 263.214 523.377 266.652 525.44 270.464C526.159 269.246 526.847 267.996 527.566 266.777C520.406 267.402 513.403 268.714 506.306 269.964C507.432 270.808 508.526 271.652 509.652 272.527C510.464 265.183 511.183 257.839 511.652 250.464C511.778 248.558 508.714 248.152 508.338 249.996Z" fill="#E3707F" />
    <path d="M491.299 234.339C493.05 227.277 494.426 219.464 494.645 212.214C494.739 209.464 490.33 208.777 489.767 211.558C488.329 218.746 487.892 226.621 488.017 233.902C488.017 235.746 490.83 236.214 491.299 234.339Z" fill="#E8947E" />
    <path d="M516.874 204.464C516.842 204.433 516.842 204.402 516.811 204.339C516.749 204.214 516.686 204.089 516.655 203.933C516.53 203.558 516.311 203.214 516.029 202.933C515.842 202.746 515.623 202.558 515.373 202.433C515.279 202.402 515.217 202.339 515.123 202.308C514.873 202.214 514.654 202.121 514.404 201.996C513.997 201.871 513.591 201.839 513.216 201.933C512.934 201.933 512.684 201.996 512.465 202.152C512.09 202.277 511.778 202.496 511.496 202.777C511.34 202.964 511.184 203.183 511.027 203.371C510.933 203.621 510.84 203.839 510.715 204.089C510.589 204.496 510.558 204.902 510.652 205.277C510.683 205.683 510.777 206.058 510.996 206.402C511.027 206.496 511.09 206.558 511.121 206.652C511.184 206.777 511.277 206.871 511.371 206.964C511.465 207.089 511.527 207.183 511.621 207.308C511.84 207.464 512.028 207.621 512.246 207.777C512.497 207.871 512.747 207.996 512.997 208.089C513.028 208.121 513.091 208.121 513.122 208.152C513.653 208.308 514.185 208.308 514.748 208.152C515.248 207.996 515.717 207.746 516.092 207.371C516.467 206.996 516.717 206.558 516.874 206.027C517.03 205.527 517.03 204.996 516.874 204.464Z" fill="#E8947E" />
</svg>
    