<svg width="756" height="982" viewBox="0 0 756 982" fill="none" xmlns="http://www.w3.org/2000/svg">
    <rect width="756" height="982" fill="#279FFE" />
    <mask id="mask0_843_328" style="mask-type:alpha" maskUnits="userSpaceOnUse" x="0" y="0" width="756" height="982">
        <rect width="756" height="982" fill="#279FFE" />
    </mask>
    <g mask="url(#mask0_843_328)">
        <g opacity="0.1">
            <path d="M805.428 267.916C868.733 246.585 923.636 193.546 934.861 127.681C946.087 61.8163 904.586 -12.3837 839.342 -26.6726C808.489 -33.4088 775.187 -27.387 745.694 -38.716C690.111 -60.0813 671.198 -132.41 619.833 -162.587C570.338 -191.641 502.509 -170.684 465.635 -126.695C428.761 -82.7053 418.012 -22.0117 420.291 35.3479C423.624 119.618 459.41 210.488 535.811 246.109C600.239 276.081 736.374 284.586 805.428 267.916Z" fill="url(#paint0_linear_843_328)" />
            <path d="M184.428 1170.92C247.733 1149.58 302.636 1096.55 313.861 1030.68C325.087 964.816 283.586 890.616 218.342 876.327C187.489 869.591 154.187 875.613 124.694 864.284C69.1111 842.919 50.1979 770.59 -1.16729 740.413C-50.6616 711.359 -118.491 732.316 -155.365 776.305C-192.239 820.295 -202.988 880.988 -200.709 938.348C-197.375 1022.62 -161.59 1113.49 -85.1885 1149.11C-20.7609 1179.08 115.374 1187.59 184.428 1170.92Z" fill="#DDD2F3" />
        </g>
        <defs>
            <linearGradient id="paint0_linear_843_328" x1="936.698" y1="50.1532" x2="420.011" y2="50.1532" gradientUnits="userSpaceOnUse">
                <stop stop-color="#9668F7" />
                <stop offset="1" stop-color="#78D8FB" />
            </linearGradient>
        </defs>
    </g>
</svg>
    