<svg width="119" height="103" viewBox="0 0 119 103" fill="none" xmlns="http://www.w3.org/2000/svg">
    <path d="M16.9548 93.7187C39.5611 105.277 76.2111 105.277 98.8174 93.7187C121.424 82.1609 121.424 63.4233 98.8174 51.8654C76.2111 40.3076 39.5611 40.3076 16.9548 51.8654C-5.65159 63.4233 -5.65159 82.1609 16.9548 93.7187Z" fill="#F5F5F5" />
    <path d="M90.8864 75.2537C92.1242 75.9694 94.5591 75.7223 96.3241 74.7035L106.496 68.7973C108.261 67.7785 108.684 66.3726 107.444 65.6544C106.204 64.9387 103.766 65.1832 102.001 66.202L91.839 72.1108C90.074 73.1296 89.6486 74.538 90.889 75.2511L90.8864 75.2537Z" fill="#EBEBEB" />
    <path d="M29.6536 80.7015L19.3055 74.729L29.6511 68.754L29.6536 80.7015Z" fill="#EBEBEB" />
    <path d="M58.8922 84.2748L42.2176 74.6424L58.8973 65.0278L58.8922 84.2748Z" fill="#EBEBEB" />
    <path d="M15.6584 66.7343C15.6864 64.3147 13.9978 59.282 11.5248 56.1086C9.05172 52.9351 5.13203 50.592 2.31515 51.5165C-0.308166 52.3774 -0.0662097 55.808 3.07667 58.1181C6.21956 60.4256 10.9466 63.3367 12.2939 67.2793L15.1592 72.1312L15.6584 66.7343Z" fill="#279FFE" />
    <path opacity="0.1" d="M15.6584 66.7343C15.6864 64.3147 13.9978 59.282 11.5248 56.1086C9.05172 52.9351 5.13203 50.592 2.31515 51.5165C-0.308166 52.3774 -0.0662097 55.808 3.07667 58.1181C6.21956 60.4256 10.9466 63.3367 12.2939 67.2793L15.1592 72.1312L15.6584 66.7343Z" fill="black" />
    <path d="M15.796 70.0478C15.7196 70.0401 15.6533 69.9841 15.6381 69.9026C14.1176 61.6226 7.51598 54.8275 3.53262 53.2968C3.44093 53.2611 3.39509 53.1592 3.43074 53.0676C3.4664 52.9759 3.56573 52.93 3.65996 52.9657C7.71719 54.5269 14.441 61.4316 15.9844 69.8389C16.0023 69.9357 15.9386 70.0274 15.8418 70.0452C15.8265 70.0478 15.8087 70.0478 15.7934 70.0452L15.796 70.0478Z" fill="white" />
    <path d="M14.4996 75.3224C14.1277 73.9573 12.4926 71.6931 9.82856 69.8058C6.88179 67.7199 3.1302 66.7317 2.28208 65.1246C1.26331 63.1941 2.90097 61.401 5.94962 61.8162C8.99827 62.2313 14.3162 66.4618 15.1007 72.745L14.4996 75.3224Z" fill="#279FFE" />
    <path d="M15.1082 73.9013C15.042 73.8962 14.9809 73.8503 14.958 73.7816C12.5104 66.6757 7.1415 64.1262 4.64298 63.7722C4.5462 63.7595 4.47998 63.6678 4.49272 63.5736C4.50545 63.4768 4.59205 63.4106 4.69138 63.4233C7.45222 63.8155 12.7905 66.4134 15.2916 73.6695C15.3222 73.7612 15.2738 73.8631 15.1821 73.8936C15.1566 73.9013 15.1337 73.9038 15.1082 73.9038V73.9013Z" fill="white" />
    <path d="M105.962 59.8474C105.962 59.8474 106.3 54.746 109.308 50.9587C112.314 47.1715 112.13 45.6128 110.057 44.8487C107.984 44.0846 103.168 48.6487 104.24 54.7613C105.312 60.8738 105.962 59.85 105.962 59.85V59.8474Z" fill="#279FFE" />
    <path opacity="0.1" d="M105.962 59.8474C105.962 59.8474 106.3 54.746 109.308 50.9587C112.314 47.1715 112.13 45.6128 110.057 44.8487C107.984 44.0846 103.168 48.6487 104.24 54.7613C105.312 60.8738 105.962 59.85 105.962 59.85V59.8474Z" fill="black" />
    <path d="M105.042 56.9338C104.981 56.9338 104.928 56.8854 104.925 56.8217C104.574 51.2032 108.542 46.5933 110.026 45.5517C110.08 45.5135 110.154 45.5262 110.192 45.5797C110.23 45.6332 110.217 45.707 110.164 45.7452C108.707 46.7691 104.818 51.2898 105.162 56.809C105.167 56.8752 105.116 56.9312 105.05 56.9338C105.05 56.9338 105.045 56.9338 105.042 56.9338Z" fill="white" />
    <path d="M105.144 64.06C105.144 64.06 106.955 64.6891 109.285 65.0559C111.613 65.4252 112.642 64.3122 112.642 64.3122C112.642 64.3122 111.725 62.1295 110.403 61.5157C110.403 61.5157 112.645 61.9716 114.445 63.1737C114.445 63.1737 115.866 63.1941 116.432 61.0267C116.432 61.0267 115.589 59.7201 112.764 59.0146C112.764 59.0146 114.484 58.5816 116.962 59.2133C117.148 59.2871 117.94 56.4804 118.179 55.1866C118.418 53.8928 117.899 53.9055 116.89 53.6355C115.882 53.3656 112.54 52.6168 111.909 53.1694C111.277 53.7247 110.956 55.6221 110.956 55.6221C110.956 55.6221 110.541 54.5015 110.862 53.2178C110.862 53.2178 109.953 52.8638 108.544 53.2739C107.39 53.6101 107.334 54.3945 107.388 55.2808C107.426 55.9277 107.581 56.618 107.887 57.5323C107.887 57.5323 106.988 56.3811 106.96 53.8851C106.96 53.8851 104.602 55.0567 104.199 57.3973C103.983 58.6631 103.672 62.3791 105.149 64.0626L105.144 64.06Z" fill="#279FFE" />
    <path d="M105.59 63.6067C105.638 63.6067 105.684 63.5786 105.707 63.5328C107.587 59.6284 114.57 55.0949 117.074 54.6084C117.145 54.5957 117.191 54.5269 117.178 54.4556C117.165 54.3843 117.094 54.3385 117.025 54.3512C114.481 54.8453 107.383 59.4552 105.475 63.4207C105.445 63.487 105.47 63.5634 105.536 63.5965C105.554 63.6067 105.575 63.6092 105.592 63.6092L105.59 63.6067Z" fill="white" />
    <path d="M14.7467 77.1257C14.4589 77.1257 14.2857 76.8862 14.2857 76.4864V33.6474L66.7494 3.35704V46.0254C66.7494 46.6799 66.2885 47.4797 65.7205 47.8057L15.1644 76.9958C15.0167 77.0824 14.8715 77.1257 14.7467 77.1257Z" fill="#FAFAFA" />
    <path d="M66.5991 3.61428V46.0254C66.5991 46.6213 66.1636 47.3778 65.6466 47.6783L15.0879 76.8659C14.9631 76.9372 14.8434 76.9754 14.7441 76.9754C14.4614 76.9754 14.4308 76.6341 14.4308 76.4864V33.7315L66.5991 3.61428ZM66.8971 3.09726L14.1354 33.5608V76.4889C14.1354 76.9881 14.385 77.2759 14.7466 77.2759C14.8944 77.2759 15.0625 77.2275 15.2382 77.1257L65.7943 47.9356C66.403 47.5841 66.8971 46.7283 66.8971 46.0254V3.09726Z" fill="#E0E0E0" />
    <path d="M14.1354 33.5608V40.7278L66.8971 10.2668V3.09726L14.1354 33.5608Z" fill="#279FFE" />
    <path d="M18.2742 33.9429V34.9718C18.2742 35.1806 18.4245 35.2672 18.6053 35.1628L34.8266 25.7978V24.0048L18.6053 33.3698C18.4245 33.4742 18.2742 33.734 18.2742 33.9429Z" fill="#FAFAFA" />
    <path d="M36.5636 23.0013C36.747 22.8969 36.8947 22.981 36.8947 23.1924V24.2213C36.8947 24.4327 36.747 24.6899 36.5636 24.7944L34.824 25.7979V24.0048L36.5636 23.0013Z" fill="#455A64" />
    <path d="M14.1354 31.2508C14.1354 30.5478 14.6295 29.692 15.2382 29.3406L65.7943 0.150478C66.403 -0.200995 66.8971 0.0842584 66.8971 0.787205V3.09725L14.1354 33.5608V31.2508Z" fill="#455A64" />
    <path d="M61.0342 4.09819C60.7489 4.26374 60.5172 4.6636 60.5172 4.9947C60.5172 5.3258 60.7489 5.45824 61.0342 5.29269C61.3194 5.12714 61.5512 4.72727 61.5512 4.39618C61.5512 4.06508 61.3194 3.93264 61.0342 4.09819Z" fill="#279FFE" />
    <path d="M62.672 3.15074C62.3867 3.31629 62.1549 3.71615 62.1549 4.04725C62.1549 4.37835 62.3867 4.51079 62.672 4.34524C62.9572 4.17969 63.189 3.77982 63.189 3.44873C63.189 3.11763 62.9572 2.98519 62.672 3.15074Z" fill="#279FFE" />
    <path d="M64.312 2.20329C64.0268 2.36884 63.795 2.7687 63.795 3.0998C63.795 3.4309 64.0268 3.56334 64.312 3.39779C64.5973 3.23224 64.8291 2.83238 64.8291 2.50128C64.8291 2.17018 64.5973 2.03774 64.312 2.20329Z" fill="#279FFE" />
    <g opacity="0.1">
        <path d="M50.3447 14.9327C49.7207 15.2944 49.2139 16.1705 49.2139 16.8913C49.2139 17.6121 49.7207 17.905 50.3447 17.5433C50.9687 17.1817 51.4756 16.3055 51.4756 15.5847C51.4756 14.864 50.9687 14.5711 50.3447 14.9327Z" fill="black" />
        <path d="M45.172 17.9203C44.548 18.2819 44.0411 19.1581 44.0411 19.8788C44.0411 20.5996 44.548 20.8925 45.172 20.5309C45.796 20.1692 46.3028 19.2931 46.3028 18.5723C46.3028 17.8515 45.796 17.5586 45.172 17.9203Z" fill="black" />
        <path d="M55.5176 11.9478C54.8936 12.3094 54.3867 13.1856 54.3867 13.9063C54.3867 14.6271 54.8936 14.92 55.5176 14.5584C56.1416 14.1967 56.6484 13.3206 56.6484 12.5998C56.6484 11.879 56.1416 11.5861 55.5176 11.9478Z" fill="black" />
        <path d="M60.6903 8.95516C60.0663 9.31682 59.5595 10.193 59.5595 10.9137C59.5595 11.6345 60.0663 11.9274 60.6903 11.5657C61.3143 11.2041 61.8211 10.3279 61.8211 9.60716C61.8211 8.88639 61.3143 8.59349 60.6903 8.95516Z" fill="black" />
    </g>
    <path d="M19.377 41.2856L31.6557 34.1976C32.2644 33.8461 32.7585 34.1313 32.7585 34.8343V46.6239C32.7585 47.3269 32.2644 48.1826 31.6557 48.5341L19.377 55.6221C18.7683 55.9736 18.2742 55.6884 18.2742 54.9854V43.1958C18.2742 42.4928 18.7683 41.6371 19.377 41.2856Z" fill="#E0E0E0" />
    <path d="M36.9633 31.1336L62.6896 16.2801C63.2984 15.9286 63.7925 16.2138 63.7925 16.9168V28.7064C63.7925 29.4094 63.2984 30.2651 62.6896 30.6166L36.9633 45.4702C36.3546 45.8216 35.8605 45.5364 35.8605 44.8334V33.0438C35.8605 32.3409 36.3546 31.4851 36.9633 31.1336Z" fill="#E0E0E0" />
    <path d="M19.377 59.2056L38.8965 47.9356C39.5052 47.5841 39.9993 47.8337 39.9993 48.4933C39.9993 49.153 39.5052 49.9731 38.8965 50.3246L19.377 61.5946C18.7683 61.9461 18.2742 61.6965 18.2742 61.0368C18.2742 60.3772 18.7683 59.5571 19.377 59.2056Z" fill="#E0E0E0" />
    <path d="M19.377 63.3876L38.8965 52.1176C39.5052 51.7661 39.9993 52.0157 39.9993 52.6754C39.9993 53.335 39.5052 54.1551 38.8965 54.5066L19.377 65.7766C18.7683 66.1281 18.2742 65.8785 18.2742 65.2189C18.2742 64.5592 18.7683 63.7391 19.377 63.3876Z" fill="#E0E0E0" />
    <path d="M19.377 67.5671L38.8965 56.297C39.5052 55.9456 39.9993 56.1952 39.9993 56.8548C39.9993 57.5145 39.5052 58.3346 38.8965 58.686L19.377 69.9561C18.7683 70.3076 18.2742 70.058 18.2742 69.3983C18.2742 68.7387 18.7683 67.9186 19.377 67.5671Z" fill="#E0E0E0" />
    <path d="M28.6197 53.391C28.6197 52.9682 28.9151 52.4563 29.2819 52.2449L63.1328 32.7C63.497 32.4886 64.0905 32.4886 64.4572 32.7L65.2035 33.1304C65.5677 33.3418 65.8657 33.8537 65.8657 34.2765V60.2244C65.8657 60.6446 65.5677 61.1591 65.2035 61.3705L31.3525 80.9155C30.9883 81.1243 30.3923 81.1243 30.0281 80.9155L29.2819 80.485C28.9177 80.2762 28.6197 79.7592 28.6197 79.3389V53.391Z" fill="#279FFE" />
    <path opacity="0.4" d="M28.8106 52.739L30.6877 53.8214L65.6669 33.6245C65.5472 33.4182 65.3817 33.2373 65.2008 33.1304L64.4521 32.7025C64.0878 32.4886 63.4944 32.4886 63.1302 32.7025L29.2818 52.2449C29.0959 52.3519 28.9303 52.5327 28.8132 52.739H28.8106Z" fill="white" />
    <path opacity="0.1" d="M28.617 53.391V79.3389C28.617 79.7617 28.915 80.2736 29.2818 80.485L30.028 80.918C30.0841 80.9486 30.1426 80.9766 30.2089 80.9995C30.2929 81.0275 30.3846 81.0505 30.4814 81.0632C30.6546 81.0861 30.8354 81.0785 31.0035 81.0454C31.0468 81.0352 31.0901 81.0224 31.1308 81.0097C31.1588 80.9995 31.1843 80.9919 31.2098 80.9791C31.0875 81.0224 30.9806 81.0173 30.894 80.974C30.7692 80.9078 30.6902 80.7576 30.6902 80.5385V54.5906C30.6902 54.3181 30.8277 54.1118 31.034 54.0278L30.6902 53.8266L28.8131 52.7441C28.6934 52.9504 28.6196 53.1847 28.6196 53.3961L28.617 53.391Z" fill="black" />
    <path opacity="0.2" d="M30.6903 53.8214L46.3665 59.6793C47.4846 60.0945 48.7402 59.6819 49.3897 58.6835L51.906 54.8275L65.7917 33.5532L52.4078 54.9726L65.8605 60.2371C65.858 60.451 65.779 60.6879 65.6542 60.8968L52.3721 55.0312L49.4457 59.7124C48.7733 60.7872 47.4133 61.2049 46.257 60.693L44.1736 59.7736L30.894 80.9689C30.7692 80.9027 30.6903 80.7524 30.6903 80.5334V80.1004L44.1099 59.7456L30.6903 53.8214Z" fill="black" />
    <path d="M58.6221 24.0328V83.605C58.6221 84.3079 59.1162 84.5932 59.7249 84.2417L86.4878 68.7896C87.0965 68.4381 87.5906 67.5824 87.5906 66.8794V7.30983C87.5906 6.60689 87.0965 6.32163 86.4878 6.67311L59.7249 22.1252C59.1162 22.4767 58.6221 23.3324 58.6221 24.0354V24.0328Z" fill="#FAFAFA" stroke="#E0E0E0" stroke-width="1.17" stroke-miterlimit="10" />
    <path d="M60.1732 25.1433C60.1732 24.9777 60.3006 24.7714 60.4611 24.6798L63.5097 22.9198C63.6676 22.8282 63.7975 22.8893 63.7975 23.0523C63.7975 23.2153 63.6702 23.4241 63.5097 23.5158L60.4611 25.2757C60.3031 25.3674 60.1732 25.3063 60.1732 25.1433Z" fill="#455A64" />
    <path d="M60.1732 26.3301C60.1732 26.1646 60.3006 25.9583 60.4611 25.8666L63.5097 24.1067C63.6676 24.015 63.7975 24.0761 63.7975 24.2391C63.7975 24.4021 63.6702 24.611 63.5097 24.7027L60.4611 26.4626C60.3031 26.5543 60.1732 26.4932 60.1732 26.3301Z" fill="#455A64" />
    <path d="M60.1732 27.517C60.1732 27.3514 60.3006 27.1451 60.4611 27.0535L63.5097 25.2935C63.6676 25.2019 63.7975 25.263 63.7975 25.426C63.7975 25.589 63.6702 25.7978 63.5097 25.8895L60.4611 27.6494C60.3031 27.7411 60.1732 27.68 60.1732 27.517Z" fill="#455A64" />
    <path d="M85.5201 12.2407V11.7644C85.5201 11.7364 85.4997 11.7236 85.4742 11.7338L85.1075 11.8994C85.082 11.9121 85.054 11.8994 85.0464 11.8714C85.026 11.8051 84.998 11.744 84.9649 11.6905C84.9496 11.6651 84.947 11.6269 84.9598 11.6014L85.2043 11.1073C85.217 11.0818 85.2068 11.0487 85.1814 11.036L84.9165 10.8832C84.891 10.8679 84.8604 10.8755 84.8426 10.901L84.537 11.3594C84.5217 11.3824 84.486 11.4002 84.458 11.4002C84.3944 11.4002 84.3281 11.4053 84.2594 11.4206C84.2313 11.4257 84.2084 11.4104 84.2033 11.3824L84.1626 10.9825C84.16 10.9545 84.1371 10.9417 84.1142 10.957L83.7016 11.1939C83.6761 11.2092 83.6558 11.2423 83.6532 11.2703L83.6125 11.7287C83.6099 11.7568 83.5895 11.795 83.5692 11.8153C83.4902 11.8892 83.4112 11.9707 83.3399 12.0573C83.3221 12.0802 83.2864 12.0904 83.2584 12.0802L82.9936 11.9885C82.9655 11.9783 82.9324 11.9911 82.9197 12.0165L82.6166 12.5412C82.6013 12.5667 82.609 12.5998 82.6293 12.6202L82.8407 12.8035C82.8611 12.8214 82.8713 12.8596 82.8611 12.885C82.8229 12.992 82.7898 13.099 82.7669 13.2034C82.7618 13.2314 82.7363 13.2671 82.7134 13.2823L82.3365 13.5472C82.3135 13.5625 82.2932 13.6007 82.2932 13.6287V14.105C82.2932 14.133 82.3135 14.1457 82.339 14.1356L82.7058 13.97C82.7312 13.9573 82.7592 13.97 82.7669 13.998C82.7873 14.0642 82.8153 14.1254 82.8484 14.1789C82.8637 14.2043 82.8662 14.2425 82.8535 14.268L82.609 14.7596C82.5962 14.785 82.6064 14.8181 82.6319 14.8309L82.8968 14.9837C82.9222 14.999 82.9528 14.9913 82.9706 14.9659L83.2763 14.5074C83.2915 14.4845 83.3272 14.4667 83.3552 14.4667C83.4189 14.4667 83.4851 14.4616 83.5539 14.4463C83.5819 14.4412 83.6048 14.4565 83.6099 14.4845L83.6507 14.8844C83.6532 14.9124 83.6761 14.9251 83.699 14.9098L84.1116 14.673C84.1371 14.6577 84.1575 14.6246 84.16 14.5966L84.2008 14.1381C84.2033 14.1101 84.2237 14.0719 84.2441 14.0515C84.323 13.9777 84.402 13.8962 84.4733 13.8096C84.4911 13.7866 84.5268 13.7764 84.5548 13.7866L84.8197 13.8783C84.8477 13.8885 84.8808 13.8758 84.8935 13.8503L85.1966 13.3256C85.2119 13.3002 85.2043 13.2671 85.1839 13.2467L84.9725 13.0633C84.9521 13.0455 84.9419 13.0073 84.9521 12.9818C84.9903 12.8748 85.0234 12.7679 85.0464 12.6634C85.0515 12.6354 85.0769 12.5998 85.0998 12.5845L85.4768 12.3196C85.4997 12.3043 85.5201 12.2661 85.5201 12.2381V12.2407ZM83.9079 13.7357C83.5233 13.9573 83.2126 13.7764 83.2126 13.3333C83.2126 12.8901 83.5233 12.3502 83.9079 12.1286C84.2925 11.907 84.6032 12.0878 84.6032 12.531C84.6032 12.9742 84.2925 13.5141 83.9079 13.7357Z" fill="#37474F" />
    <path d="M73.1064 23.9819C76.234 22.1761 78.7682 23.6406 78.7682 27.2496C78.7682 30.8585 76.234 35.252 73.1064 37.0552C69.9788 38.8609 67.4447 37.3965 67.4447 33.7849C67.4447 30.1734 69.9788 25.7826 73.1064 23.9794V23.9819Z" fill="#455A64" />
    <path d="M73.0658 26.8243C74.0794 26.2385 74.9021 26.7122 74.9021 27.8838C74.9021 29.0554 74.0794 30.4791 73.0658 31.0649C72.0521 31.6507 71.2295 31.1769 71.2295 30.0054C71.2295 28.8338 72.0521 27.4101 73.0658 26.8243Z" fill="#279FFE" />
    <path d="M76.6849 33.0693C76.6849 31.1438 75.3325 30.3645 73.6668 31.3272L72.6251 31.9283C70.9595 32.891 69.6071 35.2316 69.6071 37.1545V37.6792C69.9076 37.7785 70.2336 37.8295 70.58 37.8295C71.339 37.8295 72.1973 37.5799 73.104 37.0552C74.4615 36.2707 75.7094 34.9973 76.6849 33.5124V33.0667V33.0693Z" fill="#279FFE" />
    <path d="M67.9948 42.4292L78.2155 36.528C78.5211 36.3522 78.7682 36.477 78.7682 36.8081C78.7682 37.1392 78.5211 37.5467 78.2155 37.725L67.9948 43.6262C67.6891 43.8019 67.4421 43.6771 67.4421 43.346C67.4421 43.0149 67.6891 42.6074 67.9948 42.4292Z" fill="#279FFE" />
    <path d="M66.8971 46.6494L79.3107 39.4747C79.6163 39.299 79.8634 39.4238 79.8634 39.7549C79.8634 40.086 79.6163 40.4935 79.3107 40.6718L66.8971 47.8464C66.5914 48.0222 66.3444 47.8974 66.3444 47.5663C66.3444 47.2352 66.5914 46.8277 66.8971 46.6494Z" fill="#455A64" />
    <path d="M79.6443 45.2588L83.1209 43.2518C83.3042 43.1474 83.452 43.1958 83.452 43.3588C83.452 43.5218 83.3042 43.7434 83.1209 43.8478L79.6443 45.8547C79.4609 45.9592 79.3132 45.9133 79.3132 45.7478C79.3132 45.5822 79.4609 45.3632 79.6443 45.2588Z" fill="#37474F" />
    <path d="M62.277 54.094L67.381 51.1472C67.6866 50.9715 67.9337 51.1141 67.9337 51.4656V54.9701C67.9337 55.3216 67.6866 55.7495 67.3835 55.9252L62.2795 58.872C61.9739 59.0477 61.7268 58.9051 61.7268 58.5536V55.0491C61.7268 54.6976 61.9739 54.2697 62.2795 54.094H62.277Z" fill="#279FFE" />
    <path d="M63.0895 54.583L66.566 52.576C66.7494 52.4716 66.8971 52.52 66.8971 52.683C66.8971 52.846 66.7494 53.0676 66.566 53.172L63.0895 55.179C62.9061 55.2834 62.7584 55.235 62.7584 55.072C62.7584 54.909 62.9061 54.6874 63.0895 54.583Z" fill="#FAFAFA" />
    <path d="M62.7609 56.3505V57.3795C62.7609 57.5909 62.9086 57.6749 63.092 57.5705L66.5685 55.5636C66.7519 55.4591 66.8996 55.2019 66.8996 54.9905V53.9615C66.8996 53.7502 66.7519 53.6661 66.5685 53.7705L63.092 55.7775C62.9086 55.8819 62.7609 56.1392 62.7609 56.3505Z" fill="#FAFAFA" />
    <path d="M70.5519 49.316L75.6559 46.3692C75.9615 46.1935 76.2086 46.3361 76.2086 46.6876V50.1921C76.2086 50.5436 75.9615 50.9715 75.6559 51.1472L70.5519 54.094C70.2463 54.2697 69.9992 54.1271 69.9992 53.7756V50.2711C69.9992 49.9196 70.2463 49.4917 70.5519 49.316Z" fill="#279FFE" />
    <path d="M71.367 49.805L74.8435 47.798C75.0269 47.6936 75.1746 47.742 75.1746 47.905C75.1746 48.068 75.0269 48.2896 74.8435 48.394L71.367 50.401C71.1836 50.5054 71.0359 50.457 71.0359 50.294C71.0359 50.131 71.1836 49.9094 71.367 49.805Z" fill="#FAFAFA" />
    <path d="M71.0359 51.5725V52.6015C71.0359 52.8129 71.1836 52.8969 71.367 52.7925L74.8435 50.7855C75.0269 50.6811 75.1746 50.4239 75.1746 50.2125V49.1835C75.1746 48.9722 75.0269 48.8881 74.8435 48.9925L71.367 50.9995C71.1836 51.1039 71.0359 51.3612 71.0359 51.5725Z" fill="#FAFAFA" />
    <path d="M78.8293 44.5354L83.9333 41.5887C84.2389 41.4129 84.486 41.5556 84.486 41.907V45.4116C84.486 45.763 84.2389 46.1909 83.9333 46.3667L78.8293 49.3134C78.5237 49.4892 78.2766 49.3465 78.2766 48.9951V45.4905C78.2766 45.1391 78.5237 44.7112 78.8267 44.5354H78.8293Z" fill="#279FFE" />
    <path d="M79.6443 45.027L83.1208 43.02C83.3042 42.9156 83.4519 42.9615 83.4519 43.127C83.4519 43.2926 83.3042 43.5116 83.1208 43.616L79.6443 45.623C79.4609 45.7274 79.3132 45.6816 79.3132 45.516C79.3132 45.3505 79.4609 45.1314 79.6443 45.027Z" fill="#FAFAFA" />
    <path d="M79.3132 46.7945V47.8235C79.3132 48.0349 79.4609 48.1189 79.6443 48.0145L83.1208 46.0075C83.3042 45.9031 83.4519 45.6459 83.4519 45.4345V44.4055C83.4519 44.1942 83.3042 44.1101 83.1208 44.2145L79.6443 46.2215C79.4609 46.3259 79.3132 46.5831 79.3132 46.7945Z" fill="#FAFAFA" />
    <path d="M62.8272 62.1371L83.3807 50.2711C83.9894 49.9196 84.4835 50.1692 84.4835 50.8288C84.4835 51.4885 83.9894 52.3086 83.3807 52.6601L62.8272 64.5261C62.2185 64.8776 61.7244 64.628 61.7244 63.9683C61.7244 63.3087 62.2185 62.4886 62.8272 62.1371Z" fill="#E0E0E0" />
    <path d="M62.8272 66.9151L83.3807 55.0491C83.9894 54.6976 84.4835 54.9472 84.4835 55.6068C84.4835 56.2665 83.9894 57.0866 83.3807 57.4381L62.8272 69.3041C62.2185 69.6556 61.7244 69.406 61.7244 68.7463C61.7244 68.0867 62.2185 67.2666 62.8272 66.9151Z" fill="#E0E0E0" />
    <path d="M69.5179 69.0265L76.6925 64.8852C76.9981 64.7095 77.2452 64.8521 77.2452 65.2036V67.5136C77.2452 67.8651 76.9981 68.293 76.6925 68.4687L69.5179 72.61C69.2122 72.7857 68.9652 72.6431 68.9652 72.2916V69.9816C68.9652 69.6301 69.2122 69.2022 69.5153 69.0265H69.5179Z" fill="#279FFE" />
    <path d="M63.2779 62.4886C62.9926 62.6541 62.7608 63.054 62.7608 63.3851C62.7608 63.7162 62.9926 63.8486 63.2779 63.6831C63.5631 63.5175 63.7949 63.1177 63.7949 62.7866C63.7949 62.4555 63.5631 62.323 63.2779 62.4886Z" fill="#FAFAFA" />
    <path d="M64.9156 61.5411C64.6304 61.7067 64.3986 62.1065 64.3986 62.4376C64.3986 62.7687 64.6304 62.9012 64.9156 62.7356C65.2009 62.5701 65.4326 62.1702 65.4326 61.8391C65.4326 61.508 65.2009 61.3756 64.9156 61.5411Z" fill="#FAFAFA" />
    <path d="M66.5532 60.5937C66.268 60.7592 66.0362 61.1591 66.0362 61.4902C66.0362 61.8213 66.268 61.9537 66.5532 61.7882C66.8385 61.6226 67.0703 61.2228 67.0703 60.8917C67.0703 60.5606 66.8385 60.4281 66.5532 60.5937Z" fill="#FAFAFA" />
    <path d="M68.1935 59.6462C67.9082 59.8118 67.6765 60.2117 67.6765 60.5427C67.6765 60.8738 67.9082 61.0063 68.1935 60.8407C68.4787 60.6752 68.7105 60.2753 68.7105 59.9442C68.7105 59.6131 68.4787 59.4807 68.1935 59.6462Z" fill="#FAFAFA" />
    <path d="M69.8311 58.6988C69.5459 58.8643 69.3141 59.2642 69.3141 59.5953C69.3141 59.9264 69.5459 60.0588 69.8311 59.8933C70.1164 59.7277 70.3481 59.3279 70.3481 58.9968C70.3481 58.6657 70.1164 58.5332 69.8311 58.6988Z" fill="#FAFAFA" />
    <path d="M71.4713 57.7513C71.1861 57.9169 70.9543 58.3168 70.9543 58.6479C70.9543 58.979 71.1861 59.1114 71.4713 58.9458C71.7566 58.7803 71.9883 58.3804 71.9883 58.0493C71.9883 57.7182 71.7566 57.5858 71.4713 57.7513Z" fill="#FAFAFA" />
    <path d="M73.109 56.8039C72.8237 56.9694 72.5919 57.3693 72.5919 57.7004C72.5919 58.0315 72.8237 58.1639 73.109 57.9984C73.3942 57.8328 73.626 57.433 73.626 57.1019C73.626 56.7708 73.3942 56.6383 73.109 56.8039Z" fill="#FAFAFA" />
    <path d="M63.2779 67.2717C62.9926 67.4372 62.7608 67.8371 62.7608 68.1682C62.7608 68.4993 62.9926 68.6317 63.2779 68.4662C63.5631 68.3006 63.7949 67.9008 63.7949 67.5697C63.7949 67.2386 63.5631 67.1061 63.2779 67.2717Z" fill="#FAFAFA" />
    <path d="M64.9156 66.3242C64.6304 66.4898 64.3986 66.8896 64.3986 67.2207C64.3986 67.5518 64.6304 67.6843 64.9156 67.5187C65.2009 67.3532 65.4326 66.9533 65.4326 66.6222C65.4326 66.2911 65.2009 66.1587 64.9156 66.3242Z" fill="#FAFAFA" />
    <path d="M66.5532 65.3768C66.268 65.5423 66.0362 65.9422 66.0362 66.2733C66.0362 66.6044 66.268 66.7368 66.5532 66.5713C66.8385 66.4057 67.0703 66.0058 67.0703 65.6748C67.0703 65.3437 66.8385 65.2112 66.5532 65.3768Z" fill="#FAFAFA" />
    <path d="M68.1935 64.4293C67.9082 64.5949 67.6765 64.9947 67.6765 65.3258C67.6765 65.6569 67.9082 65.7894 68.1935 65.6238C68.4787 65.4583 68.7105 65.0584 68.7105 64.7273C68.7105 64.3962 68.4787 64.2638 68.1935 64.4293Z" fill="#FAFAFA" />
    <path d="M69.8311 63.4819C69.5459 63.6474 69.3141 64.0473 69.3141 64.3784C69.3141 64.7095 69.5459 64.8419 69.8311 64.6764C70.1164 64.5108 70.3481 64.111 70.3481 63.7799C70.3481 63.4488 70.1164 63.3163 69.8311 63.4819Z" fill="#FAFAFA" />
    <path d="M71.4713 62.5344C71.1861 62.7 70.9543 63.0998 70.9543 63.4309C70.9543 63.762 71.1861 63.8945 71.4713 63.7289C71.7566 63.5634 71.9883 63.1635 71.9883 62.8324C71.9883 62.5013 71.7566 62.3689 71.4713 62.5344Z" fill="#FAFAFA" />
    <path d="M73.109 61.587C72.8237 61.7525 72.5919 62.1524 72.5919 62.4835C72.5919 62.8146 72.8237 62.947 73.109 62.7815C73.3942 62.6159 73.626 62.2161 73.626 61.885C73.626 61.5539 73.3942 61.4214 73.109 61.587Z" fill="#FAFAFA" />
    <path d="M96.0947 72.3553C95.2008 72.3553 94.3552 72.1363 93.586 71.6931C91.7497 70.6336 90.6978 68.4153 90.6978 65.6086C90.6978 60.6727 93.8356 54.993 97.8419 52.6805C99.9992 51.435 102.141 51.3 103.873 52.301C105.709 53.3605 106.761 55.5788 106.761 58.3855C106.761 63.3214 103.623 69.001 99.6171 71.3136C98.415 72.0064 97.2179 72.3553 96.0947 72.3553ZM101.357 55.1943C100.715 55.1943 100.035 55.5177 99.6171 55.7571C96.7086 57.4355 94.2508 61.9487 94.2508 65.6086C94.2508 67.0909 94.6659 68.214 95.3612 68.6165C96.1533 69.0749 97.2536 68.5757 97.8394 68.237C100.748 66.5586 103.206 62.0454 103.206 58.3855C103.206 56.9032 102.791 55.78 102.095 55.3776C101.869 55.2452 101.614 55.1943 101.357 55.1943Z" fill="#455A64" />
    <path d="M103.842 59.1751C103.842 56.4015 102.095 55.3776 102.095 55.3776C102.791 55.7801 103.206 56.9032 103.206 58.3855C103.206 62.0454 100.748 66.556 97.8394 68.237C97.2536 68.5757 96.1534 69.0749 95.3613 68.6165C95.3613 68.6165 96.8359 69.5308 98.8709 68.4204C101.82 66.8107 103.84 62.8375 103.84 59.1776L103.842 59.1751Z" fill="#37474F" />
    <path d="M101.041 24.5142C101.041 23.5006 100.218 22.6779 99.2046 22.6779C98.1909 22.6779 97.3682 23.5006 97.3682 24.5142C97.3682 24.5142 97.3682 24.5168 97.3682 24.5193V53.7349C97.3682 54.0074 97.5465 54.2774 97.9056 54.4837C98.6239 54.8988 99.7852 54.8988 100.503 54.4837C100.863 54.2774 101.041 54.0049 101.041 53.7349V24.5193C101.041 24.5193 101.041 24.5168 101.041 24.5142Z" fill="#37474F" />
    <path d="M99.5738 31.042C99.5738 30.3645 99.1 29.5418 98.5117 29.2056C98.2137 29.0324 97.9463 29.0223 97.7527 29.1394L93.2192 31.75L93.1097 31.8162C93.0944 31.8239 93.0792 31.8315 93.0664 31.8417C92.9875 31.8952 92.9161 31.9538 92.8499 32.02C92.5749 32.2925 92.4068 32.6694 92.4068 33.0846C92.4068 33.6551 92.7226 34.1492 93.1887 34.4064C93.4026 34.521 93.6446 34.5873 93.9069 34.5873C94.1692 34.5873 94.4112 34.521 94.6226 34.4064C94.6506 34.3911 94.6812 34.3733 94.7092 34.358L99.2707 31.7296C99.4591 31.6176 99.5763 31.3807 99.5763 31.0445L99.5738 31.042Z" fill="#455A64" />
    <path d="M99.5738 38.3592C99.5738 37.6817 99.1 36.8591 98.5117 36.5229C98.2137 36.3497 97.9463 36.3395 97.7527 36.4567L92.4399 39.5053L92.3304 39.5715C92.3151 39.5792 92.2998 39.5868 92.2871 39.597C92.2081 39.6479 92.1368 39.7091 92.0706 39.7753C91.7955 40.0478 91.6274 40.4247 91.6274 40.8399C91.6274 41.4104 91.9432 41.9045 92.4093 42.1617C92.6232 42.2763 92.8652 42.3426 93.1275 42.3426C93.3899 42.3426 93.6318 42.2763 93.8432 42.1617C93.8712 42.1465 93.9018 42.1286 93.9298 42.1133L99.2707 39.0469C99.4591 38.9348 99.5763 38.6979 99.5763 38.3617L99.5738 38.3592Z" fill="#455A64" />
</svg>
    