<svg width="28" height="28" viewBox="0 0 28 28" fill="none" xmlns="http://www.w3.org/2000/svg">
    <rect width="28" height="28" rx="5" fill="white" />
    <path fill-rule="evenodd" clip-rule="evenodd" d="M10.5494 5.76465H17.4514C19.9953 5.76465 21.4118 7.23053 21.4118 9.7423V18.2494C21.4118 20.8023 19.9953 22.2352 17.4514 22.2352H10.5494C8.0459 22.2352 6.58826 20.8023 6.58826 18.2494V9.7423C6.58826 7.23053 8.0459 5.76465 10.5494 5.76465ZM10.7718 9.6023V9.59406H13.2333C13.5883 9.59406 13.8765 9.8823 13.8765 10.2356C13.8765 10.5988 13.5883 10.887 13.2333 10.887H10.7718C10.4168 10.887 10.1294 10.5988 10.1294 10.2446C10.1294 9.89053 10.4168 9.6023 10.7718 9.6023ZM10.7718 14.6094H17.2283C17.5824 14.6094 17.8706 14.3211 17.8706 13.967C17.8706 13.6129 17.5824 13.3238 17.2283 13.3238H10.7718C10.4168 13.3238 10.1294 13.6129 10.1294 13.967C10.1294 14.3211 10.4168 14.6094 10.7718 14.6094ZM10.7718 18.3729H17.2283C17.5568 18.3399 17.8047 18.0591 17.8047 17.7305C17.8047 17.3929 17.5568 17.1129 17.2283 17.0799H10.7718C10.5247 17.0552 10.2859 17.1705 10.1541 17.3846C10.0224 17.5905 10.0224 17.8623 10.1541 18.0764C10.2859 18.2823 10.5247 18.4058 10.7718 18.3729Z" fill="#279FFE" />
</svg>
    