<svg width="104" height="117" viewBox="0 0 104 117" fill="none" xmlns="http://www.w3.org/2000/svg">
    <path d="M97.9679 19.0309L99.744 22.6282L103.716 23.2051L100.842 26.0075L101.52 29.961L97.9679 28.0946L94.4185 29.961L95.0965 26.0075L92.2224 23.2051L96.1946 22.6282L97.9679 19.0309Z" fill="#EBEBEB" />
    <path d="M6.65196 53.761L7.77129 56.0289L10.2758 56.3932L8.46522 58.1586L8.89062 60.6498L6.65196 59.4746L4.41596 60.6498L4.84136 58.1586L3.03076 56.3932L5.53529 56.0289L6.65196 53.761Z" fill="#EBEBEB" />
    <path d="M8.04268 33.6572L10.5259 38.6928L16.0854 39.4984L12.0627 43.42L13.0119 48.9529L8.04268 46.342L3.07084 48.9529L4.02001 43.42L0 39.4984L5.55676 38.6928L8.04268 33.6572Z" fill="#EBEBEB" />
    <path d="M96.3889 35.2785L97.4603 37.448L99.8532 37.7963L98.1197 39.4872L98.5291 41.8721L96.3889 40.7448L94.2459 41.8721L94.6554 39.4872L92.9219 37.7963L95.3174 37.448L96.3889 35.2785Z" fill="#EBEBEB" />
    <path d="M61.2324 0.116669L62.3039 2.2862L64.6994 2.63449L62.9659 4.32279L63.3753 6.70768L61.2324 5.58303L59.0921 6.70768L59.5016 4.32279L57.7681 2.63449L60.1636 2.2862L61.2324 0.116669Z" fill="#EBEBEB" />
    <path d="M85.7406 23.3381L86.4425 24.7578L88.0085 24.9865L86.8758 26.0899L87.1417 27.6532L85.7406 26.9141L84.3394 27.6532L84.6053 26.0899L83.4727 24.9865L85.0387 24.7578L85.7406 23.3381Z" fill="#EBEBEB" />
    <path d="M21.0536 95.0442L22.4175 97.8093L25.4724 98.2533L23.263 100.407L23.7841 103.448L21.0536 102.013L18.3231 103.448L18.8442 100.407L16.6348 98.2533L19.687 97.8093L21.0536 95.0442Z" fill="#EBEBEB" />
    <path d="M24.6588 92.2924L25.2225 93.4357L26.4827 93.6191L25.5708 94.5098L25.7861 95.7647L24.6588 95.1718L23.5289 95.7647L23.7442 94.5098L22.8323 93.6191L24.0925 93.4357L24.6588 92.2924Z" fill="#EBEBEB" />
    <path d="M75.0819 81.7L76.2837 84.1328L78.9663 84.5209L77.0255 86.4166L77.4828 89.0886L75.0819 87.8257L72.6811 89.0886L73.1384 86.4166L71.1975 84.5209L73.8828 84.1328L75.0819 81.7Z" fill="#2C9AFF" />
    <path d="M80.8089 79.5438L81.3753 80.6897L82.6408 80.8731L81.7262 81.7665L81.9416 83.0267L80.8089 82.4312L79.679 83.0267L79.8943 81.7665L78.9797 80.8731L80.2453 80.6897L80.8089 79.5438Z" fill="#2C9AFF" />
    <path d="M73.3035 16.2259L74.242 13.2854C73.5109 11.8204 73.1652 10.1401 73.3221 8.39065C73.7767 3.35766 78.2328 -0.353935 83.2711 0.103368C88.3121 0.558012 92.029 5.00874 91.5717 10.0417C91.117 15.0747 86.661 18.7863 81.6227 18.329C79.517 18.1376 77.7861 17.3772 76.3477 16.0425L73.3008 16.2259H73.3035Z" fill="#FAFAFA" />
    <path d="M73.3035 16.2259C73.3035 16.2259 73.3753 16.218 73.5056 16.21C73.6412 16.1994 73.8379 16.1861 74.0905 16.1675C74.6063 16.1329 75.364 16.0797 76.3478 16.0132H76.3611L76.3717 16.0212C77.2384 16.8215 78.5598 17.7069 80.3492 18.0871C80.7932 18.1828 81.2611 18.2572 81.7477 18.2865C81.9923 18.2944 82.2395 18.3051 82.4921 18.3157C82.7447 18.3157 82.9999 18.2865 83.2605 18.2732C84.2974 18.1775 85.3821 17.8983 86.4244 17.3878C87.4666 16.88 88.461 16.1435 89.2931 15.1944C90.1227 14.2452 90.798 13.086 91.1729 11.7859C91.5478 10.4884 91.6408 9.06597 91.3989 7.66216C91.3563 7.30854 91.2447 6.96557 91.1569 6.61727C91.117 6.4418 91.0426 6.2743 90.9814 6.10414C90.9176 5.93664 90.8565 5.76382 90.7874 5.59632C90.4736 4.94227 90.1306 4.28556 89.6627 3.70861C89.45 3.40286 89.1895 3.1423 88.9422 2.87111C88.8252 2.7302 88.6763 2.61853 88.5434 2.49357C88.4051 2.37393 88.2775 2.24365 88.1339 2.13464L87.6979 1.81294L87.4799 1.65341L87.2486 1.51516L86.786 1.23865C86.6318 1.15091 86.4642 1.08178 86.3047 1.00468C85.0179 0.401146 83.6247 0.108685 82.2741 0.137931C80.9234 0.164519 79.6286 0.494202 78.4934 1.0419C77.3581 1.5896 76.3823 2.35 75.6166 3.21675C74.8482 4.0835 74.2899 5.05394 73.9203 6.02703C73.8751 6.14933 73.8326 6.27164 73.7901 6.39128C73.7449 6.51092 73.705 6.63057 73.6784 6.75553C73.6172 7.00013 73.5587 7.24208 73.4976 7.4787C73.4338 7.96259 73.3434 8.42787 73.3354 8.88252C73.261 10.7038 73.7422 12.2166 74.266 13.2774L74.2713 13.288V13.2987C73.9576 14.2452 73.7183 14.9737 73.5534 15.4709C73.471 15.7155 73.4099 15.9042 73.3673 16.0345C73.3248 16.1621 73.3009 16.2286 73.3009 16.2286C73.3009 16.2286 73.3168 16.1675 73.354 16.0425C73.3939 15.9122 73.4524 15.7261 73.5268 15.4815C73.6837 14.9763 73.9124 14.2372 74.2101 13.2774V13.2987C73.6757 12.2378 73.1786 10.7144 73.2424 8.87454C73.2503 8.41458 73.3354 7.94664 73.3992 7.45743C73.4577 7.21815 73.5162 6.97354 73.5774 6.72628C73.6039 6.60132 73.6438 6.47902 73.689 6.35672C73.7316 6.23441 73.7768 6.11211 73.8193 5.98715C74.1862 5.00342 74.7499 4.01703 75.5262 3.13699C76.2999 2.25694 77.2836 1.48325 78.4349 0.924917C79.5834 0.366583 80.8995 0.0315818 82.2688 0.00233574C83.638 -0.0295691 85.0525 0.265551 86.3606 0.87706C86.5227 0.956822 86.6902 1.02595 86.8471 1.11369L87.3151 1.39285L87.549 1.53377L87.7697 1.69595L88.2137 2.02298C88.3599 2.13464 88.4902 2.26758 88.6311 2.38722C88.7667 2.51484 88.9156 2.62651 89.0353 2.77008C89.2852 3.04659 89.551 3.3098 89.7664 3.61822C90.2397 4.20314 90.5906 4.87048 90.907 5.53517C90.9788 5.70533 91.0373 5.8808 91.1038 6.05096C91.1649 6.22378 91.242 6.39128 91.2819 6.57207C91.3723 6.92569 91.4866 7.27398 91.5291 7.63291C91.7738 9.05799 91.6754 10.5017 91.2952 11.8178C90.9123 13.1365 90.2264 14.3117 89.3809 15.2715C88.5354 16.2339 87.5251 16.9757 86.4669 17.4862C85.4087 17.9993 84.308 18.2785 83.2605 18.3715C82.9973 18.3848 82.7394 18.4088 82.4841 18.4114C82.2289 18.4008 81.979 18.3902 81.7317 18.3795C81.2398 18.3476 80.7692 18.2705 80.3199 18.1721C78.5146 17.7813 77.1853 16.8747 76.3238 16.0611L76.3451 16.0691C75.3507 16.1223 74.5877 16.1621 74.0666 16.1887C73.8166 16.202 73.6226 16.21 73.487 16.218C73.3593 16.2233 73.2955 16.2259 73.2955 16.2259H73.3035Z" fill="#263238" />
    <path d="M77.2544 8.86922L78.7619 7.56378L81.3036 10.172L86.996 5.42882L88.2031 6.92834L80.9075 12.8706L77.2544 8.86922Z" fill="#2C9AFF" />
    <path d="M47.957 79.6741L54.6305 114.921L60.7269 103.656L72.2818 110.438L60.0144 76.1167L47.957 79.6741Z" fill="#2C9AFF" />
    <g opacity="0.3">
        <path d="M50.2011 91.5294C51.4348 91.7846 52.8732 91.3486 53.7479 90.4419C54.3567 89.8118 54.7609 88.9584 55.5266 88.5383C56.2152 88.1607 57.0633 88.2139 57.8184 88.424C58.5735 88.634 59.2887 88.9823 60.0464 89.1817C61.5353 89.5672 63.1784 89.3253 64.4918 88.5223L62.5669 83.1783L53.6336 82.0616L49.3743 87.1797L50.1985 91.532L50.2011 91.5294Z" fill="black" />
    </g>
    <path d="M60.2909 102.255C60.2537 102.265 59.2594 98.6043 58.0736 94.0791C56.8851 89.5539 55.9519 85.8769 55.9891 85.8689C56.0263 85.8583 57.018 89.5194 58.2092 94.0445C59.3976 98.5697 60.3308 102.244 60.2936 102.255H60.2909Z" fill="#263238" />
    <path d="M48.9356 81.5086L42.2622 116.753L36.1657 105.488L24.6108 112.27L36.8782 77.9512L48.9356 81.5086Z" fill="#2C9AFF" />
    <g opacity="0.3">
        <path d="M33.2092 88.2166C33.2092 88.2166 35.1075 89.7772 37.3701 89.0594C39.6327 88.3389 41.0392 88.1873 42.2649 89.0594C43.4905 89.9315 46.806 92.771 46.806 92.771L47.5744 88.7058L43.121 82.5907L38.4708 83.5292L35.1581 83.8589L33.9271 86.188L33.2065 88.2166H33.2092Z" fill="black" />
    </g>
    <path d="M88.0483 49.6915C88.0483 52.2199 84.8153 54.3974 84.342 56.7876C83.8555 59.2496 85.9984 62.4959 85.0599 64.7612C84.1028 67.0663 80.2822 67.8427 78.9129 69.8899C77.5304 71.9557 78.2668 75.779 76.5174 77.5284C74.7679 79.2779 70.942 78.5414 68.8788 79.924C66.8289 81.2959 66.0553 85.1165 63.7501 86.071C61.4849 87.0095 58.2386 84.8666 55.7766 85.3531C53.3864 85.8264 51.2089 89.0594 48.6804 89.0594C46.152 89.0594 43.9744 85.8264 41.5842 85.3531C39.1223 84.8666 35.8759 87.0095 33.6107 86.071C31.3056 85.1138 30.5292 81.2932 28.482 79.924C26.4162 78.5414 22.5929 79.2779 20.8434 77.5284C19.094 75.779 19.8305 71.9531 18.4479 69.8899C17.076 67.84 13.2554 67.0663 12.3009 64.7612C11.3624 62.4959 13.5053 59.2496 13.0188 56.7876C12.5455 54.3974 9.3125 52.2199 9.3125 49.6915C9.3125 47.163 12.5455 44.9855 13.0188 42.5953C13.5053 40.1333 11.3624 36.887 12.3009 34.6218C13.2581 32.3166 17.0787 31.5403 18.4479 29.4931C19.8305 27.4272 19.094 23.6039 20.8434 21.8545C22.5929 20.1051 26.4188 20.8415 28.482 19.459C30.5319 18.0871 31.3056 14.2665 33.6107 13.312C35.8759 12.3734 39.1223 14.5164 41.5842 14.0298C43.9744 13.5566 46.152 10.3236 48.6804 10.3236C51.2089 10.3236 53.3864 13.5566 55.7766 14.0298C58.2386 14.5164 61.4849 12.3734 63.7501 13.312C66.0553 14.2691 66.8316 18.0897 68.8788 19.459C70.9447 20.8415 74.7679 20.1051 76.5174 21.8545C78.2668 23.6039 77.5304 27.4299 78.9129 29.4931C80.2848 31.5429 84.1054 32.3166 85.0599 34.6218C85.9984 36.887 83.8555 40.1333 84.342 42.5953C84.8153 44.9855 88.0483 47.163 88.0483 49.6915Z" fill="#2C9AFF" />
    <path d="M39.4626 27.624C39.4626 27.624 39.4334 27.5894 39.3908 27.5149C39.3403 27.4272 39.2818 27.3209 39.21 27.1906C39.0532 26.9088 38.8405 26.494 38.5826 25.9782C38.0694 24.9466 37.4048 23.4949 36.764 21.8572C36.1259 20.2167 35.6314 18.6986 35.3097 17.5925C35.1475 17.0395 35.0278 16.5875 34.9507 16.2765C34.9162 16.1329 34.8869 16.0133 34.8657 15.9149C34.847 15.8325 34.8391 15.7873 34.8444 15.7873C34.8497 15.7873 34.8657 15.8271 34.8922 15.9096C34.9215 16.0053 34.9587 16.1223 35.0039 16.2632C35.1049 16.5929 35.2405 17.0316 35.4054 17.566C35.751 18.664 36.2562 20.1715 36.8943 21.8093C37.5324 23.4444 38.1811 24.8988 38.6703 25.9383C38.9123 26.4435 39.109 26.8582 39.2579 27.1693C39.3217 27.3022 39.3722 27.4139 39.4148 27.5043C39.4493 27.5814 39.4653 27.624 39.4626 27.6266V27.624Z" fill="#263238" />
    <path d="M42.9669 26.2919C42.9669 26.2919 42.9217 26.1909 42.8659 25.9995C42.8101 25.808 42.733 25.5315 42.6452 25.1859C42.4698 24.4946 42.2517 23.5348 42.055 22.466C41.8582 21.3972 41.72 20.4214 41.6402 19.7142C41.6004 19.3606 41.5711 19.0735 41.5578 18.874C41.5419 18.6746 41.5392 18.5656 41.5498 18.563C41.5605 18.5603 41.5817 18.6693 41.6136 18.8661C41.6482 19.0921 41.6908 19.3712 41.7413 19.6983C41.8476 20.4002 41.9992 21.3706 42.1959 22.4394C42.3927 23.5056 42.5947 24.468 42.7436 25.162C42.8127 25.4863 42.8739 25.7628 42.9217 25.9862C42.9616 26.1803 42.9802 26.2893 42.9723 26.2919H42.9669Z" fill="#263238" />
    <path d="M49.1484 25.6778C49.1111 25.6778 49.0128 22.6973 48.9277 19.0176C48.8453 15.3379 48.808 12.3548 48.8453 12.3522C48.8825 12.3522 48.9809 15.3326 49.0659 19.0123C49.1484 22.692 49.1856 25.6751 49.1484 25.6751V25.6778Z" fill="#263238" />
    <path d="M55.3698 19.5494C55.407 19.56 54.9763 21.0515 54.4099 22.8808C53.8436 24.71 53.3544 26.1829 53.3199 26.1696C53.2826 26.159 53.7134 24.6674 54.2797 22.8382C54.846 21.009 55.3352 19.5387 55.3698 19.5494Z" fill="#263238" />
    <path d="M57.9062 27.2544C57.9062 27.2544 57.9142 27.2092 57.9408 27.1294C57.9727 27.0337 58.0126 26.9194 58.0631 26.7785C58.1695 26.4754 58.3343 26.0393 58.5417 25.4996C58.9565 24.4255 59.5547 22.9499 60.2353 21.3307C60.9159 19.7089 61.5487 18.2492 62.014 17.1964C62.2427 16.6859 62.4314 16.2658 62.575 15.9521C62.6388 15.8192 62.692 15.7075 62.7345 15.6171C62.7717 15.54 62.7957 15.5028 62.7983 15.5028C62.801 15.5028 62.7903 15.548 62.7584 15.6277C62.7212 15.7208 62.676 15.8351 62.6229 15.9734C62.4926 16.2924 62.3171 16.7178 62.1044 17.2336C61.6524 18.313 61.0409 19.7727 60.3629 21.3839C59.6903 22.9951 59.0841 24.4547 58.6321 25.5368C58.4194 26.0553 58.2439 26.4807 58.1136 26.7971C58.0551 26.9327 58.0073 27.0443 57.9674 27.1374C57.9328 27.2145 57.9116 27.2544 57.9089 27.2544H57.9062Z" fill="#263238" />
    <path d="M61.2324 28.9879C61.2324 28.9879 61.2776 28.8868 61.384 28.7167C61.4877 28.5465 61.6472 28.3072 61.8466 28.0121C62.2454 27.4219 62.8197 26.6216 63.487 25.7655C64.157 24.9094 64.7925 24.157 65.2684 23.6252C65.505 23.3593 65.7018 23.1466 65.84 23.0057C65.9783 22.8621 66.058 22.7877 66.066 22.793C66.074 22.7983 66.0075 22.8887 65.8799 23.0429C65.7337 23.2184 65.5555 23.4364 65.3428 23.6917C64.8882 24.2367 64.2634 24.9971 63.596 25.8532C62.9287 26.7093 62.3438 27.499 61.9264 28.0733C61.7296 28.3418 61.5621 28.5678 61.4292 28.7539C61.3095 28.9134 61.2404 28.9985 61.2324 28.9932V28.9879Z" fill="#263238" />
    <path d="M66.0657 32.9521C66.0391 32.9228 68.1422 30.9235 70.7637 28.4881C73.3852 26.05 75.5308 24.0958 75.5574 24.1251C75.584 24.1543 73.4809 26.151 70.8594 28.5917C68.2379 31.0298 66.0923 32.984 66.0683 32.9547L66.0657 32.9521Z" fill="#263238" />
    <path d="M74.5099 33.7763C74.5178 33.7949 74.2068 33.9517 73.7096 34.2123C73.2097 34.4729 72.5318 34.8477 71.782 35.2705C71.0322 35.6906 70.341 36.0548 69.8305 36.2941C69.5753 36.4137 69.3652 36.5068 69.219 36.5653C69.0728 36.6238 68.9903 36.653 68.985 36.645C68.977 36.6264 69.2881 36.4696 69.7853 36.209C70.2851 35.9485 70.9631 35.5736 71.7129 35.1508C72.4626 34.7308 73.1539 34.3665 73.6644 34.1272C73.9196 34.0076 74.1297 33.9145 74.2759 33.856C74.4221 33.7975 74.5045 33.7683 74.5099 33.7763Z" fill="#263238" />
    <path d="M82.3267 37.0199C82.34 37.0571 79.8355 37.9691 76.7354 39.0618C73.6327 40.1546 71.1095 41.0107 71.0962 40.9735C71.083 40.9362 73.5875 40.0243 76.6902 38.9316C79.7903 37.8388 82.3161 36.9827 82.3294 37.0199H82.3267Z" fill="#263238" />
    <path d="M84.8153 51.2362C84.8127 51.2734 82.0901 51.0474 78.7374 50.7284C75.3848 50.4093 72.6675 50.1195 72.6729 50.0823C72.6755 50.0451 75.3981 50.2711 78.7507 50.5901C82.1034 50.9092 84.818 51.199 84.8153 51.2362Z" fill="#263238" />
    <path d="M82.8158 63.9848C82.7998 64.0194 80.2554 62.8522 77.134 61.3766C74.0127 59.901 71.4949 58.678 71.5108 58.6434C71.5268 58.6089 74.0712 59.7761 77.1925 61.2517C80.3139 62.7273 82.8317 63.9503 82.8158 63.9848Z" fill="#263238" />
    <path d="M74.4464 76.1166C74.4171 76.1406 72.5826 74.0136 70.3493 71.3628C68.1133 68.7121 66.3266 66.5452 66.3558 66.5186C66.3851 66.4947 68.2196 68.6217 70.4556 71.2724C72.6889 73.9232 74.4783 76.0901 74.449 76.114L74.4464 76.1166Z" fill="#263238" />
    <path d="M67.4591 77.7199C67.4591 77.7199 67.3713 77.6188 67.2384 77.4221C67.1028 77.2253 66.9114 76.9355 66.6827 76.5766C66.2201 75.8561 65.6006 74.8511 64.9492 73.7185C64.2978 72.5885 63.7342 71.5463 63.3433 70.7859C63.1466 70.4057 62.9924 70.0973 62.8887 69.8792C62.785 69.6639 62.7318 69.5416 62.7398 69.5389C62.7478 69.5363 62.8169 69.6479 62.9365 69.8553C63.0668 70.0866 63.2317 70.3844 63.4284 70.7407C63.8432 71.4878 64.4175 72.5194 65.0688 73.6493C65.7202 74.7793 66.3264 75.7923 66.7651 76.5234C66.9725 76.8717 67.148 77.1642 67.2836 77.3928C67.4059 77.6002 67.467 77.7145 67.4591 77.7199Z" fill="#263238" />
    <path d="M63.1199 83.8217C63.1199 83.8217 63.0906 83.7871 63.0507 83.7127C63.0029 83.6249 62.947 83.5159 62.8779 83.3883C62.729 83.1065 62.5216 82.6917 62.277 82.1733C61.7878 81.139 61.1577 79.6873 60.5595 78.0469C59.9613 76.4038 59.5093 74.8883 59.2195 73.7796C59.0733 73.2266 58.9643 72.7773 58.8978 72.4635C58.8685 72.32 58.842 72.2003 58.8207 72.102C58.8047 72.0195 58.7994 71.9743 58.8047 71.9743C58.81 71.9743 58.8233 72.0142 58.8499 72.0966C58.8765 72.1924 58.9111 72.3093 58.951 72.4503C59.044 72.7799 59.1663 73.2186 59.3152 73.753C59.6289 74.8511 60.0942 76.3586 60.6898 77.999C61.288 79.6368 61.8995 81.0911 62.3674 82.1334C62.5961 82.6385 62.7849 83.0559 62.9258 83.3644C62.9869 83.4973 63.0348 83.609 63.0773 83.6994C63.1092 83.7765 63.1252 83.819 63.1225 83.8217H63.1199Z" fill="#263238" />
    <path d="M54.3277 79.5438C54.3064 79.5438 54.2745 79.1902 54.2133 78.6185C54.1522 78.0469 54.0565 77.2573 53.9102 76.3932C53.764 75.5291 53.5992 74.7501 53.4715 74.1891C53.3439 73.6281 53.2588 73.2824 53.2801 73.2771C53.2881 73.2771 53.3227 73.3569 53.3732 73.5111C53.4237 73.6653 53.4928 73.8886 53.5673 74.1651C53.7188 74.7208 53.9023 75.4998 54.0485 76.3692C54.1947 77.2386 54.2745 78.0336 54.3117 78.6079C54.3303 78.895 54.341 79.129 54.341 79.2912C54.341 79.4534 54.341 79.5411 54.3303 79.5438H54.3277Z" fill="#263238" />
    <path d="M48.5794 87.1983C48.5794 87.1983 48.5714 87.1504 48.5688 87.0627C48.5688 86.9563 48.5661 86.8287 48.5635 86.6718C48.5608 86.3315 48.5635 85.8423 48.5741 85.2335C48.5954 84.0211 48.6512 82.3434 48.7469 80.4956C48.8426 78.6451 48.9623 76.9728 49.0606 75.763C49.1112 75.1595 49.1537 74.6703 49.1883 74.3326C49.2069 74.1758 49.2202 74.0482 49.2308 73.9445C49.2414 73.8567 49.2521 73.8089 49.2547 73.8089C49.26 73.8089 49.26 73.8567 49.2574 73.9445C49.2521 74.0508 49.2468 74.1784 49.2388 74.3353C49.2175 74.6942 49.1883 75.1808 49.1537 75.7684C49.0819 76.9994 48.9862 78.6611 48.8825 80.5009C48.7841 82.3487 48.715 84.0237 48.6698 85.2361C48.6485 85.8264 48.6299 86.3129 48.6166 86.6718C48.6087 86.8287 48.6033 86.9563 48.598 87.0627C48.5927 87.1531 48.5874 87.1983 48.5821 87.1983H48.5794Z" fill="#263238" />
    <path d="M43.9025 73.8062C43.9211 73.8089 43.8919 74.0694 43.8228 74.4842C43.7536 74.8989 43.642 75.4706 43.4957 76.098C43.3495 76.7255 43.1953 77.2865 43.073 77.688C42.9507 78.0921 42.8603 78.3367 42.8417 78.3314C42.8231 78.3261 42.8789 78.0708 42.9773 77.6614C43.0863 77.2041 43.2166 76.6643 43.3601 76.0635C43.4984 75.4626 43.6207 74.9202 43.727 74.4629C43.8201 74.0535 43.8839 73.8009 43.9025 73.8035V73.8062Z" fill="#263238" />
    <path d="M35.4534 69.7463C35.4826 69.7703 34.9642 70.5067 34.2889 71.3947C33.6162 72.2828 33.0446 72.982 33.0153 72.9607C32.9861 72.9368 33.5045 72.2003 34.1799 71.3123C34.8525 70.4243 35.4242 69.7251 35.4534 69.7463Z" fill="#263238" />
    <path d="M31.0183 66.7659C31.0475 66.7898 29.3965 68.728 27.3333 71.0916C25.2701 73.4579 23.5738 75.3536 23.5446 75.327C23.5153 75.3031 25.1664 73.3649 27.2296 70.9986C29.2928 68.635 30.989 66.7366 31.0183 66.7632V66.7659Z" fill="#263238" />
    <path d="M28.801 63.4691C28.8249 63.4983 27.9077 64.2959 26.7511 65.2477C25.5946 66.2022 24.6374 66.9493 24.6135 66.9201C24.5896 66.8908 25.5068 66.0932 26.6634 65.1414C27.8199 64.1896 28.7771 63.4398 28.801 63.4691Z" fill="#263238" />
    <path d="M26.2034 58.4945C26.2193 58.5291 23.9222 59.6697 21.072 61.0443C18.2192 62.4188 15.8954 63.5036 15.8795 63.469C15.8635 63.4345 18.1607 62.2939 21.0135 60.9193C23.8637 59.5448 26.1901 58.46 26.206 58.4945H26.2034Z" fill="#263238" />
    <path d="M25.161 56.0113C25.161 56.0113 25.0786 56.0458 24.9217 56.0831C24.7675 56.1203 24.5388 56.1681 24.2597 56.2187C23.6987 56.3224 22.917 56.442 22.0503 56.5297C21.1835 56.6175 20.3939 56.6547 19.8222 56.6627C19.5378 56.668 19.3064 56.6653 19.1469 56.6627C18.9874 56.6574 18.8997 56.6494 18.8997 56.6414C18.8997 56.6201 19.2506 56.6015 19.8196 56.567C20.3886 56.5324 21.1729 56.4792 22.037 56.3915C22.9011 56.3037 23.6801 56.2027 24.2437 56.1229C24.8074 56.0432 25.1557 55.9927 25.161 56.0139V56.0113Z" fill="#263238" />
    <path d="M24.3184 50.2844C24.3184 50.2844 24.1509 50.2897 23.8532 50.2737C23.5314 50.2578 23.1061 50.2365 22.5876 50.2099C21.5188 50.1594 20.0432 50.1089 18.4134 50.1169C16.7836 50.1275 15.308 50.1913 14.2392 50.2551C13.7234 50.287 13.298 50.3136 12.9763 50.3349C12.6785 50.3535 12.511 50.3588 12.511 50.3508C12.511 50.3402 12.6732 50.3163 12.9709 50.2817C13.2687 50.2445 13.6994 50.202 14.2338 50.1594C15.3 50.0717 16.7783 49.9919 18.4134 49.9813C20.0485 49.9733 21.5268 50.0371 22.5929 50.1142C23.1273 50.1514 23.558 50.1913 23.8558 50.2232C24.1536 50.2551 24.3184 50.2764 24.3158 50.287L24.3184 50.2844Z" fill="#263238" />
    <path d="M24.8423 45.254C24.8317 45.2913 23.1115 44.8419 20.9978 44.2544C18.8841 43.6641 17.1798 43.1563 17.1905 43.1191C17.2011 43.0818 18.9213 43.5312 21.035 44.1188C23.1487 44.709 24.853 45.2168 24.8423 45.254Z" fill="#263238" />
    <path d="M25.9534 41.0346C25.9534 41.0346 25.9082 41.0293 25.8285 41.0054C25.7328 40.9761 25.6158 40.9415 25.4775 40.899C25.1718 40.806 24.7357 40.6571 24.1987 40.4603C23.1272 40.0695 21.6649 39.4739 20.1016 38.7056C18.5382 37.9345 17.1743 37.1396 16.2118 36.5254C15.7306 36.2196 15.3451 35.9644 15.0845 35.7783C14.9649 35.6932 14.8665 35.6241 14.7867 35.5656C14.7203 35.5151 14.6857 35.4885 14.6884 35.4832C14.691 35.4778 14.7309 35.4991 14.8027 35.5417C14.8878 35.5948 14.9915 35.656 15.1164 35.7331C15.385 35.9032 15.7785 36.1452 16.265 36.4403C17.2381 37.0305 18.6074 37.8096 20.1654 38.5779C21.7234 39.3436 23.1751 39.9525 24.2359 40.3646C24.7676 40.572 25.1984 40.7342 25.4961 40.8432C25.6317 40.8963 25.7461 40.9389 25.8391 40.9735C25.9162 41.0054 25.9561 41.024 25.9561 41.0293L25.9534 41.0346Z" fill="#263238" />
    <path d="M28.458 36.7939C28.4367 36.8259 27.0887 35.9166 25.451 34.7627C23.8132 33.6088 22.5024 32.649 22.5237 32.6171C22.545 32.5852 23.8903 33.4945 25.5307 34.6483C27.1685 35.8022 28.4793 36.762 28.458 36.7939Z" fill="#263238" />
    <path d="M23.1671 23.8698C23.1671 23.8698 23.2044 23.8911 23.2682 23.9443C23.3426 24.0081 23.4303 24.0852 23.5394 24.1756C23.7866 24.3963 24.119 24.6887 24.5178 25.0423C25.3579 25.7921 26.4879 26.7998 27.7375 27.9164C28.9924 29.0251 30.1277 30.0301 30.9705 30.7772C31.3693 31.1335 31.7017 31.426 31.9489 31.6466C32.0526 31.7423 32.1377 31.8221 32.2095 31.8886C32.268 31.9444 32.2972 31.9763 32.2946 31.979C32.2919 31.9816 32.2547 31.9577 32.1909 31.9098C32.1138 31.8487 32.0234 31.7769 31.9117 31.6892C31.6724 31.4951 31.3268 31.2079 30.9067 30.8517C30.0612 30.1391 28.9073 29.1421 27.6444 28.0228C26.3842 26.9034 25.2569 25.8719 24.4486 25.1194C24.0445 24.7419 23.7201 24.4335 23.4995 24.2181C23.3984 24.1197 23.316 24.0373 23.2469 23.9682C23.1911 23.9097 23.1618 23.8778 23.1645 23.8751L23.1671 23.8698Z" fill="#263238" />
    <path d="M31.4624 24.1118C31.4624 24.1118 31.5342 24.1729 31.6432 24.2952C31.7522 24.4202 31.9064 24.6036 32.0899 24.8349C32.4594 25.2976 32.9513 25.949 33.4618 26.6934C33.9723 27.4378 34.4003 28.1344 34.6981 28.6476C34.847 28.9028 34.9613 29.1129 35.0384 29.2591C35.1155 29.4053 35.1527 29.4904 35.1448 29.4931C35.1261 29.5037 34.9321 29.1953 34.6157 28.6954C34.2993 28.1982 33.8579 27.5123 33.3501 26.7705C32.8423 26.0287 32.3637 25.3694 32.0154 24.8934C31.6671 24.4175 31.4491 24.1251 31.4651 24.1118H31.4624Z" fill="#263238" />
    <g opacity="0.2">
        <path d="M20.8354 21.8518L32.401 31.979L35.275 29.6792L28.5644 19.3952C28.5644 19.3952 28.0513 19.7727 26.7139 20.1556C25.4191 20.5251 21.6065 20.6235 20.8354 21.8545V21.8518Z" fill="black" />
    </g>
    <g opacity="0.2">
        <path d="M33.709 13.2854L39.3561 27.4219L42.964 26.2919L41.7623 14.0298C41.7623 14.0298 41.1402 14.1761 39.7629 14.0006C38.4282 13.8304 35.1846 12.5622 33.709 13.2854Z" fill="black" />
    </g>
    <g opacity="0.3">
        <path d="M48.771 10.3236L49.1485 25.6751L52.5304 25.8373L55.9549 14.0538C55.8884 14.0484 55.0057 13.8942 53.9635 13.2296C52.791 12.4798 50.4061 10.2013 48.7683 10.3236H48.771Z" fill="black" />
    </g>
    <g opacity="0.2">
        <path d="M63.5215 13.2242L57.9089 27.3767L60.9638 28.8363L68.6875 19.3021C68.629 19.2702 67.8978 18.6613 67.2198 17.5766C66.4834 16.3961 65.2284 13.6948 63.5189 13.2216L63.5215 13.2242Z" fill="black" />
    </g>
    <g opacity="0.2">
        <path d="M76.7007 22.0566L66.2466 32.9521L68.5756 36.092L78.7905 29.275C78.7905 29.275 78.3624 28.5944 78.1178 27.2863C77.8732 25.9622 77.836 23.5508 76.7007 22.0592V22.0566Z" fill="black" />
    </g>
    <g opacity="0.2">
        <path d="M84.9535 34.3559L70.8755 40.1493L72.0427 43.7465L84.2915 42.4172C84.2915 42.4172 84.2144 42.0396 84.3766 40.6571C84.5334 39.3197 85.9372 36.3313 84.9535 34.3532V34.3559Z" fill="black" />
    </g>
    <g opacity="0.2">
        <path d="M88.0696 49.6915L72.7233 50.2285L72.5957 53.6131L84.3048 57.0376C84.3101 56.9711 84.4138 56.3117 84.7701 55.6391C85.6315 54.0093 88.0722 51.7121 88.0722 49.6888L88.0696 49.6915Z" fill="black" />
    </g>
    <g opacity="0.2">
        <path d="M85.2432 64.2055L71.112 58.6966L69.6816 61.7675L79.2956 69.3927C79.3249 69.3342 79.8859 68.8131 80.9653 68.1272C82.1378 67.38 84.9189 66.1703 85.2432 64.2055Z" fill="black" />
    </g>
    <g opacity="0.2">
        <path d="M64.4574 63.9848L60.9612 66.9201C61.2271 67.1966 65.8878 75.1196 68.7593 80.017C68.7991 79.9878 68.8364 79.9532 68.8762 79.9266C70.7693 78.661 74.1326 79.1689 76.0309 77.9139L64.4574 63.9822V63.9848Z" fill="black" />
        <path d="M58.0311 69.5389L52.8093 71.3203L55.2819 85.4967C55.4441 85.4408 55.609 85.393 55.7738 85.3611C58.2358 84.8745 61.4821 87.0174 63.7474 86.0789C64.0584 85.9486 64.3403 85.7652 64.6035 85.5445L58.0311 69.5416V69.5389Z" fill="black" />
        <path d="M48.4942 89.0567L49.329 70.5359L44.8145 69.3927L41.4539 85.3398C41.4964 85.3478 41.5363 85.3531 41.5788 85.3611C43.9105 85.8237 46.0428 88.9105 48.4942 89.0594V89.0567Z" fill="black" />
        <path d="M37.1415 67.3933C37.1415 67.3933 31.1753 75.3855 28.0566 79.69C28.2029 79.7618 28.3438 79.8415 28.4767 79.9319C30.5266 81.3038 31.3003 85.1244 33.6054 86.0789C33.7118 86.1215 33.8208 86.1587 33.9298 86.1879L42.2649 70.411L37.1442 67.3933H37.1415Z" fill="black" />
        <path d="M31.0184 60.9592L18.2937 69.7064C18.3416 69.7702 18.3947 69.8314 18.4399 69.8952C19.8225 71.961 19.086 75.7843 20.8355 77.5337C20.9976 77.6959 21.1811 77.8289 21.3725 77.9512C25.8684 72.8836 33.9404 63.7854 34.2328 63.469L31.0184 60.9565V60.9592Z" fill="black" />
        <path d="M28.1017 54.7138L13.056 57.1439C13.2952 59.558 11.3942 62.6049 12.2876 64.7638C12.3434 64.8968 12.4099 65.0217 12.4817 65.144C17.746 62.5225 28.7478 57.0694 29.2051 57.0402L28.0991 54.7138H28.1017Z" fill="black" />
        <path d="M27.2804 46.3335L13.0588 42.2284C13.0482 42.3534 13.0322 42.4757 13.0083 42.5953C12.535 44.9855 9.302 47.163 9.302 49.6915C9.302 49.8616 9.31796 50.0291 9.34454 50.1966H26.7034L27.2804 46.3335Z" fill="black" />
        <path d="M12.3486 34.5074C17.6634 37.3549 28.0564 43.1164 28.0564 43.1164L30.6142 38.2589L18.5993 29.2139C18.5488 29.3069 18.4983 29.4026 18.4398 29.4904C17.0918 31.5057 13.3829 32.29 12.3486 34.5074Z" fill="black" />
    </g>
    <path d="M88.0485 49.6915C88.0485 49.6915 88.0405 49.6356 88.0325 49.524C88.0192 49.4123 88.0246 49.2421 87.9634 49.0294C87.881 48.5961 87.6364 47.9713 87.1658 47.2481C86.7085 46.5143 86.0172 45.6927 85.2967 44.6532C84.9458 44.1294 84.5788 43.5392 84.3848 42.8319C84.1907 42.1221 84.2279 41.3218 84.3794 40.5162C84.5257 39.7053 84.7676 38.8704 84.9803 37.9851C85.1744 37.105 85.3871 36.1426 85.1904 35.1641C85.0867 34.6802 84.8554 34.2203 84.531 33.8188C84.2013 33.42 83.7865 33.085 83.3479 32.7686C82.4651 32.1412 81.4522 31.6413 80.4791 30.9873C79.9952 30.6602 79.5166 30.2933 79.1231 29.8281C78.7243 29.3628 78.4664 28.7832 78.2909 28.1823C77.948 26.9726 77.8735 25.6804 77.613 24.3856C77.48 23.7422 77.3019 23.0882 76.9589 22.5086C76.6239 21.9236 76.0789 21.4716 75.4434 21.1978C74.8107 20.916 74.1141 20.7724 73.4095 20.6554C72.7049 20.5384 71.9818 20.456 71.2586 20.3284C70.5354 20.1981 69.7963 20.028 69.1263 19.6584C68.4536 19.2915 67.9272 18.7012 67.4885 18.0711C67.0471 17.4357 66.6669 16.755 66.2628 16.085C65.8587 15.415 65.4333 14.7424 64.8803 14.1681C64.3299 13.6018 63.5934 13.1923 62.7825 13.1392C61.9743 13.078 61.158 13.2322 60.3524 13.4236C59.5442 13.6177 58.7359 13.8544 57.8958 14.0112C57.0636 14.1734 56.1703 14.2319 55.3274 13.9634C54.4979 13.6762 53.7668 13.1711 53.0595 12.6526C52.3523 12.1315 51.661 11.5758 50.9006 11.1159C50.1456 10.6692 49.2841 10.2996 48.3881 10.398L48.2206 10.4113C48.1648 10.4219 48.1116 10.4352 48.0584 10.4459C47.9494 10.4725 47.8404 10.4911 47.7314 10.523C47.5214 10.6001 47.3034 10.6639 47.104 10.7676C46.6919 10.951 46.3063 11.1983 45.9261 11.4509C45.1684 11.9667 44.4559 12.5596 43.6795 13.086C43.2966 13.3545 42.8845 13.5911 42.4565 13.7932C42.0231 13.99 41.5499 14.1069 41.0713 14.1442C40.1088 14.192 39.1623 13.974 38.2344 13.74C37.3039 13.5061 36.3733 13.2402 35.4162 13.1471C34.9376 13.1073 34.4537 13.1285 33.9884 13.2429C33.5205 13.3545 33.1057 13.6204 32.7388 13.9288C32.005 14.5696 31.4919 15.431 30.984 16.2765C30.4762 17.1273 29.9923 18.0153 29.317 18.7783C28.9767 19.1532 28.5832 19.4962 28.1206 19.7275C27.658 19.9535 27.1688 20.1051 26.6689 20.222C25.6692 20.4401 24.6483 20.5358 23.6433 20.7166C22.6489 20.8974 21.612 21.1792 20.8755 21.8944C20.5193 22.2586 20.272 22.7159 20.0885 23.1945C19.9024 23.6757 19.7961 24.1862 19.7004 24.6967C19.5142 25.723 19.4292 26.7758 19.1792 27.8101C19.0596 28.3285 18.8841 28.839 18.6129 29.3069C18.3417 29.7749 17.9695 30.179 17.5468 30.5113C16.7066 31.1867 15.7521 31.6865 14.8375 32.2448C14.3829 32.5267 13.9336 32.8191 13.5188 33.1568C13.112 33.4998 12.7424 33.8933 12.4872 34.3585C12.2293 34.8212 12.1123 35.3556 12.1176 35.89C12.1176 36.427 12.1974 36.9641 12.3038 37.4932C12.5297 38.5567 12.8647 39.6016 13.0455 40.6943C13.1386 41.2394 13.1732 41.803 13.1014 42.3587C13.0296 42.917 12.8142 43.4461 12.5457 43.9353C11.9927 44.9084 11.2695 45.7592 10.6288 46.6632C10.3044 47.1125 10.0066 47.5831 9.76998 48.0829C9.53601 48.5801 9.37117 49.1172 9.36851 49.6675C9.37117 50.2179 9.53335 50.755 9.76466 51.2522C9.99863 51.752 10.2964 52.2226 10.6208 52.6719C11.2615 53.5785 11.9847 54.4293 12.5404 55.3998C12.8089 55.8863 13.0269 56.4181 13.0987 56.9764C13.1732 57.5321 13.1413 58.0957 13.0455 58.6408C12.8674 59.7335 12.5297 60.7811 12.3038 61.8446C12.1947 62.3763 12.115 62.9134 12.115 63.4504C12.1097 63.9875 12.2266 64.5192 12.4819 64.9845C12.7345 65.4498 13.104 65.846 13.5108 66.1889C13.9256 66.5266 14.3749 66.8217 14.8296 67.1035C15.7415 67.6619 16.6986 68.1617 17.5388 68.837C17.9589 69.1694 18.3364 69.5735 18.605 70.0414C18.8762 70.5094 19.0543 71.0225 19.1713 71.5383C19.4212 72.5752 19.5063 73.6281 19.6924 74.6544C19.7854 75.1675 19.8944 75.678 20.0806 76.1565C20.264 76.6351 20.5113 77.0924 20.8649 77.4567C21.6014 78.1719 22.6383 78.4563 23.6326 78.6371C24.6403 78.8206 25.6612 78.9137 26.6609 79.1317C27.1581 79.2486 27.65 79.4002 28.1126 79.6262C28.5752 79.8575 28.9687 80.2005 29.309 80.5754C29.9844 81.3384 30.4682 82.2264 30.9761 83.0799C31.4865 83.9254 31.9997 84.7868 32.7308 85.4276C33.0977 85.736 33.5125 86.0018 33.9804 86.1135C34.4457 86.2305 34.9296 86.2491 35.4082 86.2092C36.368 86.1162 37.2985 85.8503 38.2264 85.6163C39.1543 85.3824 40.1008 85.1643 41.0633 85.2122C41.5419 85.2494 42.0151 85.3664 42.4485 85.5632C42.8766 85.7652 43.2887 86.0018 43.6715 86.2704C44.4479 86.7968 45.1604 87.3897 45.9182 87.9055C46.2984 88.1581 46.6839 88.4053 47.096 88.5888C47.298 88.6951 47.5134 88.7563 47.7234 88.8334C47.8298 88.8626 47.9415 88.8839 48.0505 88.9105C48.1063 88.9211 48.1595 88.9371 48.2127 88.9451L48.3802 88.9584C49.2761 89.0594 50.1376 88.6872 50.8927 88.2405C51.6504 87.7805 52.3417 87.2249 53.0516 86.7037C53.7588 86.1853 54.4899 85.6828 55.3195 85.3957C56.1623 85.1271 57.0556 85.1856 57.8878 85.3478C58.7253 85.5047 59.5362 85.7413 60.3445 85.9354C61.1501 86.1268 61.969 86.281 62.7745 86.2199C63.5855 86.164 64.3193 85.7572 64.8696 85.1883C65.42 84.6166 65.8454 83.9413 66.2522 83.2713C66.6563 82.5987 67.0365 81.918 67.4779 81.2852C67.9192 80.6551 68.4456 80.0649 69.1183 79.698C69.7883 79.3284 70.5274 79.1582 71.2506 79.028C71.9764 78.9004 72.697 78.8179 73.4015 78.701C74.1061 78.584 74.8 78.4377 75.4355 78.1559C76.0709 77.8821 76.6133 77.4301 76.9483 76.8452C77.2913 76.2655 77.4694 75.6115 77.6023 74.9681C77.8629 73.6759 77.9373 72.3811 78.2803 71.1741C78.4531 70.5732 78.7137 69.9936 79.1125 69.531C79.506 69.0657 79.9872 68.6988 80.4685 68.3718C81.4389 67.7177 82.4545 67.2179 83.3346 66.5904C83.7733 66.2767 84.1854 65.939 84.5177 65.5402C84.8447 65.1387 85.0734 64.6788 85.1771 64.1949C85.2914 63.711 85.2621 63.2165 85.2169 62.7459C85.1691 62.2726 85.0654 61.818 84.967 61.374C84.7543 60.4886 84.515 59.6538 84.3661 58.8428C84.2146 58.0373 84.1774 57.237 84.3715 56.5271C84.5682 55.8172 84.9325 55.227 85.2834 54.7059C86.0039 53.6663 86.6979 52.8474 87.1525 52.1109C87.6231 51.3851 87.865 50.7629 87.9501 50.3296C88.0113 50.1169 88.006 49.9467 88.0193 49.835C88.0299 49.7234 88.0352 49.6675 88.0352 49.6675C88.0352 49.6675 88.0352 49.7234 88.0246 49.835C88.0139 49.9467 88.0193 50.1169 87.9608 50.3322C87.881 50.7683 87.6417 51.3984 87.1738 52.1269C86.7191 52.866 86.0305 53.6902 85.3153 54.7298C84.967 55.2536 84.6054 55.8411 84.414 56.5404C84.2252 57.2396 84.2625 58.0319 84.414 58.8322C84.5629 59.6378 84.8048 60.4727 85.0202 61.358C85.1186 61.802 85.2276 62.2593 85.2754 62.7379C85.3206 63.2138 85.3499 63.7137 85.2356 64.2082C85.1319 64.7027 84.8952 65.176 84.5656 65.5854C84.2306 65.9922 83.8131 66.3325 83.3718 66.6489C82.4838 67.2817 81.4708 67.7842 80.5057 68.4356C80.0271 68.7626 79.5538 69.1242 79.1657 69.5815C78.7775 70.0361 78.5222 70.6024 78.3521 71.198C78.0144 72.3944 77.94 73.6866 77.6821 74.9867C77.5491 75.6354 77.371 76.2975 77.0201 76.893C76.6771 77.4939 76.1134 77.9645 75.4674 78.2437C74.8213 78.5308 74.1194 78.6797 73.4122 78.7967C72.7049 78.9137 71.9818 78.9961 71.2612 79.1263C70.5434 79.2566 69.8122 79.4268 69.1608 79.7884C68.5068 80.1446 67.9937 80.7216 67.5576 81.3464C67.1216 81.9739 66.744 82.6545 66.3373 83.3272C65.9331 83.9998 65.5051 84.6805 64.9414 85.2654C64.3831 85.845 63.6121 86.273 62.7799 86.3289C61.9503 86.3927 61.1235 86.2332 60.3126 86.0444C59.5016 85.8503 58.6934 85.6137 57.8612 85.4595C57.037 85.2999 56.1649 85.2468 55.3487 85.5047C54.5404 85.7838 53.8173 86.281 53.1127 86.7995C52.4081 87.3206 51.7142 87.8763 50.9458 88.3442C50.7491 88.4505 50.5603 88.5755 50.3503 88.6632C50.2466 88.7111 50.1456 88.7616 50.0419 88.8042L49.7202 88.9185C49.2868 89.0514 48.8242 89.1392 48.3615 89.078L48.1887 89.0647C48.1329 89.0567 48.0771 89.0408 48.0186 89.0301C47.9069 89.0036 47.7926 88.9823 47.6809 88.9504C47.4655 88.8706 47.2422 88.8068 47.0375 88.6978C46.6147 88.509 46.2266 88.2591 45.8411 88.0039C45.078 87.4828 44.3628 86.8899 43.5944 86.3688C43.2142 86.1029 42.8101 85.8716 42.39 85.6722C41.9646 85.4807 41.5126 85.3691 41.0474 85.3318C40.1115 85.2866 39.1756 85.4993 38.2504 85.7333C37.3225 85.9646 36.3892 86.2358 35.4108 86.3289C34.9216 86.3688 34.4218 86.3501 33.9379 86.2305C33.4487 86.1135 33.0153 85.8343 32.6351 85.518C31.88 84.8586 31.3642 83.9865 30.8511 83.1384C30.3433 82.2849 29.8594 81.4022 29.1974 80.6551C28.8624 80.2882 28.4848 79.9612 28.0382 79.7352C27.5915 79.5172 27.1076 79.3683 26.6184 79.2513C25.6293 79.0359 24.611 78.9402 23.5954 78.7568C23.0902 78.6584 22.5798 78.5547 22.0932 78.3606C21.6067 78.1719 21.1387 77.9113 20.7585 77.5391C20.3863 77.1562 20.1284 76.683 19.9423 76.1911C19.7509 75.6992 19.6445 75.1808 19.5488 74.665C19.36 73.6307 19.275 72.5779 19.0277 71.5569C18.9107 71.0465 18.7352 70.5466 18.4747 70.0946C18.2141 69.6453 17.8525 69.2545 17.4378 68.9274C16.6136 68.2654 15.6617 67.7656 14.7418 67.2046C14.2845 66.9201 13.8299 66.625 13.4071 66.2793C12.9924 65.9284 12.6095 65.5216 12.3436 65.035C12.0778 64.5512 11.9528 63.9875 11.9608 63.4371C11.9608 62.8841 12.0432 62.3391 12.1522 61.802C12.3782 60.7305 12.7159 59.683 12.8913 58.6062C12.9844 58.0692 13.0163 57.5188 12.9419 56.9817C12.8701 56.4447 12.6627 55.9342 12.3995 55.4556C11.8544 54.5011 11.1339 53.6503 10.4878 52.7384C10.1635 52.2837 9.85772 51.8105 9.61843 51.2974C9.37914 50.7869 9.21164 50.2285 9.20898 49.6543C9.2143 49.0773 9.38446 48.5216 9.62375 48.0112C9.86303 47.5007 10.1688 47.0248 10.4932 46.5701C11.1392 45.6608 11.8597 44.81 12.4021 43.8555C12.6653 43.377 12.8727 42.8638 12.9419 42.3268C13.011 41.7897 12.9791 41.242 12.8887 40.7049C12.7105 39.6282 12.3755 38.5806 12.1469 37.5091C12.0379 36.9721 11.9555 36.427 11.9581 35.874C11.9528 35.3237 12.0751 34.7627 12.3463 34.2788C12.6122 33.7922 12.995 33.3854 13.4098 33.0371C13.8325 32.6915 14.2872 32.3964 14.7445 32.1119C15.6617 31.5509 16.6136 31.0511 17.4378 30.389C17.8525 30.062 18.2115 29.6712 18.472 29.2219C18.7326 28.7699 18.9054 28.27 19.0224 27.7596C19.267 26.7386 19.3547 25.6857 19.5435 24.6542C19.6392 24.1384 19.7482 23.6199 19.937 23.128C20.1231 22.6362 20.381 22.1629 20.7532 21.7801C21.1334 21.4078 21.604 21.1473 22.0906 20.9585C22.5771 20.7671 23.0876 20.6607 23.5928 20.565C24.6084 20.3816 25.6267 20.2885 26.6131 20.0705C27.1049 19.9562 27.5862 19.8046 28.0328 19.5866C28.4795 19.3633 28.857 19.0336 29.1921 18.6667C29.8541 17.9196 30.3353 17.0369 30.8431 16.1861C31.3563 15.3379 31.8694 14.4685 32.6271 13.8065C33.0073 13.4875 33.4407 13.2109 33.9299 13.094C34.4138 12.9743 34.9136 12.9531 35.4002 12.9956C36.376 13.0913 37.3118 13.3598 38.2397 13.5911C39.165 13.8251 40.1008 14.0378 41.0367 13.9926C41.502 13.9581 41.954 13.8437 42.3794 13.655C42.7995 13.4556 43.2036 13.2242 43.5838 12.9584C44.3522 12.4373 45.0674 11.8444 45.8304 11.3232C46.2159 11.068 46.6041 10.8181 47.0269 10.6293C47.2316 10.523 47.4549 10.4565 47.6703 10.3767C47.7819 10.3448 47.8963 10.3236 48.0079 10.297C48.0638 10.2863 48.1196 10.2704 48.1781 10.2598L48.3509 10.2465C48.8109 10.1853 49.2761 10.2757 49.7095 10.406L50.0312 10.5203C50.1376 10.5628 50.236 10.616 50.3396 10.6612C50.5497 10.749 50.7385 10.8739 50.9352 10.9803C51.7036 11.4482 52.3948 12.0039 53.1021 12.525C53.8066 13.0434 54.5298 13.538 55.3381 13.8198C56.1516 14.0777 57.0237 14.0272 57.8479 13.865C58.6774 13.7108 59.4857 13.4742 60.2993 13.2801C61.1102 13.0886 61.937 12.9318 62.7666 12.9929C63.6014 13.0461 64.3698 13.4742 64.9308 14.0538C65.4944 14.6387 65.9198 15.3193 66.3266 15.9893C66.7308 16.662 67.1083 17.3426 67.5443 17.9701C67.9804 18.5949 68.4935 19.1718 69.1475 19.5281C69.7989 19.8897 70.5301 20.0599 71.248 20.1901C71.9685 20.3178 72.689 20.4028 73.3989 20.5198C74.1061 20.6368 74.808 20.7857 75.4541 21.0728C76.1001 21.352 76.6665 21.8226 77.0094 22.4208C77.3604 23.0164 77.5412 23.6784 77.6715 24.3271C77.932 25.6272 78.0038 26.9194 78.3415 28.1158C78.5143 28.7087 78.7642 29.2777 79.155 29.7323C79.5406 30.1896 80.0138 30.5539 80.4924 30.8783C81.4575 31.5296 82.4705 32.0321 83.3585 32.6649C83.7998 32.9813 84.2173 33.3216 84.5523 33.7284C84.8846 34.1379 85.1186 34.6111 85.2249 35.103C85.3392 35.5975 85.3073 36.0974 85.2648 36.5733C85.2169 37.0518 85.1079 37.5091 85.0096 37.9532C84.7969 38.8412 84.5523 39.6734 84.4034 40.479C84.2492 41.2819 84.212 42.0715 84.4034 42.7708C84.5948 43.47 84.9564 44.0603 85.3047 44.5814C86.0199 45.6209 86.7112 46.4452 87.1631 47.1843C87.6311 47.9128 87.8704 48.5429 87.9501 48.9789C88.0086 49.1943 88.0007 49.3644 88.0139 49.4761C88.0219 49.5878 88.0246 49.6436 88.0246 49.6436L88.0485 49.6915Z" fill="#263238" />
    <path d="M41.2919 86.2305C41.3291 86.2411 40.348 90.2186 39.1011 95.116C37.8542 100.016 36.8119 103.978 36.7747 103.97C36.7375 103.962 37.7186 99.9815 38.9655 95.0841C40.2125 90.1867 41.2547 86.2225 41.2919 86.2331V86.2305Z" fill="#263238" />
    <path d="M48.6751 73.8275C62.005 73.8275 72.8111 63.0214 72.8111 49.6915C72.8111 36.3615 62.005 25.5555 48.6751 25.5555C35.3451 25.5555 24.5391 36.3615 24.5391 49.6915C24.5391 63.0214 35.3451 73.8275 48.6751 73.8275Z" fill="white" />
    <path d="M33.8152 41.3297C33.4828 41.6621 31.651 44.9908 31.4861 47.7346C31.3186 50.4811 31.7148 65.8991 31.7148 65.8991L31.7866 66.9201C36.1309 72.0009 51.9238 79.5624 66.1481 66.8935L66.9457 57.4098L64.598 37.3337L56.4437 35.3369L54.532 32.2369L41.7887 35.22L40.6534 37.9053L33.8152 41.3244V41.3297Z" fill="#455A64" />
    <path d="M53.6467 24.1676C54.2077 22.0831 54.7607 19.9801 54.9548 17.8292C55.1489 15.6782 54.9681 13.4555 54.1146 11.4721C53.9844 11.1717 52.9076 9.16433 52.5832 9.21485C52.3519 9.24941 53.0485 11.1371 52.9421 11.3445C51.9185 13.3306 51.7324 15.6623 52.0275 17.877C52.32 20.0917 52.8863 22.0672 53.6494 24.1676" fill="#263238" />
    <path d="M53.4369 15.9282C53.3332 10.5123 50.0976 6.05893 44.6844 6.31151L44.1845 6.36469C39.1675 6.89377 35.3947 11.1876 35.5171 16.2313C35.6314 20.9239 35.8201 26.1085 36.1126 28.6024C36.7215 33.7656 41.9751 34.0235 41.9751 34.0235C41.9858 34.0235 42.2171 37.4187 42.2171 37.4187L44.4371 39.8302L54.7291 33.4545L53.4316 15.9282H53.4369Z" fill="#FFBF9D" />
    <path d="M41.9804 34.0634C41.9804 34.0634 45.2587 33.9119 48.4997 31.3648C48.4997 31.3648 47.4149 36.0468 42.2064 36.1239L41.9778 34.0634H41.9804Z" fill="#FF9A6C" />
    <path d="M38.4921 20.44C38.5187 20.8309 38.8723 21.1313 39.2817 21.11C39.6912 21.0888 39.9996 20.7564 39.973 20.3629C39.9464 19.9721 39.5928 19.6717 39.1833 19.6929C38.7739 19.7142 38.4655 20.0492 38.4921 20.44Z" fill="#263238" />
    <path d="M36.849 18.2599C36.95 18.3476 37.4658 17.8744 38.2608 17.7919C39.0531 17.6989 39.6805 18.0472 39.755 17.9408C39.7922 17.893 39.6805 17.7281 39.4067 17.5713C39.1381 17.4144 38.6915 17.2788 38.1969 17.3346C37.7024 17.3905 37.3063 17.6165 37.0856 17.8265C36.8623 18.0392 36.7958 18.2227 36.8463 18.2599H36.849Z" fill="#263238" />
    <path d="M45.5084 19.8445C45.535 20.2353 45.8886 20.5357 46.2981 20.5145C46.7075 20.4932 47.0159 20.1609 46.9894 19.7674C46.9628 19.3765 46.6092 19.0761 46.1997 19.0974C45.7903 19.1186 45.4818 19.4536 45.5084 19.8445Z" fill="#263238" />
    <path d="M44.6656 17.76C44.7666 17.8478 45.2824 17.3745 46.0774 17.2921C46.8697 17.199 47.4945 17.5473 47.5716 17.441C47.6088 17.3931 47.4998 17.2283 47.2233 17.0714C46.9548 16.9146 46.5081 16.779 46.0136 16.8348C45.5191 16.8906 45.1229 17.1166 44.9022 17.3267C44.6789 17.5394 44.6124 17.7228 44.663 17.76H44.6656Z" fill="#263238" />
    <path d="M42.4589 24.1649C42.4589 24.1197 41.9564 24.0852 41.1455 24.0692C40.9408 24.0692 40.7441 24.0506 40.6962 23.915C40.6324 23.7741 40.6962 23.5454 40.768 23.2982C40.9062 22.7877 41.0525 22.2506 41.204 21.6896C41.8049 19.4031 42.217 17.5314 42.1266 17.5074C42.0335 17.4835 41.4725 19.318 40.8717 21.6046C40.7281 22.1682 40.5898 22.7053 40.4622 23.2184C40.4091 23.4577 40.3054 23.7316 40.441 24.0267C40.5127 24.1729 40.6723 24.266 40.8052 24.2872C40.9381 24.3138 41.0525 24.3032 41.1535 24.2979C41.9644 24.2553 42.4643 24.2075 42.4616 24.1623L42.4589 24.1649Z" fill="#263238" />
    <path d="M44.8542 24.468C44.724 24.4733 44.8144 25.3374 44.139 26.026C43.4664 26.7173 42.5385 26.7173 42.5438 26.8396C42.5385 26.8954 42.7671 26.9858 43.1553 26.9566C43.5382 26.93 44.0805 26.7492 44.4926 26.3265C44.9021 25.9037 45.043 25.3826 45.035 25.0264C45.0297 24.6621 44.9101 24.46 44.8516 24.4707L44.8542 24.468Z" fill="#263238" />
    <path d="M44.368 14.5323C44.469 14.7397 45.2507 14.5536 46.1945 14.5669C47.1384 14.5616 47.9201 14.7557 48.0211 14.5483C48.0663 14.4499 47.9147 14.2611 47.5877 14.083C47.2634 13.9049 46.7635 13.7586 46.1972 13.756C45.6309 13.756 45.1284 13.8969 44.804 14.0697C44.477 14.2425 44.3228 14.4313 44.3653 14.5297L44.368 14.5323Z" fill="#263238" />
    <path d="M36.8994 15.5825C37.0589 15.7474 37.5853 15.5028 38.242 15.4257C38.8961 15.3246 39.4704 15.4177 39.5794 15.2156C39.6246 15.1172 39.5182 14.9471 39.2577 14.8009C38.9998 14.6573 38.585 14.5589 38.133 14.6201C37.681 14.6812 37.3088 14.8859 37.0988 15.096C36.8861 15.306 36.8302 15.5001 36.8994 15.5799V15.5825Z" fill="#263238" />
    <path d="M53.4182 19.7993C53.5033 19.7514 56.8586 18.3742 57.1192 21.921C57.3797 25.4677 53.7665 24.9971 53.7506 24.8934C53.7373 24.7924 53.4182 19.7993 53.4182 19.7993Z" fill="#FFBF9D" />
    <path d="M54.7343 23.471C54.7502 23.4577 54.7981 23.5109 54.9071 23.5508C55.0134 23.5906 55.1889 23.6093 55.3697 23.5268C55.7339 23.362 56.0051 22.7452 55.9759 22.1044C55.9599 21.78 55.8722 21.4796 55.7393 21.2323C55.6116 20.9798 55.4308 20.8123 55.2394 20.791C55.048 20.7617 54.923 20.884 54.8885 20.9877C54.8486 21.0914 54.8752 21.1606 54.8566 21.1659C54.8486 21.1765 54.7768 21.1127 54.7927 20.9638C54.8034 20.892 54.8379 20.8043 54.915 20.7325C54.9948 20.6581 55.1171 20.6129 55.25 20.6182C55.5239 20.6182 55.7898 20.8495 55.936 21.1207C56.0982 21.3919 56.2072 21.7295 56.2231 22.0938C56.2524 22.809 55.936 23.5056 55.4335 23.6917C55.1889 23.7741 54.9762 23.7156 54.8619 23.6385C54.7449 23.5587 54.721 23.4816 54.7343 23.4737V23.471Z" fill="#FF9A6C" />
    <path d="M37.4364 10.2039C36.8409 9.92474 38.4441 7.95462 39.816 7.22346C41.8871 6.11743 45.1042 5.31449 47.1062 5.74521C49.5177 6.26366 51.5596 7.31652 52.8863 9.39299C54.213 11.4721 54.8219 13.9527 54.9123 16.4174C54.9389 17.1698 54.9123 17.9568 54.5534 18.6161C54.1094 19.4324 53.1894 19.9881 53.3011 21.0675C53.341 21.461 53.2559 21.8678 53.0033 22.1735C52.3998 22.9047 51.5623 22.3091 51.1555 21.6817C50.2861 20.3417 50.092 18.6879 49.9218 17.1007C49.7995 15.9734 49.6799 14.8195 49.9298 13.7108C50.0654 13.1072 50.3074 12.5303 50.411 11.9215C50.5121 11.3126 50.4509 10.632 50.0468 10.1667C49.9803 10.0896 49.874 9.99653 49.741 9.89284C48.6802 9.0766 47.2551 8.90379 46.0241 9.43022C44.0726 10.2651 40.7279 11.5413 39.7921 10.9191C38.4467 10.0258 38.0984 9.40895 38.0984 9.40895L37.4417 10.1986L37.4364 10.2039Z" fill="#263238" />
    <path d="M33.8155 41.3297C33.6108 41.6142 30.7048 42.5793 29.6014 44.4165C28.498 46.2537 27.408 54.5011 27.408 54.5011L26.7061 59.9303C28.0886 62.1184 29.9417 65.0138 31.9119 67.0557L33.8155 41.3324V41.3297Z" fill="#455A64" />
    <g opacity="0.3">
        <path d="M55.6489 49.2926C55.7712 50.3987 55.8962 51.518 56.2764 52.5656C56.6566 53.6104 57.3239 54.5942 58.2997 55.1339C58.7065 55.3599 59.1691 55.5088 59.5094 55.8252C59.8763 56.1655 60.0598 56.66 60.3921 57.0349C60.7776 57.4709 61.336 57.7129 61.8837 57.9096C63.5082 58.4866 65.1114 58.7604 66.8342 58.6993C66.8874 58.1303 66.8901 56.0405 66.9432 55.4716L55.6489 49.2953V49.2926Z" fill="black" />
    </g>
    <path d="M64.5956 37.3363C64.5956 37.3363 68.2593 38.4211 69.3335 39.9817C70.4076 41.5424 72.3086 47.5937 72.6994 48.7157C73.0903 49.8377 72.7473 52.4406 72.0161 54.3097C71.285 56.1788 70.0141 57.7899 67.8206 58.0346C65.6272 58.2792 62.1602 57.0109 61.3812 56.1814C60.6022 55.3519 60.2751 53.4908 60.2751 53.4908C61.2482 53.3206 62.2107 53.0787 63.1519 52.7703" fill="#455A64" />
    <path d="M63.1517 52.7654C63.1517 52.7654 63.1358 52.7733 63.1065 52.7866C63.0693 52.7999 63.0241 52.8159 62.9683 52.8372C62.846 52.8797 62.6625 52.9409 62.4206 53.0126C61.9367 53.1562 61.2188 53.353 60.2829 53.5258L60.3122 53.4832C60.3946 53.898 60.5116 54.3526 60.6871 54.8286C60.7748 55.0652 60.8758 55.3098 61.0035 55.5464C61.1337 55.783 61.2853 56.0223 61.4953 56.2138C61.7054 56.4052 61.9659 56.5594 62.2371 56.703C62.5083 56.8492 62.7981 56.9768 63.0985 57.0991C63.7021 57.3411 64.3535 57.5511 65.0447 57.7159C65.736 57.8755 66.4698 57.9951 67.2302 57.9978C67.4216 58.0057 67.6104 57.9818 67.8018 57.9712C67.9906 57.9393 68.1847 57.9233 68.3735 57.8701C68.7537 57.7851 69.1259 57.6415 69.4742 57.4421C70.1761 57.0539 70.769 56.4477 71.221 55.7378C71.6783 55.028 72.0133 54.2224 72.2579 53.3822C72.4493 52.7361 72.5902 52.0821 72.6806 51.4333C72.7737 50.7846 72.8189 50.1359 72.7763 49.5058C72.7524 49.1894 72.6939 48.8916 72.5849 48.5965C72.4865 48.2987 72.3882 48.0036 72.2925 47.7111C72.0984 47.1289 71.9069 46.5572 71.7208 46.0015C71.3433 44.8902 70.9711 43.84 70.5988 42.8642C70.2186 41.8938 69.865 40.9845 69.421 40.2215C69.203 39.8386 68.9079 39.5382 68.5942 39.2962C68.2857 39.0463 67.9667 38.8469 67.6609 38.6714C67.0494 38.3231 66.4938 38.0785 66.0364 37.8871C65.5791 37.6983 65.2176 37.5654 64.9703 37.4776C64.8533 37.4351 64.7603 37.4032 64.6911 37.3793C64.6273 37.358 64.5954 37.3447 64.5954 37.342C64.5954 37.342 64.63 37.3474 64.6938 37.366C64.7656 37.3872 64.8586 37.4165 64.9783 37.4511C65.2282 37.5308 65.5924 37.6531 66.0551 37.8366C66.5177 38.02 67.0787 38.262 67.6982 38.6049C68.0066 38.7778 68.3309 38.9772 68.6473 39.2271C68.9664 39.469 69.2801 39.7801 69.5034 40.1709C69.9607 40.942 70.3197 41.8513 70.7052 42.8217C71.0827 43.7975 71.4603 44.8477 71.8405 45.959C72.0292 46.5147 72.2207 47.0863 72.4174 47.6686C72.5158 47.961 72.6142 48.2535 72.7125 48.5513C72.8215 48.8464 72.888 49.1734 72.9119 49.4951C72.9571 50.1412 72.9119 50.7979 72.8189 51.452C72.7258 52.1087 72.5849 52.768 72.3908 53.4221C72.1409 54.2729 71.8032 55.0891 71.3353 55.8149C70.8753 56.5408 70.2638 57.1629 69.538 57.5617C69.1791 57.7665 68.7936 57.9127 68.4027 58.0004C68.2086 58.0536 68.0092 58.0722 67.8151 58.1041C67.6184 58.1147 67.4216 58.1387 67.2302 58.1307C66.4539 58.1254 65.7121 58.0031 65.0155 57.8382C64.3189 57.6707 63.6622 57.4554 63.056 57.2081C62.7529 57.0832 62.4604 56.9529 62.1866 56.8013C61.9127 56.6551 61.6495 56.4956 61.4262 56.2935C61.2055 56.0888 61.0513 55.8389 60.921 55.5969C60.7908 55.3523 60.6897 55.1051 60.6047 54.8631C60.4345 54.3792 60.3202 53.9219 60.2404 53.5018L60.2324 53.4646L60.2696 53.4593C61.2055 53.2998 61.9234 53.1137 62.4099 52.9807C62.6466 52.9143 62.83 52.8611 62.9629 52.8239C63.0214 52.8079 63.0666 52.7946 63.1039 52.784C63.1358 52.776 63.1517 52.7707 63.1517 52.7734V52.7654Z" fill="#263238" />
    <path d="M69.8732 50.8081C69.8466 50.8134 69.7615 50.3561 69.4557 49.6808C69.1553 49.0081 68.6156 48.1175 67.802 47.3331C67.3979 46.9396 66.9486 46.6419 66.5178 46.4185C66.4062 46.368 66.2998 46.3201 66.1935 46.2749C66.0898 46.2271 65.9781 46.2058 65.8771 46.1713C65.6724 46.0968 65.473 46.0782 65.2895 46.049C65.2443 46.041 65.1991 46.0357 65.1566 46.0277C65.114 46.0277 65.0715 46.0277 65.0289 46.0277C64.9465 46.0277 64.8694 46.0277 64.795 46.0277C64.6487 46.0197 64.5238 46.0463 64.4201 46.0596C64.2154 46.0888 64.101 46.1021 64.0984 46.0915C64.0984 46.0835 64.2074 46.0516 64.4121 46.0064C64.5158 45.9825 64.6408 45.9479 64.7897 45.9506C64.8668 45.9479 64.9465 45.9426 65.0289 45.9399C65.0715 45.9399 65.1167 45.9373 65.1592 45.9346C65.2044 45.9399 65.2496 45.9453 65.2975 45.9506C65.4863 45.9745 65.6936 45.9878 65.9063 46.0596C66.0127 46.0915 66.127 46.1128 66.236 46.1606C66.345 46.2085 66.4567 46.2563 66.571 46.3042C67.0177 46.5275 67.483 46.8306 67.8951 47.2321C68.7246 48.0324 69.2617 48.947 69.5435 49.6409C69.6153 49.8137 69.6791 49.9733 69.719 50.1168C69.7615 50.2604 69.804 50.38 69.82 50.4837C69.8625 50.6885 69.8811 50.8028 69.8705 50.8054L69.8732 50.8081Z" fill="#263238" />
    <path d="M71.8726 47.5193C71.8433 47.5299 71.7423 47.0487 71.3195 46.4026C70.9048 45.7672 70.1125 44.9722 68.9852 44.6345C67.8605 44.2916 66.7678 44.3979 66.0047 44.4724C65.6405 44.5149 65.3374 44.5521 65.0928 44.5814C64.8774 44.6079 64.7578 44.6186 64.7551 44.6079C64.7551 44.5973 64.8695 44.5707 65.0822 44.5282C65.2949 44.4856 65.6033 44.4298 65.9888 44.374C66.7518 44.2756 67.8605 44.1506 69.0197 44.5016C69.5967 44.6771 70.1018 44.9722 70.498 45.3099C70.8995 45.6449 71.1893 46.0171 71.3967 46.3494C71.604 46.6844 71.721 46.9795 71.7875 47.1896C71.854 47.397 71.8726 47.5166 71.8672 47.5193H71.8726Z" fill="#263238" />
    <path d="M69.1102 43.587C69.0996 43.6322 68.1451 43.3238 66.9327 43.3796C65.7176 43.4221 64.7898 43.8023 64.7765 43.7572C64.7711 43.7412 64.9918 43.6269 65.3773 43.5046C65.7602 43.3823 66.3106 43.2653 66.9274 43.2387C67.5442 43.2148 68.0999 43.2892 68.4934 43.3823C68.8869 43.4753 69.1155 43.571 69.1102 43.587Z" fill="#263238" />
    <path d="M63.1811 38.2509C63.2024 38.2536 63.1492 38.6258 63.1067 39.224C63.0641 39.8249 63.0429 40.6571 63.1253 41.5717C63.1997 42.449 63.3593 43.2387 63.5002 43.8103L63.4045 43.8422C63.2954 43.5338 63.2104 43.2865 63.1545 43.1111C63.0987 42.9356 63.0721 42.8399 63.0801 42.8372C63.0881 42.8346 63.1333 42.925 63.205 43.0925C63.2768 43.26 63.3779 43.5046 63.4975 43.8077L63.4018 43.8396C63.237 43.2679 63.0615 42.4756 62.987 41.5876C62.9046 40.665 62.9392 39.8222 63.0083 39.2213C63.0429 38.9209 63.0801 38.679 63.1147 38.5115C63.1492 38.344 63.1705 38.2536 63.1811 38.2562V38.2509Z" fill="#263238" />
    <path d="M58.002 31.4286C58.002 31.4286 56.101 31.4286 55.8617 33.7151C55.6782 35.4699 55.8617 37.1741 55.8617 37.9425C55.8617 38.7109 55.524 41.4441 55.524 41.4441C55.524 41.4441 54.2265 42.5953 54.2478 43.9778C54.2691 45.3683 55.2581 45.7911 55.2581 45.7911C55.2581 45.7911 54.6546 47.1072 55.8058 48.3169C55.8058 48.3169 55.2528 49.5904 55.7075 50.4492C56.0584 51.1139 56.8481 51.3345 56.8481 51.3345C56.8481 51.3345 56.2871 52.5895 57.635 53.1186C58.4327 53.4296 59.6105 53.3605 59.6105 53.3605L61.0302 53.3339L62.2799 54.0252C62.2799 54.0252 64.4201 53.092 64.476 51.8291L64.5318 50.5662C64.5318 50.5662 63.9283 48.4817 63.8724 47.8224C63.8166 47.163 64.367 45.5731 64.0373 44.8579C63.7076 44.1453 62.5564 43.7252 62.6654 42.7282C62.7744 41.7312 62.5564 41.1808 62.0618 40.6331C61.5673 40.0854 59.3845 38.9874 59.3845 38.9874C59.3845 38.9874 58.8235 37.3948 58.8235 36.2967C58.8235 35.1987 59.9216 31.8513 57.9993 31.4312L58.002 31.4286Z" fill="#FFBF9D" />
    <path d="M59.2836 39.3995C59.2942 39.4154 59.0922 39.5457 58.7572 39.7398C58.4222 39.9365 57.9569 40.1971 57.4384 40.4789C56.92 40.7607 56.4441 41.0107 56.0984 41.1835C55.7528 41.3563 55.5321 41.4573 55.5242 41.4387C55.5162 41.4201 55.7182 41.2925 56.0506 41.0957C56.3856 40.899 56.8509 40.6384 57.3693 40.3566C57.8878 40.0748 58.361 39.8275 58.7093 39.652C59.055 39.4792 59.2756 39.3782 59.2836 39.3968V39.3995Z" fill="#FF9A6C" />
    <path d="M60.5304 43.6987C60.5304 43.6987 60.4772 43.7598 60.3656 43.8475C60.2539 43.9379 60.0864 44.0576 59.871 44.1958C59.443 44.475 58.8182 44.8153 58.0897 45.0945C57.3585 45.3737 56.6673 45.5358 56.1621 45.6156C55.9095 45.6555 55.7048 45.6794 55.5612 45.6874C55.4177 45.6954 55.3405 45.698 55.3379 45.6874C55.3379 45.6661 55.6463 45.6236 56.1435 45.5199C56.6407 45.4162 57.3186 45.2407 58.0392 44.9669C58.7597 44.6904 59.3818 44.3687 59.8205 44.1134C60.2592 43.8582 60.5198 43.6827 60.5331 43.7013L60.5304 43.6987Z" fill="#FF9A6C" />
    <path d="M62.163 42.3321C62.1976 42.3427 62.1258 42.5873 61.8998 42.792C61.6765 42.9967 61.4266 43.0446 61.4186 43.01C61.4053 42.9728 61.61 42.8744 61.8068 42.6883C62.0088 42.5075 62.1258 42.3134 62.163 42.3321Z" fill="#FF9A6C" />
    <path d="M61.381 47.4634C61.3863 47.4794 61.0859 47.6017 60.5861 47.7559C60.0862 47.9101 59.3817 48.0856 58.592 48.2132C57.8024 48.3408 57.0792 48.394 56.5554 48.4046C56.0316 48.4179 55.7073 48.394 55.7073 48.378C55.7073 48.3568 56.029 48.3435 56.5501 48.3062C57.0686 48.269 57.7864 48.2026 58.5707 48.0749C59.3551 47.9473 60.0543 47.7878 60.5595 47.6602C61.0646 47.5326 61.3757 47.4422 61.381 47.4634Z" fill="#FF9A6C" />
    <path d="M63.1174 47.147C63.0987 47.1364 63.1812 46.9902 63.2636 46.7402C63.346 46.4903 63.4151 46.1287 63.3673 45.7326C63.3194 45.3364 63.1679 44.9988 63.0296 44.7781C62.8914 44.5548 62.777 44.4325 62.793 44.4165C62.8036 44.4032 62.9445 44.5016 63.112 44.7223C63.2769 44.9403 63.4577 45.2939 63.5082 45.7166C63.5587 46.1394 63.4683 46.5249 63.3593 46.7748C63.2503 47.0274 63.136 47.1577 63.1227 47.147H63.1174Z" fill="#FF9A6C" />
    <path d="M61.4796 51.3106C61.4822 51.3266 61.227 51.3984 60.8042 51.4701C60.3815 51.5419 59.7886 51.6031 59.1319 51.6004C58.4752 51.6004 57.8849 51.534 57.4622 51.4595C57.0395 51.3877 56.7842 51.3133 56.7869 51.2973C56.7922 51.2761 57.0528 51.3159 57.4755 51.3638C57.8982 51.4116 58.4832 51.4595 59.1319 51.4622C59.7806 51.4622 60.3655 51.4196 60.7909 51.3718C61.2137 51.3266 61.4769 51.2893 61.4796 51.3106Z" fill="#FF9A6C" />
    <path d="M58.1029 36.326C58.1109 36.3419 58.0178 36.4111 57.8397 36.4749C57.6642 36.5387 57.3983 36.5839 57.1112 36.5493C56.824 36.5147 56.5768 36.4084 56.4199 36.3047C56.263 36.201 56.1886 36.1106 56.1992 36.0973C56.2232 36.0628 56.5848 36.3526 57.1271 36.411C57.6695 36.4802 58.0869 36.2861 58.1029 36.3233V36.326Z" fill="#FF9A6C" />
    <path d="M63.5132 47.3066C63.5132 47.3066 63.5372 47.3783 63.5425 47.5113C63.5452 47.6442 63.5292 47.8383 63.476 48.0723C63.4255 48.3062 63.3378 48.5748 63.2527 48.8699C63.1729 49.165 63.0958 49.5 63.1543 49.8377C63.1995 50.1727 63.4521 50.4465 63.492 50.7895C63.5372 51.1245 63.4042 51.409 63.2819 51.6111C63.1543 51.8158 63.0294 51.962 62.939 52.0577C62.8486 52.1534 62.7927 52.204 62.7874 52.196C62.7661 52.18 62.9709 51.962 63.1995 51.5605C63.3059 51.3611 63.4149 51.0953 63.367 50.8055C63.3351 50.5157 63.0799 50.2445 63.0187 49.8589C62.9549 49.4814 63.0453 49.1305 63.133 48.8327C63.2261 48.5322 63.3218 48.2717 63.383 48.0457C63.5159 47.5964 63.4893 47.3039 63.5132 47.3039V47.3066Z" fill="#FF9A6C" />
    <path d="M64.2286 48.9789C64.2286 48.9789 64.2712 49.064 64.319 49.2288C64.3669 49.391 64.4307 49.6303 64.4919 49.9307C64.5504 50.2312 64.6088 50.5901 64.6195 50.9969C64.6275 51.401 64.5876 51.8636 64.3802 52.2997C64.1675 52.7277 63.8591 53.0654 63.564 53.3419C63.2662 53.6157 62.9711 53.8337 62.7185 54.0039C62.4659 54.1741 62.2559 54.3017 62.107 54.3868C61.9581 54.4692 61.873 54.5117 61.8677 54.5038C61.8571 54.4851 62.1734 54.2857 62.6627 53.9268C62.9046 53.746 63.1891 53.5253 63.4762 53.2515C63.7607 52.975 64.0558 52.648 64.2552 52.2438C64.4493 51.8397 64.4945 51.3983 64.4919 51.0022C64.4919 50.606 64.4413 50.2498 64.3961 49.9493C64.2978 49.3538 64.21 48.9869 64.2313 48.9816L64.2286 48.9789Z" fill="#263238" />
    <path d="M44.1659 40.128C44.1659 40.128 44.0516 40.0535 43.8575 39.8967C43.6474 39.7239 43.3762 39.4979 43.0519 39.2293C42.8817 39.0858 42.6956 38.9289 42.4989 38.7641C42.4005 38.6816 42.2994 38.5939 42.1851 38.5381C42.0708 38.4822 41.9432 38.4663 41.8289 38.5248C41.6002 38.6444 41.446 38.9395 41.2492 39.1841C41.0605 39.4394 40.8637 39.7026 40.6643 39.9738C40.3426 40.4045 40.0342 40.8166 39.7497 41.1995L39.5769 41.4281L39.6327 41.1463C39.8189 40.1838 40.0794 39.3809 40.2948 38.8279C40.4011 38.5514 40.4968 38.3333 40.566 38.1871C40.6351 38.0409 40.6776 37.9638 40.6829 37.9664C40.6909 37.9691 40.6617 38.0515 40.6058 38.2031C40.55 38.3546 40.4676 38.5753 40.3719 38.8545C40.1804 39.4154 39.9385 40.2157 39.763 41.1702L39.646 41.1197C39.9305 40.7368 40.2363 40.3221 40.5553 39.8914C40.7574 39.6228 40.9541 39.3596 41.1429 39.1044C41.2386 38.9768 41.3317 38.8518 41.4247 38.7295C41.5204 38.6072 41.6268 38.4822 41.7757 38.4104C41.9272 38.3333 42.1107 38.3599 42.241 38.4291C42.3739 38.4982 42.4776 38.5912 42.576 38.6763C42.7674 38.8465 42.9482 39.006 43.1157 39.1549C43.4294 39.4367 43.69 39.6733 43.892 39.8541C44.0728 40.0216 44.1712 40.1174 44.1659 40.1253V40.128Z" fill="#263238" />
    <path d="M55.3937 37.8787C55.3937 37.8787 55.3618 37.9133 55.29 37.9718C55.2049 38.0382 55.1012 38.118 54.9763 38.2164C54.6838 38.437 54.2877 38.7348 53.8038 39.0991C52.7908 39.8435 51.4162 40.8565 49.8928 41.9785L49.8343 42.021L49.7944 41.9599C49.7625 41.912 49.7306 41.8588 49.6987 41.8083C48.9782 40.6704 48.3055 39.6095 47.7365 38.7082L47.8083 38.7321C46.8698 39.1044 46.1307 39.5138 45.6282 39.8196C45.3756 39.9711 45.1841 40.0987 45.0512 40.1838C44.9183 40.2689 44.8491 40.3141 44.8438 40.3088C44.8412 40.3035 44.905 40.2503 45.0299 40.1546C45.1549 40.0589 45.3437 39.9233 45.5909 39.7611C46.0855 39.4394 46.8193 39.0113 47.7631 38.6231L47.8083 38.6045L47.8349 38.6471C48.4092 39.5431 49.0872 40.6012 49.8157 41.7339C49.8476 41.787 49.8821 41.8375 49.9114 41.8854L49.813 41.8668C51.3471 40.7581 52.7296 39.7584 53.7506 39.022C54.2451 38.6737 54.6493 38.3865 54.947 38.1765C55.08 38.0861 55.189 38.0116 55.2767 37.9531C55.3538 37.9026 55.3937 37.8787 55.3964 37.8813L55.3937 37.8787Z" fill="#263238" />
    <path d="M31.5314 48.4525C31.5314 48.4525 31.5421 48.5163 31.5447 48.6413C31.5474 48.7768 31.5527 48.9576 31.5607 49.1783C31.5687 49.6622 31.582 50.3349 31.5979 51.1564C31.6298 52.8261 31.6963 55.1339 31.784 57.6836C31.8718 60.2333 31.9223 62.5438 31.9276 64.2135C31.9302 65.0483 31.9276 65.7263 31.9196 66.1942C31.9143 66.4176 31.9116 66.5957 31.909 66.7313C31.9037 66.8536 31.901 66.9201 31.8957 66.9201C31.8904 66.9201 31.885 66.8563 31.8824 66.7313C31.8797 66.5957 31.8744 66.4149 31.8664 66.1942C31.8585 65.7103 31.8452 65.0403 31.8292 64.2161C31.7973 62.5464 31.7308 60.2387 31.6431 57.6889C31.5554 55.1392 31.5048 52.8314 31.4995 51.1591C31.4969 50.3242 31.4995 49.6463 31.5075 49.1783C31.5128 48.955 31.5155 48.7768 31.5181 48.6413C31.5235 48.519 31.5261 48.4525 31.5314 48.4525Z" fill="#263238" />
    <path d="M44.2536 72.4689C44.2536 72.4689 44.2456 72.4423 44.2403 72.3918C44.2349 72.3333 44.2243 72.2588 44.2137 72.1658C44.1924 71.9584 44.1658 71.6659 44.1286 71.2964C44.0542 70.5413 43.9691 69.4459 43.884 68.0926C43.7963 66.7393 43.7271 65.1254 43.6793 63.3308C43.6394 61.5361 43.6314 59.5634 43.674 57.4949C43.7218 55.4237 43.8175 53.4536 43.9345 51.6616C44.0595 49.8723 44.2004 48.2611 44.344 46.9131C44.4875 45.5651 44.6205 44.475 44.7268 43.7226C44.78 43.3557 44.8199 43.0659 44.8491 42.8585C44.8624 42.7655 44.8757 42.6937 44.8837 42.6352C44.8917 42.5847 44.897 42.5581 44.8996 42.5581C44.8996 42.5581 44.8996 42.5847 44.897 42.6352C44.8917 42.6937 44.8837 42.7681 44.8757 42.8612C44.8518 43.0686 44.8199 43.361 44.7773 43.7279C44.6869 44.4803 44.5699 45.5731 44.4397 46.9211C44.3067 48.269 44.1765 49.8802 44.0595 51.6696C43.9505 53.4589 43.8574 55.429 43.8096 57.4975C43.767 59.566 43.7723 61.5361 43.8042 63.3281C43.8441 65.1201 43.9026 66.734 43.9771 68.0873C44.0488 69.4406 44.1206 70.536 44.1765 71.2937C44.2004 71.6633 44.2217 71.9557 44.235 72.1658C44.2403 72.2588 44.2429 72.3333 44.2456 72.3918C44.2456 72.4423 44.2456 72.4689 44.2456 72.4689H44.2536Z" fill="#263238" />
    <path d="M36.3305 28.948C36.3305 28.948 36.2374 29.0145 36.0487 29.1368C35.8599 29.2591 35.5807 29.4399 35.2165 29.6765C34.8522 29.9131 34.4295 30.2508 33.9137 30.6257C33.6585 30.8171 33.4059 31.0484 33.1214 31.2797C32.9805 31.3967 32.8369 31.519 32.688 31.644C32.5418 31.7716 32.4009 31.9152 32.2493 32.0561C31.0396 33.1807 29.6677 34.6909 28.4048 36.6716C28.2506 36.9216 28.0911 37.1741 27.9316 37.432C27.7641 37.6873 27.6364 37.9691 27.4822 38.2403C27.3387 38.5195 27.1765 38.7933 27.0382 39.0858C26.9053 39.3809 26.767 39.6787 26.6288 39.9818C26.5623 40.1333 26.4852 40.2849 26.4241 40.4417C26.3629 40.5986 26.3044 40.7581 26.2433 40.9176C26.1236 41.2393 25.9933 41.5611 25.8764 41.8907C25.6796 42.5661 25.4323 43.244 25.2835 43.9699C24.9139 45.4003 24.7118 46.9423 24.6294 48.5509C24.5363 50.1594 24.6321 51.845 24.9086 53.5599C25.4696 56.9817 26.8175 60.5444 29.112 63.711C31.3773 66.8882 34.5784 69.6506 38.4203 71.4665C42.2568 73.2931 46.7448 74.0827 51.2274 73.6201C55.7153 73.1548 59.9215 71.3868 63.2901 68.8051C64.1382 68.167 64.9199 67.4571 65.667 66.7313C65.8478 66.5425 66.0259 66.3564 66.2067 66.1677C66.3875 65.9815 66.563 65.7928 66.7305 65.5934C66.9007 65.3993 67.0682 65.2025 67.2357 65.0084C67.3952 64.8064 67.552 64.6043 67.7116 64.4049C68.9745 62.7964 69.9715 61.0443 70.7611 59.2603C71.5481 57.4736 72.0692 55.6258 72.3883 53.8072C72.5531 52.8979 72.6435 51.9886 72.7047 51.0926C72.7339 50.646 72.7313 50.1993 72.7472 49.7579C72.7392 49.3166 72.7153 48.8806 72.6994 48.4445C72.6914 48.2265 72.6834 48.0111 72.6728 47.7958C72.6595 47.5804 72.6249 47.3704 72.601 47.1577C72.5505 46.735 72.5 46.3149 72.4494 45.8975C72.383 45.4853 72.2873 45.0786 72.2102 44.6771C72.1277 44.2756 72.0586 43.8715 71.9336 43.4886C71.822 43.1005 71.713 42.7176 71.6013 42.3374C71.5534 42.146 71.4843 41.9625 71.4125 41.7791C71.3434 41.5956 71.2743 41.4148 71.2078 41.234C71.0669 40.8751 70.9499 40.5082 70.793 40.1652C70.6335 39.8222 70.474 39.4846 70.3171 39.1496C69.033 36.4855 67.3845 34.3319 65.7308 32.6702C64.0691 31.0032 62.3994 29.836 60.9903 28.9773C60.6314 28.7725 60.2937 28.5758 59.9746 28.395C59.8178 28.2993 59.6583 28.2248 59.5014 28.1504C59.3472 28.0759 59.1983 28.0068 59.0547 27.9377C58.7676 27.7994 58.5017 27.6745 58.2598 27.5575C58.0205 27.4352 57.7838 27.3661 57.5844 27.2836C57.1803 27.1268 56.8719 27.0071 56.6592 26.9247C56.4518 26.8423 56.3455 26.7971 56.3455 26.7971C56.3455 26.7971 56.4545 26.8343 56.6645 26.9114C56.8772 26.9912 57.1883 27.1055 57.5951 27.257C57.7971 27.3395 58.0338 27.4059 58.2757 27.5256C58.5203 27.6399 58.7862 27.7649 59.076 27.9005C59.2196 27.9669 59.3711 28.0387 59.5253 28.1105C59.6822 28.1823 59.8444 28.2567 60.0012 28.3524C60.3203 28.5332 60.6606 28.7273 61.0222 28.9321C62.4366 29.7882 64.117 30.95 65.7893 32.6171C67.4537 34.2788 69.1154 36.435 70.4102 39.1097C70.567 39.4447 70.7266 39.785 70.8888 40.128C71.0483 40.471 71.1653 40.8405 71.3088 41.1995C71.378 41.3803 71.4471 41.5637 71.5162 41.7472C71.588 41.9306 71.6571 42.1141 71.705 42.3082C71.8167 42.6884 71.9257 43.0739 72.04 43.462C72.165 43.8476 72.2367 44.2517 72.3218 44.6558C72.4016 45.0599 72.4973 45.4667 72.5638 45.8815C72.6143 46.2989 72.6675 46.7217 72.718 47.1471C72.7419 47.3598 72.7765 47.5725 72.7898 47.7878C72.7977 48.0032 72.8084 48.2212 72.8163 48.4392C72.8323 48.8752 72.8562 49.3139 72.8669 49.7579C72.8509 50.2019 72.8536 50.6486 72.8243 51.0979C72.7658 51.9966 72.6754 52.9112 72.5106 53.8258C72.1915 55.655 71.6678 57.5108 70.8808 59.3108C70.0911 61.1054 69.0888 62.8682 67.8206 64.4847C67.6611 64.6867 67.5015 64.8888 67.342 65.0909C67.1718 65.285 67.0043 65.4817 66.8342 65.6784C66.6667 65.8779 66.4912 66.0693 66.3078 66.2554C66.127 66.4442 65.9462 66.6329 65.7654 66.8217C65.0129 67.5502 64.2286 68.2654 63.3752 68.9088C59.9906 71.5091 55.7606 73.2851 51.246 73.753C46.7395 74.221 42.2249 73.426 38.3671 71.5862C34.5013 69.757 31.2869 66.9786 29.011 63.7828C26.7085 60.5976 25.3552 57.0136 24.7969 53.5759C24.5204 51.853 24.4273 50.1621 24.5231 48.5456C24.6081 46.929 24.8155 45.3817 25.1877 43.9459C25.3393 43.2174 25.5892 42.5368 25.7886 41.8615C25.9083 41.5291 26.0359 41.2074 26.1582 40.8857C26.2193 40.7262 26.2805 40.5667 26.3416 40.4072C26.4054 40.2503 26.4799 40.0987 26.549 39.9472C26.6873 39.6441 26.8255 39.3437 26.9611 39.0485C27.0994 38.7561 27.2642 38.4796 27.4104 38.2004C27.5647 37.9266 27.6949 37.6447 27.8624 37.3895C28.0246 37.1316 28.1841 36.8764 28.3383 36.6291C29.6119 34.6457 30.9944 33.1355 32.2121 32.0162C32.3637 31.8753 32.5072 31.7317 32.6535 31.6041C32.805 31.4791 32.9486 31.3568 33.0922 31.2398C33.3766 31.0085 33.6345 30.7799 33.8898 30.5884C34.4082 30.2189 34.8336 29.8839 35.2032 29.6499C35.5701 29.4186 35.8519 29.2405 36.0434 29.1208C36.2321 29.0012 36.3305 28.9453 36.3305 28.9453V28.948Z" fill="#263238" />
</svg>
    