<svg width="28" height="28" viewBox="0 0 28 28" fill="none" xmlns="http://www.w3.org/2000/svg">
    <rect width="28" height="28" rx="5" fill="white" />
    <path fill-rule="evenodd" clip-rule="evenodd" d="M16.9775 6.0323C16.2665 6.15893 15.6659 6.41733 15.0951 6.84228C14.855 7.02102 14.1028 7.77201 12.2518 9.68093C11.6381 10.3139 11.3892 10.6422 11.1595 11.1214C10.4507 12.6007 10.6281 14.3914 11.6148 15.7166C11.9122 16.116 12.5744 16.7053 12.7259 16.7053C12.835 16.7053 13.5721 15.8908 13.8864 15.4231C14.0799 15.135 14.0786 15.0623 13.8776 14.9297C13.3865 14.6057 13.0353 14.1031 12.9223 13.5624C12.8586 13.2577 12.879 12.8067 12.9694 12.5214C13.0434 12.2878 13.2575 11.9434 13.5043 11.6609C13.7818 11.3433 16.2504 8.8117 16.4559 8.63397C16.8517 8.29174 17.3046 8.14136 17.8692 8.16461C18.4238 8.18743 18.8524 8.376 19.2368 8.76632C19.9259 9.46602 20.0433 10.5343 19.5215 11.3586C19.4554 11.463 19.0813 11.8808 18.69 12.287C18.2988 12.6933 17.9787 13.0472 17.9787 13.0735C17.9787 13.0999 18.0124 13.2383 18.0535 13.3812C18.1979 13.8827 18.2404 14.225 18.2421 14.8981C18.2431 15.2795 18.2275 15.6235 18.2025 15.7729C18.1799 15.9084 18.1673 16.0251 18.1745 16.0324C18.2012 16.0592 20.99 13.1612 21.1677 12.922C21.5204 12.4473 21.7889 11.8367 21.9268 11.1954C22.018 10.7718 22.0252 9.94952 21.9415 9.52774C21.5941 7.77697 20.3207 6.46306 18.5857 6.06527C18.2869 5.99675 17.2917 5.97636 16.9775 6.0323ZM14.8186 11.6653C14.4477 12.0252 14.2358 12.2914 14.0523 12.628C13.9109 12.8872 13.9201 12.9622 14.1075 13.0795C14.5657 13.3662 14.9219 13.844 15.0549 14.3503C15.1248 14.6164 15.1263 15.0883 15.058 15.3499C14.9863 15.6248 14.8239 15.9233 14.5785 16.2314C14.2815 16.6042 11.5916 19.3529 11.3985 19.4808C11.1806 19.6251 11.0852 19.6721 10.8452 19.753C10.565 19.8474 10.0921 19.8704 9.78146 19.8047C9.19298 19.6802 8.63566 19.2481 8.37816 18.7167C8.18818 18.3247 8.14441 18.115 8.16178 17.6804C8.19053 16.9613 8.31765 16.7413 9.28186 15.7416C9.79135 15.2133 10.0005 14.9757 10.0005 14.925C10.0005 14.8857 9.9664 14.715 9.92475 14.5458C9.88311 14.3766 9.83064 14.132 9.80815 14.0024C9.76272 13.7402 9.75067 12.5537 9.78984 12.1952L9.81387 11.9752L8.49805 13.3109C6.89655 14.9367 6.76054 15.0971 6.4518 15.7245C5.8473 16.9531 5.84952 18.4177 6.45778 19.6438C7.04923 20.8362 8.1013 21.6474 9.43896 21.9427C9.64874 21.989 9.83227 22.0008 10.329 22C10.8998 21.999 10.9837 21.9916 11.2846 21.9157C11.8576 21.7712 12.3292 21.5625 12.785 21.2518C13.2001 20.9689 15.7657 18.3657 16.3831 17.601C16.9752 16.8676 17.2698 15.9947 17.2687 14.9767C17.2677 14.0332 17.0459 13.2831 16.5439 12.5262C16.3321 12.2069 15.8619 11.7058 15.5702 11.4885C15.2566 11.255 15.2365 11.2597 14.8186 11.6653Z" fill="#279FFE" />
</svg>
    