<svg width="28" height="28" viewBox="0 0 28 28" fill="none" xmlns="http://www.w3.org/2000/svg">
    <rect width="28" height="28" rx="5" fill="#279FFE" />
    <path fill-rule="evenodd" clip-rule="evenodd" d="M18.7509 11.0203H22.2353C22.2353 8.22263 20.559 6.58826 17.7187 6.58826H10.2813C7.44105 6.58826 5.76471 8.22263 5.76471 10.9846V17.0154C5.76471 19.7774 7.44105 21.4118 10.2813 21.4118H17.7187C20.559 21.4118 22.2353 19.7774 22.2353 17.0154V16.7585H18.7509C17.1337 16.7585 15.8227 15.4803 15.8227 13.9037C15.8227 12.327 17.1337 11.0489 18.7509 11.0489V11.0203ZM18.7509 12.2479H21.6204C21.96 12.2479 22.2353 12.5163 22.2353 12.8474V14.9314C22.2313 15.2609 21.9583 15.5271 21.6204 15.5309H18.8167C17.9981 15.5416 17.2822 14.9952 17.0965 14.2177C17.0035 13.7351 17.134 13.2371 17.4531 12.8571C17.7722 12.4772 18.2472 12.2542 18.7509 12.2479ZM18.8753 14.4389H19.1461C19.4938 14.4389 19.7757 14.1641 19.7757 13.8252C19.7757 13.4862 19.4938 13.2114 19.1461 13.2114H18.8753C18.709 13.2095 18.5489 13.2725 18.4306 13.3865C18.3123 13.5005 18.2457 13.6559 18.2458 13.818C18.2457 14.1582 18.5264 14.435 18.8753 14.4389ZM9.66641 11.0203H14.3148C14.6625 11.0203 14.9443 10.7455 14.9443 10.4065C14.9443 10.0676 14.6625 9.79277 14.3148 9.79277H9.66641C9.32156 9.79274 9.04088 10.0632 9.03687 10.3994C9.03684 10.7396 9.31754 11.0164 9.66641 11.0203Z" fill="white" />
</svg>
    